SplineFontDB: 3.2
FontName: Monofoki-Bold-Italic
FullName: Monofoki Bold Italic
FamilyName: Monofoki
Weight: Bold
Version: 2.3
ItalicAngle: -9
UnderlinePosition: 0
UnderlineWidth: 0
Ascent: 819
Descent: 205
InvalidEm: 0
LayerCount: 2
Layer: 0 0 "Back" 1
Layer: 1 0 "Fore" 0
XUID: [1021 977 -1548889699 857424]
StyleMap: 0x0021
FSType: 0
OS2Version: 3
OS2_WeightWidthSlopeOnly: 0
OS2_UseTypoMetrics: 0
CreationTime: 1593379981
PfmFamily: 17
TTFWeight: 700
TTFWidth: 5
LineGap: 0
VLineGap: 0
Panose: 2 0 8 9 0 0 0 0 0 0
OS2TypoAscent: 750
OS2TypoAOffset: 0
OS2TypoDescent: -250
OS2TypoDOffset: 0
OS2TypoLinegap: 229
OS2WinAscent: 900
OS2WinAOffset: 0
OS2WinDescent: 250
OS2WinDOffset: 0
HheadAscent: 900
HheadAOffset: 0
HheadDescent: -250
HheadDOffset: 0
OS2SubXSize: 665
OS2SubYSize: 716
OS2SubXOff: 22
OS2SubYOff: 143
OS2SupXSize: 665
OS2SupYSize: 716
OS2SupXOff: -76
OS2SupYOff: 491
OS2StrikeYSize: 51
OS2StrikeYPos: 265
OS2CapHeight: 700
OS2XHeight: 500
OS2Vendor: 'PfEd'
OS2CodePages: 6000009f.dfd70000
OS2UnicodeRanges: a00002ff.100078fb.00020028.00000000
Lookup: 260 0 0 "'mark' Mark Positioning lookup 0" { "'mark' Mark Positioning lookup 0 subtable"  } ['mark' ('DFLT' <'dflt' > 'cyrl' <'dflt' > 'grek' <'dflt' > 'latn' <'dflt' > 'mong' <'dflt' > ) ]
MarkAttachClasses: 1
DEI: 91125
LangName: 1033 "" "" "" "FontForge 2.0 : Monofoki Bold Italic : 1-1-1980"
Encoding: UnicodeBmp
UnicodeInterp: none
NameList: AGL For New Fonts
BeginPrivate: 7
BlueValues 31 [-15 0 500 516 700 716 750 766]
BlueShift 1 6
StdHW 4 [96]
StdVW 5 [105]
StemSnapH 11 [96 97 105]
StemSnapV 9 [105 106]
ForceBold 4 true
EndPrivate
AnchorClass2: "Anchor-0" "'mark' Mark Positioning lookup 0 subtable" "Anchor-1" "'mark' Mark Positioning lookup 0 subtable" "Anchor-2" "'mark' Mark Positioning lookup 0 subtable" "Anchor-3" "'mark' Mark Positioning lookup 0 subtable" "Anchor-4" "'mark' Mark Positioning lookup 0 subtable"
BeginChars: 65581 1051

StartChar: .notdef
Encoding: 65536 -1 0
Width: 575
Flags: MW
LayerCount: 2
Fore
SplineSet
51 0 m 1
 51 546 l 1
 524 546 l 1
 524 0 l 1
 51 0 l 1
102 51 m 1
 473 51 l 1
 473 495 l 1
 102 495 l 1
 102 51 l 1
EndSplineSet
EndChar

StartChar: exclam
Encoding: 33 33 2
Width: 575
GlyphClass: 2
Flags: W
LayerCount: 2
Fore
SplineSet
331 710 m 2
 386 710 l 2
 394 710 400 709 406 705 c 0
 414 700 418 692 418 683 c 0
 418 680 418 676 417 673 c 0
 389 525 361 376 332 228 c 0
 328 208 313 195 292 195 c 2
 269 195 l 2
 261 195 255 196 249 200 c 0
 241 205 237 214 237 223 c 0
 237 226 237 228 238 231 c 0
 256 379 274 529 292 677 c 0
 294 688 299 697 308 703 c 0
 315 708 322 710 331 710 c 2
246 107 m 2
 281 107 l 2
 289 107 296 105 302 101 c 0
 310 96 313 88 313 79 c 0
 313 76 313 73 312 70 c 0
 310 54 308 39 305 23 c 0
 303 12 298 3 289 -3 c 0
 282 -8 275 -10 266 -10 c 2
 231 -10 l 2
 223 -10 216 -8 210 -4 c 0
 202 1 199 9 199 18 c 0
 199 21 199 24 200 27 c 0
 202 43 204 58 207 74 c 0
 209 85 214 94 223 100 c 0
 230 105 237 107 246 107 c 2
EndSplineSet
EndChar

StartChar: quotedbl
Encoding: 34 34 3
Width: 575
GlyphClass: 2
Flags: W
LayerCount: 2
Fore
SplineSet
224 760 m 2
 278 760 l 2
 285 760 292 759 298 755 c 0
 306 750 310 741 310 732 c 0
 310 729 310 726 309 723 c 2
 253 435 l 2
 251 424 245 415 237 409 c 0
 230 404 223 403 214 403 c 2
 185 403 l 2
 177 403 170 405 164 409 c 0
 156 414 153 423 153 432 c 2
 153 438 l 1
 185 726 l 2
 186 737 191 747 200 753 c 0
 207 758 215 760 224 760 c 2
455 760 m 2
 509 760 l 2
 516 760 523 759 529 755 c 0
 537 750 541 741 541 732 c 0
 541 729 541 726 540 723 c 2
 484 435 l 2
 482 424 476 415 468 409 c 0
 461 404 454 403 445 403 c 2
 416 403 l 2
 408 403 401 405 395 409 c 0
 387 414 384 423 384 432 c 2
 384 438 l 1
 416 726 l 2
 417 737 422 747 431 753 c 0
 438 758 446 760 455 760 c 2
EndSplineSet
EndChar

StartChar: numbersign
Encoding: 35 35 4
Width: 575
GlyphClass: 2
Flags: W
LayerCount: 2
Fore
SplineSet
502 280 m 2
 510 280 517 278 523 274 c 0
 531 269 534 261 534 252 c 0
 534 249 534 246 533 243 c 0
 532 234 531 225 529 216 c 0
 527 205 522 196 513 190 c 0
 506 185 499 183 490 183 c 2
 432 183 l 1
 406 23 l 2
 404 12 399 3 390 -3 c 0
 383 -8 376 -10 367 -10 c 2
 332 -10 l 2
 324 -10 317 -8 311 -4 c 0
 303 1 300 9 300 18 c 0
 300 21 300 24 301 27 c 2
 326 183 l 1
 228 183 l 1
 202 23 l 2
 200 12 195 3 186 -3 c 0
 179 -8 172 -10 163 -10 c 2
 128 -10 l 2
 120 -10 113 -8 107 -4 c 0
 99 1 96 9 96 18 c 0
 96 21 96 24 97 27 c 2
 122 183 l 1
 67 183 l 2
 59 183 52 185 46 189 c 0
 38 194 35 202 35 211 c 0
 35 214 35 217 36 220 c 0
 37 229 38 238 40 247 c 0
 42 258 47 267 56 273 c 0
 63 278 70 280 79 280 c 2
 137 280 l 1
 159 414 l 1
 104 414 l 2
 96 414 89 416 83 420 c 0
 75 425 72 433 72 442 c 0
 72 445 72 448 73 451 c 0
 74 460 75 469 77 478 c 0
 79 489 84 498 93 504 c 0
 100 509 107 511 116 511 c 2
 174 511 l 1
 200 677 l 2
 202 688 207 697 216 703 c 0
 223 708 230 710 239 710 c 2
 274 710 l 2
 282 710 289 708 295 704 c 0
 303 699 306 691 306 682 c 0
 306 679 306 676 305 673 c 2
 280 511 l 1
 378 511 l 1
 404 677 l 2
 406 688 411 697 420 703 c 0
 427 708 434 710 443 710 c 2
 478 710 l 2
 486 710 493 708 499 704 c 0
 507 699 510 691 510 682 c 0
 510 679 510 676 509 673 c 2
 484 511 l 1
 539 511 l 2
 547 511 554 509 560 505 c 0
 568 500 571 492 571 483 c 0
 571 480 571 477 570 474 c 0
 569 465 568 456 566 447 c 0
 564 436 559 427 550 421 c 0
 543 416 536 414 527 414 c 2
 469 414 l 1
 447 280 l 1
 502 280 l 2
363 414 m 1
 265 414 l 1
 243 280 l 1
 341 280 l 1
 363 414 l 1
EndSplineSet
EndChar

StartChar: dollar
Encoding: 36 36 5
Width: 575
GlyphClass: 2
Flags: W
LayerCount: 2
Fore
SplineSet
63 93 m 2
 70 106 81 114 95 114 c 0
 100 114 105 113 110 111 c 0
 153 93 193 89 226 89 c 0
 321 89 409 137 409 214 c 0
 409 256 360 269 289 284 c 0
 204 302 96 324 96 441 c 0
 96 555 188 636 301 660 c 1
 317 767 l 2
 319 778 324 787 333 793 c 0
 340 798 347 800 356 800 c 2
 391 800 l 2
 399 800 406 798 412 794 c 0
 420 789 423 781 423 772 c 0
 423 769 423 766 422 763 c 2
 407 666 l 1
 443 663 482 654 513 640 c 0
 522 635 530 628 530 617 c 0
 530 610 528 602 524 595 c 2
 510 569 l 2
 504 556 493 547 479 547 c 0
 474 547 469 548 464 550 c 0
 432 563 397 572 361 572 c 0
 280 572 204 525 204 459 c 0
 204 407 261 391 336 374 c 0
 417 355 517 333 517 230 c 0
 517 111 418 31 299 2 c 1
 278 -132 l 2
 276 -143 271 -152 262 -158 c 0
 255 -163 248 -165 239 -165 c 2
 204 -165 l 2
 196 -165 189 -163 183 -159 c 0
 175 -154 172 -146 172 -137 c 0
 172 -134 172 -131 173 -128 c 2
 192 -10 l 1
 146 -9 102 2 61 21 c 0
 50 26 42 35 42 47 c 0
 42 54 44 61 48 68 c 2
 63 93 l 2
EndSplineSet
EndChar

StartChar: percent
Encoding: 37 37 6
Width: 575
GlyphClass: 2
Flags: W
LayerCount: 2
Fore
SplineSet
347 143 m 0
 354 148 361 150 370 150 c 2
 470 150 l 2
 478 150 485 148 491 144 c 0
 499 139 502 131 502 122 c 0
 502 119 502 116 501 113 c 2
 486 23 l 2
 484 12 479 3 470 -3 c 0
 463 -8 456 -10 447 -10 c 2
 347 -10 l 2
 339 -10 332 -8 326 -4 c 0
 318 1 315 9 315 18 c 0
 315 21 315 24 316 27 c 2
 331 117 l 2
 333 128 338 137 347 143 c 0
121 593 m 0
 128 598 135 600 144 600 c 2
 244 600 l 2
 252 600 259 598 265 594 c 0
 273 589 276 581 276 572 c 0
 276 569 276 566 275 563 c 2
 260 473 l 2
 258 462 253 453 244 447 c 0
 237 442 230 440 221 440 c 2
 121 440 l 2
 113 440 106 442 100 446 c 0
 92 451 89 459 89 468 c 0
 89 471 89 474 90 477 c 2
 105 567 l 2
 107 578 112 587 121 593 c 0
37 74 m 0
 33 80 30 88 30 95 c 0
 30 105 35 114 43 122 c 2
 488 531 l 2
 495 538 504 542 513 542 c 0
 522 542 530 538 536 530 c 0
 542 522 549 513 555 505 c 0
 559 499 562 491 562 484 c 0
 562 474 557 465 549 457 c 2
 103 48 l 2
 96 41 87 37 78 37 c 0
 69 37 61 42 56 49 c 0
 50 57 43 66 37 74 c 0
EndSplineSet
EndChar

StartChar: ampersand
Encoding: 38 38 7
Width: 575
GlyphClass: 2
Flags: W
LayerCount: 2
Fore
SplineSet
463 1 m 2
 431 1 l 2
 421 1 412 4 406 11 c 0
 401 16 398 24 397 31 c 0
 395 46 391 61 385 78 c 1
 329 26 240 -8 191 -8 c 0
 132 -8 91 20 81 28 c 0
 46 56 28 101 28 154 c 0
 28 253 87 326 170 382 c 1
 135 428 117 475 117 519 c 0
 117 622 212 707 319 707 c 0
 410 707 473 646 473 564 c 0
 473 503 445 447 398 407 c 0
 390 401 385 398 374 398 c 0
 365 398 355 404 349 411 c 2
 333 431 l 2
 327 438 324 445 324 453 c 0
 324 463 330 472 338 479 c 0
 360 497 371 524 371 547 c 0
 371 581 345 608 305 608 c 0
 260 608 223 572 223 529 c 0
 223 503 235 472 267 434 c 0
 317 375 362 318 400 261 c 1
 404 271 409 281 413 291 c 0
 419 306 431 317 448 317 c 0
 451 317 454 317 457 316 c 2
 489 310 l 2
 504 307 514 297 514 282 c 0
 514 277 513 271 511 266 c 0
 495 226 477 199 459 169 c 1
 480 123 494 81 500 39 c 1
 500 36 l 2
 500 14 483 1 463 1 c 2
204 90 m 0
 242 90 293 112 340 169 c 1
 313 213 276 253 230 311 c 1
 169 270 132 221 132 164 c 0
 132 141 138 125 147 113 c 0
 159 99 178 90 204 90 c 0
EndSplineSet
EndChar

StartChar: quotesingle
Encoding: 39 39 8
Width: 575
GlyphClass: 2
Flags: W
LayerCount: 2
Fore
SplineSet
340 760 m 2
 394 760 l 2
 401 760 408 759 414 755 c 0
 422 750 426 741 426 732 c 0
 426 729 426 726 425 723 c 2
 369 435 l 2
 367 424 361 415 353 409 c 0
 346 404 339 403 330 403 c 2
 301 403 l 2
 293 403 286 405 280 409 c 0
 272 414 269 423 269 432 c 2
 269 438 l 1
 301 726 l 2
 302 737 307 747 316 753 c 0
 323 758 331 760 340 760 c 2
EndSplineSet
EndChar

StartChar: parenleft
Encoding: 40 40 9
Width: 575
GlyphClass: 2
Flags: W
LayerCount: 2
Fore
SplineSet
368 -188 m 0
 206 -188 102 -30 102 178 c 0
 102 357 179 555 301 668 c 0
 362 725 435 760 515 760 c 0
 522 760 529 759 535 755 c 0
 543 750 547 741 547 732 c 0
 547 729 546 726 546 723 c 0
 543 705 543 686 532 675 c 0
 525 667 514 664 503 664 c 0
 447 664 396 635 352 587 c 0
 264 491 208 323 208 184 c 0
 208 19 279 -92 380 -92 c 0
 388 -92 394 -93 400 -97 c 0
 408 -102 412 -111 412 -120 c 0
 412 -123 412 -126 411 -129 c 0
 410 -138 409 -146 407 -155 c 0
 405 -166 400 -175 391 -181 c 0
 384 -186 377 -188 368 -188 c 0
EndSplineSet
EndChar

StartChar: parenright
Encoding: 41 41 10
Width: 575
GlyphClass: 2
Flags: W
LayerCount: 2
Fore
SplineSet
208 760 m 0
 370 760 474 602 474 394 c 0
 474 215 397 17 275 -96 c 0
 214 -153 141 -188 61 -188 c 0
 54 -188 47 -187 41 -183 c 0
 33 -178 29 -169 29 -160 c 0
 29 -157 30 -154 30 -151 c 0
 33 -133 33 -114 44 -103 c 0
 51 -95 62 -92 73 -92 c 0
 129 -92 180 -63 224 -15 c 0
 312 81 368 249 368 388 c 0
 368 553 297 664 196 664 c 0
 188 664 182 665 176 669 c 0
 168 674 164 683 164 692 c 0
 164 695 164 698 165 701 c 0
 166 710 167 718 169 727 c 0
 171 738 176 747 185 753 c 0
 192 758 199 760 208 760 c 0
EndSplineSet
EndChar

StartChar: asterisk
Encoding: 42 42 11
Width: 575
GlyphClass: 2
Flags: W
LayerCount: 2
Fore
SplineSet
564 356 m 2
 564 339 553 325 536 320 c 2
 399 278 l 1
 471 149 l 2
 474 143 475 137 475 131 c 0
 475 119 468 108 457 101 c 2
 425 81 l 2
 418 76 411 73 403 73 c 0
 392 73 382 79 376 89 c 2
 292 239 l 1
 248 188 203 138 159 87 c 0
 150 78 141 72 130 72 c 0
 122 72 115 75 109 80 c 2
 84 101 l 2
 76 107 71 116 71 125 c 0
 71 134 75 142 82 150 c 2
 197 279 l 1
 77 321 l 2
 65 325 55 335 55 348 c 0
 55 354 57 359 60 365 c 2
 76 399 l 2
 82 413 95 423 110 423 c 0
 115 423 118 421 123 420 c 2
 260 372 l 1
 285 526 l 2
 287 546 302 560 324 560 c 2
 359 560 l 2
 367 560 374 558 380 554 c 0
 388 548 390 539 390 530 c 2
 390 524 l 1
 365 373 l 1
 516 421 l 2
 520 422 525 423 529 423 c 0
 545 423 555 412 558 397 c 0
 560 385 562 374 564 362 c 2
 564 356 l 2
EndSplineSet
EndChar

StartChar: plus
Encoding: 43 43 12
Width: 575
GlyphClass: 2
Flags: W
LayerCount: 2
Fore
SplineSet
503 262 m 2
 343 262 l 1
 317 94 l 2
 315 83 310 74 301 68 c 0
 294 63 287 61 278 61 c 2
 243 61 l 2
 235 61 228 63 222 67 c 0
 214 72 211 80 211 89 c 0
 211 92 211 95 212 98 c 2
 237 262 l 1
 80 262 l 2
 72 262 65 264 59 268 c 0
 51 273 48 281 48 290 c 0
 48 293 48 296 49 299 c 0
 50 308 51 317 53 326 c 0
 55 337 60 346 69 352 c 0
 76 357 83 359 92 359 c 2
 252 359 l 1
 278 527 l 2
 280 538 285 547 294 553 c 0
 301 558 308 560 317 560 c 2
 352 560 l 2
 360 560 367 558 373 554 c 0
 381 549 384 541 384 532 c 0
 384 529 384 526 383 523 c 2
 358 359 l 1
 515 359 l 2
 523 359 530 357 536 353 c 0
 544 348 547 340 547 331 c 0
 547 328 547 325 546 322 c 0
 545 313 544 304 542 295 c 0
 540 284 535 275 526 269 c 0
 519 264 512 262 503 262 c 2
EndSplineSet
EndChar

StartChar: comma
Encoding: 44 44 13
Width: 575
GlyphClass: 2
Flags: W
LayerCount: 2
Fore
SplineSet
38 -257 m 0
 30 -257 23 -255 17 -251 c 0
 9 -246 6 -238 6 -229 c 0
 6 -226 6 -223 7 -220 c 0
 8 -211 9 -203 11 -194 c 0
 13 -183 18 -174 27 -168 c 0
 34 -163 41 -161 50 -161 c 0
 114 -161 155 -147 183 -116 c 0
 204 -93 217 -59 225 -10 c 1
 197 -10 l 2
 189 -10 182 -8 176 -4 c 0
 168 1 165 9 165 18 c 0
 165 21 165 24 166 27 c 2
 181 117 l 2
 183 128 188 137 197 143 c 0
 204 148 211 150 220 150 c 2
 320 150 l 2
 328 150 335 148 341 144 c 0
 349 139 352 131 352 122 c 0
 352 119 352 116 351 113 c 2
 332 -4 l 2
 316 -105 285 -172 227 -212 c 0
 181 -244 119 -257 38 -257 c 0
EndSplineSet
EndChar

StartChar: hyphen
Encoding: 45 45 14
Width: 575
GlyphClass: 2
Flags: W
LayerCount: 2
Fore
SplineSet
80 262 m 2
 72 262 65 264 59 268 c 0
 51 273 48 281 48 290 c 0
 48 293 48 296 49 299 c 0
 50 308 51 317 53 326 c 0
 55 337 60 346 69 352 c 0
 76 357 83 359 92 359 c 2
 515 359 l 2
 523 359 530 357 536 353 c 0
 544 348 547 340 547 331 c 0
 547 328 547 325 546 322 c 0
 545 313 544 304 542 295 c 0
 540 284 535 275 526 269 c 0
 519 264 512 262 503 262 c 2
 80 262 l 2
EndSplineSet
EndChar

StartChar: period
Encoding: 46 46 15
Width: 575
GlyphClass: 2
Flags: W
LayerCount: 2
Fore
SplineSet
220 150 m 2
 320 150 l 2
 328 150 335 148 341 144 c 0
 349 139 352 131 352 122 c 0
 352 119 352 116 351 113 c 2
 336 23 l 2
 334 12 329 3 320 -3 c 0
 313 -8 306 -10 297 -10 c 2
 197 -10 l 2
 189 -10 182 -8 176 -4 c 0
 168 1 165 9 165 18 c 0
 165 21 165 24 166 27 c 2
 181 117 l 2
 183 128 188 137 197 143 c 0
 204 148 211 150 220 150 c 2
EndSplineSet
EndChar

StartChar: slash
Encoding: 47 47 16
Width: 575
GlyphClass: 2
Flags: W
LayerCount: 2
Fore
SplineSet
90 -84 m 0
 84 -84 78 -83 73 -80 c 2
 48 -67 l 2
 38 -61 31 -52 31 -40 c 0
 31 -33 34 -27 38 -20 c 2
 504 702 l 2
 511 713 522 721 535 721 c 0
 541 721 547 720 552 717 c 2
 577 704 l 2
 587 698 594 689 594 677 c 0
 594 670 591 664 587 657 c 2
 120 -65 l 2
 113 -76 103 -84 90 -84 c 0
EndSplineSet
EndChar

StartChar: zero
Encoding: 48 48 17
Width: 575
GlyphClass: 2
Flags: W
LayerCount: 2
Fore
SplineSet
91 76 m 0
 65 120 52 181 52 254 c 0
 52 393 99 548 190 637 c 0
 236 682 293 710 361 710 c 0
 430 710 483 680 516 624 c 0
 542 580 555 519 555 446 c 0
 555 308 509 153 418 63 c 0
 372 18 315 -10 247 -10 c 0
 178 -10 124 20 91 76 c 0
247 555 m 0
 194 487 163 371 158 277 c 1
 441 522 l 1
 427 585 381 614 349 614 c 0
 309 614 276 592 247 555 c 0
361 146 m 0
 414 214 444 331 449 425 c 1
 166 180 l 1
 181 116 227 87 259 87 c 0
 299 87 333 109 361 146 c 0
EndSplineSet
EndChar

StartChar: one
Encoding: 49 49 18
Width: 575
GlyphClass: 2
Flags: W
LayerCount: 2
Fore
SplineSet
349 97 m 1
 440 97 l 2
 448 97 455 95 461 91 c 0
 469 86 472 78 472 69 c 0
 472 66 472 63 471 60 c 2
 466 33 l 2
 464 22 459 13 450 7 c 0
 443 2 436 0 427 0 c 2
 72 0 l 2
 64 0 57 2 51 6 c 0
 43 11 40 19 40 28 c 0
 40 31 40 34 41 37 c 2
 46 64 l 2
 48 75 53 84 62 90 c 0
 69 95 76 97 85 97 c 2
 243 97 l 1
 308 510 l 1
 153 510 l 2
 145 510 138 512 132 516 c 0
 124 521 121 529 121 538 c 0
 121 541 121 544 122 547 c 0
 123 556 124 565 126 574 c 0
 128 585 133 594 142 600 c 0
 149 605 156 607 165 607 c 0
 262 607 313 625 348 677 c 0
 357 692 372 700 389 700 c 2
 408 700 l 2
 416 700 423 698 429 694 c 0
 437 689 440 681 440 673 c 0
 440 670 440 668 439 665 c 2
 349 97 l 1
EndSplineSet
EndChar

StartChar: two
Encoding: 50 50 19
Width: 575
GlyphClass: 2
Flags: W
LayerCount: 2
Fore
SplineSet
263 314 m 0
 359 381 444 435 444 525 c 0
 444 561 431 583 407 596 c 0
 388 607 361 612 326 612 c 0
 286 612 246 604 200 588 c 0
 195 587 191 586 186 586 c 0
 171 586 160 597 156 611 c 0
 154 620 153 628 151 637 c 0
 150 640 150 643 150 646 c 0
 150 662 161 674 177 680 c 0
 229 698 286 710 338 710 c 0
 451 710 551 661 551 537 c 0
 551 394 430 315 318 236 c 0
 244 185 182 153 161 97 c 1
 466 97 l 2
 474 97 481 95 487 91 c 0
 495 86 498 78 498 69 c 0
 498 66 498 63 497 60 c 2
 492 33 l 2
 490 22 485 13 476 7 c 0
 469 2 462 0 453 0 c 2
 73 0 l 2
 65 0 58 2 52 6 c 0
 45 12 42 21 42 30 c 2
 42 37 l 1
 46 60 l 2
 67 194 174 254 251 306 c 0
 255 309 259 311 263 314 c 0
EndSplineSet
EndChar

StartChar: three
Encoding: 51 51 20
Width: 575
GlyphClass: 2
Flags: W
LayerCount: 2
Fore
SplineSet
200 404 m 0
 207 409 214 411 223 411 c 2
 274 411 l 2
 371 411 430 463 430 533 c 0
 430 568 416 586 392 598 c 0
 372 607 344 612 309 612 c 0
 277 612 245 608 215 601 c 0
 211 600 207 600 203 600 c 0
 195 600 188 602 182 608 c 0
 178 613 175 619 174 626 c 0
 173 635 172 645 171 654 c 2
 171 660 l 2
 171 677 182 692 201 696 c 0
 239 705 280 710 321 710 c 0
 429 710 537 670 537 548 c 0
 537 464 483 405 405 363 c 1
 452 334 491 284 491 206 c 0
 491 66 355 -10 202 -10 c 0
 159 -10 117 -5 80 4 c 0
 66 8 58 19 58 32 c 0
 58 38 60 43 62 49 c 0
 66 58 70 68 74 77 c 0
 81 91 93 100 108 100 c 0
 112 100 115 100 119 99 c 0
 147 92 179 88 214 88 c 0
 323 88 386 131 386 209 c 0
 386 275 339 314 262 314 c 2
 211 314 l 2
 203 314 196 316 190 320 c 0
 182 325 179 333 179 342 c 0
 179 345 179 348 180 351 c 0
 181 360 182 369 184 378 c 0
 186 389 191 398 200 404 c 0
EndSplineSet
EndChar

StartChar: four
Encoding: 52 52 21
Width: 575
GlyphClass: 2
Flags: W
LayerCount: 2
Fore
SplineSet
438 231 m 1
 480 231 l 2
 488 231 495 229 501 225 c 0
 509 220 512 212 512 203 c 0
 512 200 512 197 511 194 c 0
 510 185 509 177 507 168 c 0
 505 157 500 148 491 142 c 0
 484 137 477 135 468 135 c 2
 422 135 l 1
 406 33 l 2
 404 22 399 13 390 7 c 0
 383 2 376 0 367 0 c 2
 332 0 l 2
 324 0 318 1 312 5 c 0
 305 10 301 20 301 28 c 0
 301 31 301 34 302 37 c 2
 317 135 l 1
 80 135 l 2
 73 135 66 136 60 140 c 0
 52 145 49 153 49 161 c 0
 49 164 49 167 50 170 c 2
 57 209 l 2
 58 223 64 233 70 243 c 2
 358 673 l 2
 368 690 380 700 406 700 c 2
 442 700 l 2
 458 700 472 692 472 676 c 0
 472 669 469 663 465 656 c 2
 179 231 l 1
 332 231 l 1
 358 394 l 2
 360 405 365 414 374 420 c 0
 381 425 388 427 397 427 c 2
 432 427 l 2
 440 427 447 425 453 421 c 0
 461 416 464 408 464 399 c 0
 464 396 464 393 463 390 c 2
 438 231 l 1
EndSplineSet
EndChar

StartChar: five
Encoding: 53 53 22
Width: 575
GlyphClass: 2
Flags: W
LayerCount: 2
Fore
SplineSet
123 99 m 0
 159 89 181 88 217 88 c 0
 326 88 394 141 394 240 c 0
 394 282 382 308 359 324 c 0
 341 337 314 344 279 344 c 2
 215 344 l 2
 194 344 168 350 165 351 c 0
 158 352 152 354 147 358 c 0
 141 363 138 371 138 379 c 0
 138 383 138 386 139 390 c 2
 207 670 l 2
 211 689 227 700 247 700 c 2
 502 700 l 2
 510 700 516 699 522 695 c 0
 530 690 534 681 534 672 c 0
 534 669 534 666 533 663 c 2
 529 638 l 2
 528 627 523 617 514 611 c 0
 507 606 499 604 490 604 c 2
 292 604 l 1
 252 441 l 1
 292 441 l 2
 352 441 400 430 435 406 c 0
 479 376 501 326 501 258 c 0
 501 165 468 92 405 46 c 0
 355 9 287 -10 205 -10 c 0
 163 -10 129 -8 83 4 c 0
 69 8 61 19 61 32 c 0
 61 38 63 43 65 49 c 0
 69 58 73 68 77 77 c 0
 84 91 96 100 111 100 c 0
 115 100 119 100 123 99 c 0
EndSplineSet
EndChar

StartChar: six
Encoding: 54 54 23
Width: 575
GlyphClass: 2
Flags: W
LayerCount: 2
Fore
SplineSet
500 630 m 2
 494 615 482 604 465 604 c 0
 462 604 459 604 456 605 c 0
 431 610 409 612 393 612 c 0
 320 612 230 575 182 417 c 1
 232 431 274 439 313 439 c 0
 423 439 504 372 504 255 c 0
 504 114 396 -10 242 -10 c 0
 175 -10 120 13 86 62 c 0
 59 101 45 155 45 226 c 0
 45 459 169 710 403 710 c 0
 428 710 458 707 489 702 c 0
 504 699 514 688 514 673 c 0
 514 668 513 663 511 658 c 2
 500 630 l 2
177 129 m 0
 196 100 224 88 257 88 c 0
 343 88 397 169 397 244 c 0
 397 280 385 305 365 321 c 0
 349 334 326 341 297 341 c 0
 270 341 222 339 159 311 c 1
 154 282 152 263 152 241 c 0
 152 189 162 153 177 129 c 0
EndSplineSet
EndChar

StartChar: seven
Encoding: 55 55 24
Width: 575
GlyphClass: 2
Flags: W
LayerCount: 2
Fore
SplineSet
158 693 m 0
 165 698 172 700 181 700 c 2
 561 700 l 2
 569 700 575 699 581 695 c 0
 589 690 593 682 593 673 c 0
 593 670 593 667 592 664 c 2
 585 614 l 2
 576 558 554 515 511 451 c 2
 384 266 l 2
 325 178 290 111 276 33 c 0
 274 22 269 13 260 7 c 0
 253 2 246 0 237 0 c 2
 202 0 l 2
 194 0 187 2 181 6 c 0
 173 12 171 20 171 29 c 2
 171 37 l 1
 184 120 228 198 300 309 c 2
 418 490 l 2
 453 543 470 573 477 604 c 1
 238 604 l 1
 222 506 l 2
 220 495 215 486 206 480 c 0
 199 475 192 473 183 473 c 2
 148 473 l 2
 140 473 133 475 127 479 c 0
 119 484 116 492 116 501 c 0
 116 504 116 507 117 510 c 2
 142 667 l 2
 144 678 149 687 158 693 c 0
EndSplineSet
EndChar

StartChar: eight
Encoding: 56 56 25
Width: 575
GlyphClass: 2
Flags: W
LayerCount: 2
Fore
SplineSet
113 507 m 0
 113 632 230 710 361 710 c 0
 472 710 555 655 555 564 c 0
 555 477 486 407 408 359 c 1
 467 323 518 277 518 196 c 0
 518 64 393 -10 247 -10 c 0
 131 -10 31 49 31 148 c 0
 31 240 118 309 209 357 c 1
 157 389 113 433 113 507 c 0
447 543 m 0
 447 583 411 614 349 614 c 0
 281 614 220 574 220 518 c 0
 220 472 261 430 330 394 c 1
 362 414 395 443 417 472 c 0
 436 497 447 522 447 543 c 0
176 247 m 0
 152 222 138 195 138 167 c 0
 138 117 184 87 259 87 c 0
 343 87 412 127 412 193 c 0
 412 253 357 292 290 325 c 1
 247 303 205 277 176 247 c 0
EndSplineSet
EndChar

StartChar: nine
Encoding: 57 57 26
Width: 575
GlyphClass: 2
Flags: W
LayerCount: 2
Fore
SplineSet
73 74 m 2
 79 89 91 100 108 100 c 0
 111 100 114 100 117 99 c 0
 142 94 164 92 180 92 c 0
 253 92 343 129 391 287 c 1
 341 273 299 265 260 265 c 0
 150 265 69 332 69 449 c 0
 69 590 177 714 331 714 c 0
 398 714 453 691 487 642 c 0
 514 603 528 549 528 478 c 0
 528 245 404 -6 170 -6 c 0
 145 -6 115 -3 84 2 c 0
 69 5 59 16 59 31 c 0
 59 36 60 41 62 46 c 2
 73 74 l 2
396 575 m 0
 377 604 349 616 316 616 c 0
 230 616 176 535 176 460 c 0
 176 424 188 399 208 383 c 0
 224 370 247 363 276 363 c 0
 303 363 351 365 414 393 c 1
 419 422 421 441 421 463 c 0
 421 515 411 551 396 575 c 0
EndSplineSet
EndChar

StartChar: colon
Encoding: 58 58 27
Width: 575
GlyphClass: 2
Flags: W
LayerCount: 2
Fore
SplineSet
287 560 m 2
 387 560 l 2
 395 560 402 558 408 554 c 0
 416 549 419 541 419 532 c 0
 419 529 419 526 418 523 c 2
 403 433 l 2
 401 422 396 413 387 407 c 0
 380 402 373 400 364 400 c 2
 264 400 l 2
 256 400 249 402 243 406 c 0
 235 411 232 419 232 428 c 0
 232 431 232 434 233 437 c 2
 248 527 l 2
 250 538 255 547 264 553 c 0
 271 558 278 560 287 560 c 2
220 150 m 2
 320 150 l 2
 328 150 335 148 341 144 c 0
 349 139 352 131 352 122 c 0
 352 119 352 116 351 113 c 2
 336 23 l 2
 334 12 329 3 320 -3 c 0
 313 -8 306 -10 297 -10 c 2
 197 -10 l 2
 189 -10 182 -8 176 -4 c 0
 168 1 165 9 165 18 c 0
 165 21 165 24 166 27 c 2
 181 117 l 2
 183 128 188 137 197 143 c 0
 204 148 211 150 220 150 c 2
EndSplineSet
EndChar

StartChar: semicolon
Encoding: 59 59 28
Width: 575
GlyphClass: 2
Flags: W
LayerCount: 2
Fore
SplineSet
287 560 m 2
 387 560 l 2
 395 560 402 558 408 554 c 0
 416 549 419 541 419 532 c 0
 419 529 419 526 418 523 c 2
 403 433 l 2
 401 422 396 413 387 407 c 0
 380 402 373 400 364 400 c 2
 264 400 l 2
 256 400 249 402 243 406 c 0
 235 411 232 419 232 428 c 0
 232 431 232 434 233 437 c 2
 248 527 l 2
 250 538 255 547 264 553 c 0
 271 558 278 560 287 560 c 2
38 -257 m 0
 30 -257 23 -255 17 -251 c 0
 9 -246 6 -238 6 -229 c 0
 6 -226 6 -223 7 -220 c 0
 8 -211 9 -203 11 -194 c 0
 13 -183 18 -174 27 -168 c 0
 34 -163 41 -161 50 -161 c 0
 114 -161 155 -147 183 -116 c 0
 204 -93 217 -59 225 -10 c 1
 197 -10 l 2
 189 -10 182 -8 176 -4 c 0
 168 1 165 9 165 18 c 0
 165 21 165 24 166 27 c 2
 181 117 l 2
 183 128 188 137 197 143 c 0
 204 148 211 150 220 150 c 2
 320 150 l 2
 328 150 335 148 341 144 c 0
 349 139 352 131 352 122 c 0
 352 119 352 116 351 113 c 2
 332 -4 l 2
 316 -105 285 -172 227 -212 c 0
 181 -244 119 -257 38 -257 c 0
EndSplineSet
EndChar

StartChar: less
Encoding: 60 60 29
Width: 575
GlyphClass: 2
Flags: W
LayerCount: 2
Fore
SplineSet
415 -18 m 0
 407 -18 399 -15 393 -10 c 2
 107 234 l 2
 85 252 72 276 72 300 c 0
 72 304 72 308 73 312 c 0
 78 340 99 366 129 386 c 2
 492 630 l 2
 499 635 508 638 516 638 c 0
 526 638 535 633 541 623 c 0
 546 615 552 608 557 600 c 0
 561 594 562 588 562 581 c 0
 562 569 556 559 545 552 c 2
 183 309 l 1
 465 68 l 2
 472 62 478 53 478 44 c 0
 478 34 472 25 465 18 c 2
 442 -5 l 2
 434 -13 425 -18 415 -18 c 0
EndSplineSet
EndChar

StartChar: equal
Encoding: 61 61 30
Width: 575
GlyphClass: 2
Flags: W
LayerCount: 2
Fore
SplineSet
98 377 m 2
 90 377 83 379 77 383 c 0
 69 388 66 396 66 405 c 0
 66 408 66 411 67 414 c 0
 68 423 69 432 71 441 c 0
 73 452 78 461 87 467 c 0
 94 472 101 474 110 474 c 2
 533 474 l 2
 541 474 548 472 554 468 c 0
 562 463 565 455 565 446 c 0
 565 443 565 440 564 437 c 0
 563 428 562 419 560 410 c 0
 558 399 553 390 544 384 c 0
 537 379 530 377 521 377 c 2
 98 377 l 2
62 147 m 2
 54 147 47 149 41 153 c 0
 33 158 30 166 30 175 c 0
 30 178 30 181 31 184 c 0
 32 193 33 202 35 211 c 0
 37 222 42 231 51 237 c 0
 58 242 65 244 74 244 c 2
 497 244 l 2
 505 244 512 242 518 238 c 0
 526 233 529 225 529 216 c 0
 529 213 529 210 528 207 c 0
 527 198 526 189 524 180 c 0
 522 169 517 160 508 154 c 0
 501 149 494 147 485 147 c 2
 62 147 l 2
EndSplineSet
EndChar

StartChar: greater
Encoding: 62 62 31
Width: 575
GlyphClass: 2
Flags: W
LayerCount: 2
Fore
SplineSet
179 639 m 0
 187 639 195 636 201 631 c 2
 487 387 l 2
 509 369 522 345 522 321 c 0
 522 317 522 313 521 309 c 0
 516 281 495 255 465 235 c 2
 102 -9 l 2
 95 -14 86 -17 78 -17 c 0
 68 -17 59 -12 53 -2 c 0
 48 6 42 13 37 21 c 0
 33 27 32 33 32 40 c 0
 32 52 38 62 49 69 c 2
 411 312 l 1
 129 553 l 2
 122 559 116 568 116 577 c 0
 116 587 122 596 129 603 c 2
 152 626 l 2
 160 634 169 639 179 639 c 0
EndSplineSet
EndChar

StartChar: question
Encoding: 63 63 32
Width: 575
GlyphClass: 2
Flags: W
LayerCount: 2
Fore
SplineSet
160 107 m 2
 195 107 l 2
 203 107 210 105 216 101 c 0
 224 96 227 88 227 79 c 0
 227 76 227 73 226 70 c 0
 224 54 222 39 219 23 c 0
 217 12 212 3 203 -3 c 0
 196 -8 189 -10 180 -10 c 2
 145 -10 l 2
 137 -10 130 -8 124 -4 c 0
 116 1 113 9 113 18 c 0
 113 21 113 24 114 27 c 0
 116 43 118 58 121 74 c 0
 123 85 128 94 137 100 c 0
 144 105 151 107 160 107 c 2
207 411 m 2
 268 411 l 2
 330 411 389 426 420 453 c 0
 435 467 444 483 444 503 c 0
 444 525 433 543 411 560 c 0
 366 594 275 615 150 616 c 0
 142 616 136 618 130 622 c 0
 122 627 118 636 118 645 c 0
 118 648 119 650 119 653 c 2
 122 677 l 2
 126 697 140 710 161 710 c 0
 431 708 550 614 550 510 c 0
 550 383 407 319 264 317 c 1
 259 287 255 258 250 228 c 0
 246 208 232 195 211 195 c 2
 176 195 l 2
 168 195 162 197 156 201 c 0
 148 206 144 215 144 224 c 0
 144 227 145 229 145 232 c 2
 168 377 l 2
 171 398 187 411 207 411 c 2
EndSplineSet
EndChar

StartChar: at
Encoding: 64 64 33
Width: 575
GlyphClass: 2
Flags: W
LayerCount: 2
Fore
SplineSet
347 276 m 0
 346 267 345 259 345 252 c 0
 345 224 354 206 368 193 c 0
 380 182 398 176 417 174 c 1
 449 378 l 1
 429 376 410 370 394 359 c 0
 371 343 353 317 347 276 c 0
242 276 m 0
 261 397 346 471 464 475 c 1
 466 487 467 499 467 510 c 0
 467 537 461 559 452 576 c 0
 434 608 400 624 347 624 c 0
 293 624 253 608 225 576 c 0
 203 550 187 513 179 464 c 2
 120 88 l 2
 117 72 116 57 116 44 c 0
 116 16 122 -6 131 -24 c 0
 149 -56 183 -72 237 -72 c 0
 269 -72 295 -67 329 -55 c 0
 334 -53 339 -52 344 -52 c 0
 358 -52 368 -61 371 -74 c 2
 377 -101 l 2
 378 -104 379 -108 379 -111 c 0
 379 -113 378 -116 378 -118 c 0
 376 -132 365 -142 351 -146 c 0
 309 -160 268 -168 221 -168 c 0
 132 -168 69 -142 36 -88 c 0
 18 -59 9 -22 9 22 c 0
 9 42 11 65 15 88 c 2
 74 464 l 2
 86 538 112 597 152 640 c 0
 202 694 273 720 362 720 c 0
 451 720 513 694 546 640 c 0
 564 611 573 574 573 530 c 0
 573 510 571 487 567 464 c 2
 512 112 l 2
 511 103 507 95 501 89 c 0
 493 81 482 77 471 77 c 2
 411 77 l 2
 303 77 238 135 238 234 c 0
 238 247 240 261 242 276 c 0
EndSplineSet
EndChar

StartChar: A
Encoding: 65 65 34
Width: 575
GlyphClass: 2
Flags: W
AnchorPoint: "Anchor-3" 487 0 basechar 0
AnchorPoint: "Anchor-2" 248 0 basechar 0
AnchorPoint: "Anchor-1" 360 700 basechar 0
LayerCount: 2
Fore
SplineSet
75 27 m 2
 68 9 53 0 34 0 c 2
 -1 0 l 2
 -8 0 -15 1 -20 5 c 0
 -27 10 -31 17 -31 25 c 0
 -31 30 -29 36 -27 41 c 2
 215 617 l 2
 240 677 292 710 355 710 c 0
 417 710 473 678 479 615 c 2
 533 38 l 1
 533 33 l 2
 533 13 517 0 497 0 c 2
 461 0 l 2
 453 0 445 1 439 6 c 0
 431 12 428 20 427 30 c 2
 410 210 l 1
 154 210 l 1
 75 27 l 2
374 597 m 2
 373 608 363 614 349 614 c 0
 334 614 319 606 315 594 c 2
 193 306 l 1
 401 306 l 1
 374 597 l 2
EndSplineSet
EndChar

StartChar: B
Encoding: 66 66 35
Width: 575
GlyphClass: 2
Flags: W
AnchorPoint: "Anchor-2" 248 0 basechar 0
AnchorPoint: "Anchor-1" 360 700 basechar 0
LayerCount: 2
Fore
SplineSet
517 217 m 0
 517 75 384 0 224 0 c 2
 87 0 l 2
 79 0 72 2 66 6 c 0
 58 11 55 19 55 28 c 0
 55 31 55 33 56 36 c 2
 149 604 l 1
 123 604 l 2
 115 604 108 606 102 610 c 0
 94 615 91 623 91 632 c 0
 91 635 91 638 92 641 c 0
 93 650 94 658 96 667 c 0
 98 678 103 687 112 693 c 0
 119 698 126 700 135 700 c 2
 315 700 l 2
 369 700 417 692 454 673 c 0
 501 649 529 607 529 547 c 0
 529 475 488 409 424 371 c 1
 484 343 517 287 517 217 c 0
223 413 m 1
 268 413 l 2
 368 413 432 454 432 521 c 0
 432 552 420 573 394 587 c 0
 373 598 342 604 303 604 c 2
 255 604 l 1
 223 413 l 1
237 97 m 2
 346 97 421 137 421 219 c 0
 421 260 403 285 372 299 c 0
 347 311 313 316 276 316 c 2
 208 316 l 1
 172 97 l 1
 237 97 l 2
EndSplineSet
EndChar

StartChar: C
Encoding: 67 67 36
Width: 575
GlyphClass: 2
Flags: W
AnchorPoint: "Anchor-2" 248 0 basechar 0
AnchorPoint: "Anchor-1" 360 700 basechar 0
LayerCount: 2
Fore
SplineSet
203 387 m 0
 186 287 182 256 182 222 c 0
 182 156 203 120 230 100 c 0
 252 84 280 78 308 78 c 0
 337 78 374 84 419 100 c 0
 424 102 434 103 434 103 c 2
 448 103 459 93 462 79 c 2
 468 56 l 2
 469 52 469 48 469 44 c 0
 469 28 460 17 444 11 c 0
 397 -8 302 -20 297 -20 c 0
 250 -20 200 -10 160 18 c 0
 109 53 75 115 75 211 c 0
 75 250 80 283 97 390 c 0
 138 638 290 710 413 710 c 0
 459 710 505 699 550 679 c 0
 561 674 569 665 569 653 c 0
 569 646 567 639 563 632 c 2
 549 608 l 2
 542 595 531 587 517 587 c 0
 512 587 507 588 502 590 c 0
 461 606 405 611 399 612 c 0
 357 612 311 599 273 557 c 0
 242 523 217 470 203 387 c 0
EndSplineSet
EndChar

StartChar: D
Encoding: 68 68 37
Width: 575
GlyphClass: 2
Flags: W
AnchorPoint: "Anchor-2" 248 0 basechar 0
AnchorPoint: "Anchor-1" 360 700 basechar 0
LayerCount: 2
Fore
SplineSet
133 700 m 2
 185 700 l 2
 387 700 556 657 556 470 c 0
 556 430 552 402 538 319 c 0
 519 200 478 115 401 62 c 0
 339 20 256 0 143 0 c 2
 89 0 l 2
 70 0 55 12 55 30 c 0
 55 32 56 35 56 37 c 2
 149 604 l 1
 125 604 l 2
 106 604 91 616 91 635 c 0
 91 637 92 640 92 643 c 0
 95 664 96 684 111 694 c 0
 118 698 125 700 133 700 c 2
434 334 m 0
 449 422 451 442 451 473 c 0
 451 525 435 558 396 580 c 0
 366 597 320 608 255 612 c 1
 172 86 l 1
 267 90 327 111 367 156 c 0
 401 194 421 252 434 334 c 0
EndSplineSet
EndChar

StartChar: E
Encoding: 69 69 38
Width: 575
GlyphClass: 2
Flags: W
AnchorPoint: "Anchor-3" 442 0 basechar 0
AnchorPoint: "Anchor-2" 248 0 basechar 0
AnchorPoint: "Anchor-1" 360 700 basechar 0
LayerCount: 2
Fore
SplineSet
155 97 m 1
 464 97 l 2
 472 97 479 95 485 91 c 0
 493 86 496 78 496 69 c 0
 496 66 496 63 495 60 c 0
 494 51 493 42 491 33 c 0
 489 22 484 13 475 7 c 0
 468 2 461 0 452 0 c 2
 70 0 l 2
 62 0 55 2 49 6 c 0
 41 11 38 19 38 28 c 0
 38 31 38 33 39 36 c 2
 142 667 l 2
 144 678 149 687 158 693 c 0
 165 698 172 700 181 700 c 2
 540 700 l 2
 548 700 555 698 561 694 c 0
 569 689 572 681 572 672 c 0
 572 669 572 666 571 663 c 0
 570 654 569 646 567 637 c 0
 565 626 560 617 551 611 c 0
 544 606 537 604 528 604 c 2
 238 604 l 1
 206 413 l 1
 472 413 l 2
 480 413 487 411 493 407 c 0
 501 402 504 394 504 385 c 0
 504 382 504 379 503 376 c 0
 502 367 501 358 499 349 c 0
 497 338 492 329 483 323 c 0
 476 318 469 316 460 316 c 2
 191 316 l 1
 155 97 l 1
EndSplineSet
EndChar

StartChar: F
Encoding: 70 70 39
Width: 575
GlyphClass: 2
Flags: W
AnchorPoint: "Anchor-2" 248 0 basechar 0
AnchorPoint: "Anchor-1" 360 700 basechar 0
LayerCount: 2
Fore
SplineSet
158 693 m 0
 165 698 172 700 181 700 c 2
 562 700 l 2
 570 700 577 698 583 694 c 0
 591 689 594 681 594 672 c 0
 594 669 594 666 593 663 c 0
 592 654 591 646 589 637 c 0
 587 626 582 617 573 611 c 0
 566 606 559 604 550 604 c 2
 238 604 l 1
 201 378 l 1
 488 378 l 2
 496 378 503 376 509 372 c 0
 517 367 520 359 520 350 c 0
 520 347 520 344 519 341 c 0
 518 332 517 324 515 315 c 0
 513 304 508 295 499 289 c 0
 492 284 485 282 476 282 c 2
 186 282 l 1
 144 32 l 2
 142 21 137 13 128 7 c 0
 121 2 114 0 105 0 c 2
 70 0 l 2
 62 0 55 2 49 6 c 0
 41 11 38 19 38 28 c 0
 38 31 38 33 39 36 c 2
 142 667 l 2
 144 678 149 687 158 693 c 0
EndSplineSet
EndChar

StartChar: G
Encoding: 71 71 40
Width: 575
GlyphClass: 2
Flags: W
AnchorPoint: "Anchor-2" 248 0 basechar 0
AnchorPoint: "Anchor-1" 360 700 basechar 0
LayerCount: 2
Fore
SplineSet
337 388 m 0
 344 396 354 399 365 399 c 2
 497 399 l 2
 505 399 512 398 518 394 c 0
 526 389 529 380 529 371 c 0
 529 368 529 366 528 363 c 2
 477 48 l 2
 475 31 464 18 447 11 c 0
 394 -10 344 -20 297 -20 c 0
 250 -20 200 -10 160 18 c 0
 109 53 75 114 75 210 c 0
 75 250 80 283 97 390 c 0
 138 638 290 710 413 710 c 0
 459 710 505 699 550 679 c 0
 561 674 569 665 569 653 c 0
 569 646 567 639 563 632 c 2
 549 608 l 2
 542 595 531 587 517 587 c 0
 512 587 507 588 502 590 c 0
 461 606 405 611 399 612 c 0
 357 612 311 599 273 557 c 0
 242 523 217 470 203 387 c 0
 186 287 182 256 182 222 c 0
 182 156 203 120 230 100 c 0
 252 84 280 78 308 78 c 0
 327 78 350 82 377 88 c 1
 413 302 l 1
 353 302 l 2
 345 302 338 304 332 308 c 0
 324 313 321 321 321 330 c 0
 321 333 321 336 322 339 c 0
 325 358 326 376 337 388 c 0
EndSplineSet
EndChar

StartChar: H
Encoding: 72 72 41
Width: 575
GlyphClass: 2
Flags: W
AnchorPoint: "Anchor-2" 248 0 basechar 0
AnchorPoint: "Anchor-1" 360 700 basechar 0
LayerCount: 2
Fore
SplineSet
495 693 m 0
 502 698 509 700 518 700 c 2
 553 700 l 2
 561 700 568 698 574 694 c 0
 582 689 585 681 585 672 c 0
 585 669 585 667 584 664 c 2
 481 33 l 2
 479 22 474 13 465 7 c 0
 458 2 451 0 442 0 c 2
 407 0 l 2
 399 0 392 2 386 6 c 0
 378 11 375 19 375 28 c 0
 375 31 375 33 376 36 c 2
 423 323 l 1
 175 323 l 1
 127 32 l 2
 125 21 120 13 111 7 c 0
 104 2 97 0 88 0 c 2
 53 0 l 2
 45 0 38 2 32 6 c 0
 24 11 21 19 21 28 c 0
 21 31 21 33 22 36 c 2
 125 667 l 2
 127 678 132 687 141 693 c 0
 148 698 155 700 164 700 c 2
 199 700 l 2
 207 700 214 698 220 694 c 0
 228 689 231 682 231 673 c 0
 231 670 231 667 230 664 c 2
 190 420 l 1
 438 420 l 1
 479 668 l 2
 481 679 486 687 495 693 c 0
EndSplineSet
EndChar

StartChar: I
Encoding: 73 73 42
Width: 575
GlyphClass: 2
Flags: W
AnchorPoint: "Anchor-3" 416 0 basechar 0
AnchorPoint: "Anchor-2" 248 0 basechar 0
AnchorPoint: "Anchor-1" 360 700 basechar 0
LayerCount: 2
Fore
SplineSet
168 693 m 0
 175 698 182 700 191 700 c 2
 526 700 l 2
 534 700 541 698 547 694 c 0
 555 689 558 681 558 672 c 0
 558 669 558 666 557 663 c 0
 556 654 555 646 553 637 c 0
 551 626 546 617 537 611 c 0
 530 606 523 604 514 604 c 2
 398 604 l 1
 315 97 l 1
 438 97 l 2
 446 97 453 95 459 91 c 0
 467 86 470 78 470 69 c 0
 470 66 470 63 469 60 c 0
 468 51 467 42 465 33 c 0
 463 22 458 13 449 7 c 0
 442 2 435 0 426 0 c 2
 71 0 l 2
 63 0 56 2 50 6 c 0
 42 11 39 19 39 28 c 0
 39 31 39 34 40 37 c 0
 41 46 42 55 44 64 c 0
 46 75 51 84 60 90 c 0
 67 95 74 97 83 97 c 2
 209 97 l 1
 292 604 l 1
 179 604 l 2
 171 604 164 606 158 610 c 0
 150 615 147 623 147 632 c 0
 147 635 147 638 148 641 c 0
 149 650 150 658 152 667 c 0
 154 678 159 687 168 693 c 0
EndSplineSet
EndChar

StartChar: J
Encoding: 74 74 43
Width: 575
GlyphClass: 2
Flags: W
AnchorPoint: "Anchor-2" 248 0 basechar 0
AnchorPoint: "Anchor-1" 360 700 basechar 0
LayerCount: 2
Fore
SplineSet
245 693 m 0
 252 698 259 700 268 700 c 2
 536 700 l 2
 544 700 551 698 557 694 c 0
 565 689 568 681 568 672 c 0
 568 669 568 667 567 664 c 2
 504 275 l 2
 484 153 434 78 363 36 c 0
 306 2 238 -10 164 -10 c 0
 134 -10 87 -8 34 3 c 0
 20 6 9 15 9 30 c 0
 9 36 11 41 13 47 c 2
 24 73 l 2
 30 89 43 99 59 99 c 0
 62 99 66 99 69 98 c 0
 113 89 156 87 176 87 c 0
 261 87 314 112 348 152 c 0
 375 184 391 228 399 279 c 2
 452 604 l 1
 256 604 l 2
 248 604 241 606 235 610 c 0
 227 615 224 623 224 632 c 0
 224 635 224 638 225 641 c 0
 226 650 227 658 229 667 c 0
 231 678 236 687 245 693 c 0
EndSplineSet
EndChar

StartChar: K
Encoding: 75 75 44
Width: 575
GlyphClass: 2
Flags: MW
AnchorPoint: "Anchor-2" 248 0 basechar 0
AnchorPoint: "Anchor-1" 360 700 basechar 0
LayerCount: 2
Fore
SplineSet
489 27 m 0
 489 10 473 0 455 0 c 2
 403 0 l 2
 384 0 374 9 367 21 c 2
 194 327 l 2
 193 328 192 330 191 331 c 1
 144 33 l 2
 140 13 126 0 105 0 c 2
 70 0 l 2
 62 0 56 2 50 6 c 0
 42 11 38 19 38 28 c 0
 38 31 39 33 39 36 c 2
 142 668 l 2
 146 687 160 700 181 700 c 2
 216 700 l 2
 224 700 230 698 236 694 c 0
 244 689 248 680 248 671 c 0
 248 668 247 666 247 663 c 2
 204 392 l 1
 205 393 206 395 207 396 c 2
 458 682 l 2
 470 695 483 700 498 700 c 2
 551 700 l 2
 565 700 580 694 580 679 c 0
 580 670 575 662 568 655 c 2
 310 379 l 2
 304 372 295 366 286 360 c 1
 293 354 300 347 304 340 c 2
 484 45 l 2
 487 39 489 33 489 27 c 0
EndSplineSet
EndChar

StartChar: L
Encoding: 76 76 45
Width: 575
GlyphClass: 2
Flags: W
AnchorPoint: "Anchor-4" 394 400 basechar 0
AnchorPoint: "Anchor-2" 248 0 basechar 0
AnchorPoint: "Anchor-1" 360 700 basechar 0
AnchorPoint: "Anchor-0" 461 700 basechar 0
LayerCount: 2
Fore
SplineSet
155 97 m 1
 502 97 l 2
 510 97 517 95 523 91 c 0
 531 86 534 78 534 69 c 0
 534 66 534 63 533 60 c 0
 532 51 531 42 529 33 c 0
 527 22 522 13 513 7 c 0
 506 2 499 0 490 0 c 2
 70 0 l 2
 62 0 55 2 49 6 c 0
 41 11 38 19 38 28 c 0
 38 31 38 33 39 36 c 2
 142 667 l 2
 144 678 149 687 158 693 c 0
 165 698 172 700 181 700 c 2
 216 700 l 2
 224 700 231 698 237 694 c 0
 245 689 248 681 248 672 c 0
 248 669 248 667 247 664 c 2
 155 97 l 1
EndSplineSet
EndChar

StartChar: M
Encoding: 77 77 46
Width: 575
GlyphClass: 2
Flags: W
AnchorPoint: "Anchor-2" 248 0 basechar 0
AnchorPoint: "Anchor-1" 360 700 basechar 0
LayerCount: 2
Fore
SplineSet
554 700 m 2
 572 700 l 2
 580 700 587 699 593 695 c 0
 601 690 605 681 605 672 c 0
 605 669 605 667 604 664 c 2
 520 33 l 2
 517 13 498 0 479 0 c 2
 445 0 l 2
 435 0 427 3 421 10 c 0
 417 16 415 23 415 30 c 2
 415 36 l 1
 473 509 l 1
 350 323 l 2
 340 307 327 300 310 300 c 2
 282 300 l 2
 275 300 268 301 262 304 c 0
 254 308 249 316 246 325 c 2
 183 511 l 1
 91 33 l 2
 87 14 72 0 52 0 c 2
 17 0 l 2
 0 0 -15 12 -15 29 c 0
 -15 31 -15 34 -14 36 c 2
 110 668 l 2
 112 676 115 683 121 689 c 0
 128 696 138 700 150 700 c 2
 168 700 l 2
 202 700 221 684 230 657 c 2
 315 411 l 1
 481 659 l 2
 499 687 523 700 554 700 c 2
EndSplineSet
EndChar

StartChar: N
Encoding: 78 78 47
Width: 575
GlyphClass: 2
Flags: W
AnchorPoint: "Anchor-2" 248 0 basechar 0
AnchorPoint: "Anchor-1" 360 700 basechar 0
LayerCount: 2
Fore
SplineSet
480 666 m 2
 483 686 499 700 519 700 c 2
 554 700 l 2
 562 700 568 699 574 695 c 0
 582 690 586 682 586 673 c 0
 586 670 586 668 585 665 c 2
 480 33 l 2
 478 22 473 13 464 7 c 0
 457 2 450 0 441 0 c 2
 423 0 l 2
 389 0 370 17 361 43 c 2
 202 496 l 1
 129 33 l 2
 127 22 122 13 113 7 c 0
 106 2 99 0 90 0 c 2
 55 0 l 2
 47 0 40 2 34 6 c 0
 26 11 23 19 23 28 c 0
 23 31 23 33 24 36 c 2
 127 667 l 2
 129 678 134 687 143 693 c 0
 150 698 157 700 166 700 c 2
 186 700 l 2
 220 700 239 684 248 657 c 2
 405 200 l 1
 480 666 l 2
EndSplineSet
EndChar

StartChar: O
Encoding: 79 79 48
Width: 575
GlyphClass: 2
Flags: W
AnchorPoint: "Anchor-2" 248 0 basechar 0
AnchorPoint: "Anchor-1" 360 700 basechar 0
LayerCount: 2
Fore
SplineSet
101 456 m 0
 128 622 232 710 356 710 c 0
 463 710 545 641 545 514 c 0
 545 485 542 465 527 373 c 0
 522 340 515 298 506 244 c 0
 479 80 376 -10 252 -10 c 0
 151 -10 67 51 62 167 c 1
 62 182 l 2
 62 220 68 257 88 376 c 0
 92 399 96 426 101 456 c 0
169 179 m 0
 176 118 219 87 264 87 c 0
 322 87 383 142 401 248 c 0
 406 279 411 306 415 329 c 0
 435 451 439 476 439 497 c 0
 439 574 393 614 344 614 c 0
 286 614 224 558 206 452 c 0
 200 413 194 380 189 353 c 0
 173 257 168 224 168 199 c 0
 168 192 168 186 169 179 c 0
EndSplineSet
EndChar

StartChar: P
Encoding: 80 80 49
Width: 575
GlyphClass: 2
Flags: W
AnchorPoint: "Anchor-2" 248 0 basechar 0
AnchorPoint: "Anchor-1" 360 700 basechar 0
LayerCount: 2
Fore
SplineSet
158 693 m 0
 165 698 172 700 181 700 c 2
 316 700 l 2
 390 700 448 684 489 655 c 0
 541 619 566 563 566 502 c 0
 566 350 421 250 247 250 c 2
 181 250 l 1
 144 32 l 2
 142 21 137 13 128 7 c 0
 121 2 114 0 105 0 c 2
 70 0 l 2
 62 0 55 2 49 6 c 0
 41 11 38 19 38 28 c 0
 38 31 38 33 39 36 c 2
 142 667 l 2
 144 678 149 687 158 693 c 0
259 347 m 2
 376 347 460 407 460 489 c 0
 460 568 396 604 304 604 c 2
 238 604 l 1
 196 347 l 1
 259 347 l 2
EndSplineSet
EndChar

StartChar: Q
Encoding: 81 81 50
Width: 575
GlyphClass: 2
Flags: W
AnchorPoint: "Anchor-1" 360 700 basechar 0
LayerCount: 2
Fore
SplineSet
169 179 m 0
 176 118 219 87 264 87 c 0
 322 87 383 142 401 248 c 0
 406 279 411 306 415 329 c 0
 435 451 439 476 439 497 c 0
 439 574 393 614 344 614 c 0
 286 614 224 558 206 452 c 0
 200 413 194 380 189 353 c 0
 173 257 168 224 168 199 c 0
 168 192 168 186 169 179 c 0
464 -200 m 0
 430 -212 356 -220 353 -220 c 0
 250 -220 189 -161 189 -52 c 0
 189 -36 191 -19 193 -2 c 1
 120 18 66 75 62 167 c 1
 62 182 l 2
 62 220 68 257 88 376 c 0
 92 399 96 426 101 456 c 0
 128 622 232 710 356 710 c 0
 463 710 545 641 545 514 c 0
 545 485 542 465 527 373 c 0
 522 340 515 298 506 244 c 0
 482 101 402 14 299 -6 c 1
 297 -21 296 -34 296 -46 c 0
 296 -82 305 -100 318 -110 c 0
 329 -118 345 -122 365 -122 c 0
 389 -122 412 -119 439 -109 c 0
 444 -107 449 -106 454 -106 c 0
 468 -106 479 -115 483 -129 c 0
 485 -138 488 -147 490 -156 c 0
 491 -159 491 -163 491 -166 c 0
 491 -181 481 -195 464 -200 c 0
EndSplineSet
EndChar

StartChar: R
Encoding: 82 82 51
Width: 575
GlyphClass: 2
Flags: W
AnchorPoint: "Anchor-2" 248 0 basechar 0
AnchorPoint: "Anchor-1" 360 700 basechar 0
LayerCount: 2
Fore
SplineSet
158 693 m 0
 165 698 172 700 181 700 c 2
 339 700 l 2
 401 700 451 686 487 662 c 0
 532 632 554 585 554 532 c 0
 554 450 500 368 423 330 c 1
 525 42 l 2
 526 38 528 33 528 29 c 0
 528 10 512 0 493 0 c 2
 451 0 l 2
 432 0 421 10 416 24 c 2
 318 302 l 1
 189 302 l 1
 144 32 l 2
 142 21 137 13 128 7 c 0
 121 2 114 0 105 0 c 2
 70 0 l 2
 62 0 55 2 49 6 c 0
 41 11 38 19 38 28 c 0
 38 31 38 33 39 36 c 2
 142 667 l 2
 144 678 149 687 158 693 c 0
204 399 m 1
 290 399 l 2
 380 399 447 451 447 514 c 0
 447 561 413 604 327 604 c 2
 238 604 l 1
 204 399 l 1
EndSplineSet
EndChar

StartChar: S
Encoding: 83 83 52
Width: 575
GlyphClass: 2
Flags: W
AnchorPoint: "Anchor-2" 248 0 basechar 0
AnchorPoint: "Anchor-1" 360 700 basechar 0
LayerCount: 2
Fore
SplineSet
63 93 m 2
 70 106 81 114 95 114 c 0
 100 114 105 113 110 111 c 0
 153 93 193 89 226 89 c 0
 321 89 409 135 409 210 c 0
 409 275 354 292 285 313 c 0
 206 337 112 365 112 490 c 0
 112 623 245 710 389 710 c 0
 433 710 488 701 529 682 c 0
 538 677 546 670 546 659 c 0
 546 652 544 644 540 637 c 2
 526 611 l 2
 520 598 509 589 495 589 c 0
 490 589 485 590 480 592 c 0
 448 605 413 614 377 614 c 0
 296 614 220 569 220 505 c 0
 220 438 275 420 345 398 c 0
 423 374 517 345 517 223 c 0
 517 78 366 -10 209 -10 c 0
 160 -10 105 0 61 21 c 0
 50 26 42 35 42 47 c 0
 42 54 44 61 48 68 c 2
 63 93 l 2
EndSplineSet
EndChar

StartChar: T
Encoding: 84 84 53
Width: 575
GlyphClass: 2
Flags: W
AnchorPoint: "Anchor-2" 248 0 basechar 0
AnchorPoint: "Anchor-1" 360 700 basechar 0
LayerCount: 2
Fore
SplineSet
95 693 m 0
 102 698 109 700 118 700 c 2
 600 700 l 2
 608 700 615 698 621 694 c 0
 629 689 632 681 632 672 c 0
 632 669 632 666 631 663 c 0
 630 654 629 646 627 637 c 0
 625 626 620 617 611 611 c 0
 604 606 597 604 588 604 c 2
 398 604 l 1
 304 32 l 2
 302 21 297 13 288 7 c 0
 281 2 274 0 265 0 c 2
 230 0 l 2
 222 0 215 2 209 6 c 0
 201 11 198 19 198 28 c 0
 198 31 198 33 199 36 c 2
 292 604 l 1
 106 604 l 2
 98 604 91 606 85 610 c 0
 77 615 74 623 74 632 c 0
 74 635 74 638 75 641 c 0
 76 650 77 658 79 667 c 0
 81 678 86 687 95 693 c 0
EndSplineSet
EndChar

StartChar: U
Encoding: 85 85 54
Width: 575
GlyphClass: 2
Flags: W
AnchorPoint: "Anchor-3" 326 5 basechar 0
AnchorPoint: "Anchor-2" 248 0 basechar 0
AnchorPoint: "Anchor-1" 360 700 basechar 0
LayerCount: 2
Fore
SplineSet
430 53 m 0
 386 8 326 -10 259 -10 c 0
 143 -10 57 41 57 157 c 0
 57 176 59 196 62 218 c 2
 135 667 l 2
 137 678 142 687 151 693 c 0
 158 698 165 700 174 700 c 2
 209 700 l 2
 217 700 224 698 230 694 c 0
 238 689 241 681 241 672 c 0
 241 669 241 667 240 664 c 2
 167 217 l 2
 164 197 162 167 162 166 c 0
 162 132 176 112 198 100 c 0
 216 90 241 86 271 86 c 0
 316 86 343 96 362 121 c 0
 378 141 389 173 396 220 c 2
 469 668 l 2
 471 679 476 687 485 693 c 0
 492 698 499 700 508 700 c 2
 543 700 l 2
 551 700 558 698 564 694 c 0
 572 689 575 681 575 672 c 0
 575 669 575 667 574 664 c 2
 501 215 l 2
 489 142 465 89 430 53 c 0
EndSplineSet
EndChar

StartChar: V
Encoding: 86 86 55
Width: 575
GlyphClass: 2
Flags: W
AnchorPoint: "Anchor-2" 248 0 basechar 0
AnchorPoint: "Anchor-1" 360 700 basechar 0
LayerCount: 2
Fore
SplineSet
234 103 m 2
 235 93 245 86 259 86 c 0
 273 86 288 93 293 106 c 2
 532 673 l 2
 539 690 553 700 572 700 c 2
 608 700 l 2
 624 700 638 691 638 675 c 0
 638 670 637 664 634 659 c 2
 392 83 l 2
 368 23 316 -10 253 -10 c 0
 191 -10 135 22 128 85 c 0
 110 277 92 470 74 662 c 1
 74 665 l 2
 74 673 76 682 81 688 c 0
 88 696 98 700 110 700 c 2
 145 700 l 2
 153 700 161 698 167 694 c 0
 175 689 179 680 180 670 c 2
 234 103 l 2
EndSplineSet
EndChar

StartChar: W
Encoding: 87 87 56
Width: 575
GlyphClass: 2
Flags: W
AnchorPoint: "Anchor-2" 248 0 basechar 0
AnchorPoint: "Anchor-1" 360 700 basechar 0
LayerCount: 2
Fore
SplineSet
53 0 m 2
 35 0 l 2
 27 0 20 1 14 5 c 0
 6 10 2 19 2 28 c 0
 2 31 2 33 3 36 c 2
 87 667 l 2
 90 687 109 700 128 700 c 2
 162 700 l 2
 172 700 180 697 186 690 c 0
 190 684 192 677 192 670 c 2
 192 664 l 1
 134 191 l 1
 257 377 l 2
 267 393 280 400 297 400 c 2
 325 400 l 2
 332 400 339 399 345 396 c 0
 353 392 358 384 361 375 c 2
 424 189 l 1
 516 667 l 2
 520 686 535 700 555 700 c 2
 590 700 l 2
 607 700 622 688 622 671 c 0
 622 669 622 666 621 664 c 2
 497 32 l 2
 495 24 492 17 486 11 c 0
 479 4 469 0 457 0 c 2
 439 0 l 2
 405 0 386 16 377 43 c 2
 292 289 l 1
 126 41 l 2
 108 13 84 0 53 0 c 2
EndSplineSet
EndChar

StartChar: X
Encoding: 88 88 57
Width: 575
GlyphClass: 2
Flags: W
AnchorPoint: "Anchor-2" 248 0 basechar 0
AnchorPoint: "Anchor-1" 360 700 basechar 0
LayerCount: 2
Fore
SplineSet
510 42 m 0
 511 38 511 34 511 30 c 0
 511 21 507 11 499 6 c 0
 493 2 485 0 477 0 c 2
 446 0 l 2
 429 0 415 8 410 24 c 2
 316 292 l 2
 309 312 302 315 300 315 c 0
 295 315 285 309 273 290 c 2
 90 22 l 2
 81 8 67 0 50 0 c 2
 19 0 l 2
 12 0 6 1 1 4 c 0
 -6 8 -10 16 -10 24 c 0
 -10 31 -8 37 -4 44 c 2
 187 331 l 2
 194 341 204 351 216 358 c 1
 206 365 198 375 195 386 c 2
 105 659 l 2
 103 663 102 668 102 672 c 0
 102 690 118 700 137 700 c 2
 168 700 l 2
 175 700 182 699 188 696 c 0
 196 692 201 684 204 676 c 2
 295 421 l 2
 301 403 306 400 310 400 c 0
 314 400 324 405 337 424 c 2
 509 678 l 2
 519 693 533 700 550 700 c 2
 581 700 l 2
 596 700 610 693 610 677 c 0
 610 670 607 664 603 657 c 2
 423 384 l 2
 416 373 405 363 393 356 c 1
 403 349 410 339 414 329 c 0
 446 233 478 138 510 42 c 0
EndSplineSet
EndChar

StartChar: Y
Encoding: 89 89 58
Width: 575
GlyphClass: 2
Flags: W
AnchorPoint: "Anchor-2" 248 0 basechar 0
AnchorPoint: "Anchor-1" 360 700 basechar 0
LayerCount: 2
Fore
SplineSet
526 677 m 2
 536 693 550 700 567 700 c 2
 603 700 l 2
 618 700 633 693 633 677 c 0
 633 670 629 664 625 657 c 2
 434 374 l 2
 412 342 384 320 349 309 c 1
 304 33 l 2
 302 22 297 13 288 7 c 0
 281 2 274 0 265 0 c 2
 230 0 l 2
 222 0 215 2 209 6 c 0
 201 11 198 19 198 28 c 0
 198 31 198 33 199 36 c 2
 244 310 l 1
 214 322 191 344 181 376 c 2
 83 659 l 2
 81 663 80 668 80 672 c 0
 80 690 96 700 114 700 c 2
 151 700 l 2
 158 700 165 699 171 696 c 0
 179 692 184 684 187 675 c 2
 279 403 l 2
 285 387 296 380 309 380 c 0
 323 380 336 388 347 405 c 2
 526 677 l 2
EndSplineSet
EndChar

StartChar: Z
Encoding: 90 90 59
Width: 575
GlyphClass: 2
Flags: W
AnchorPoint: "Anchor-2" 248 0 basechar 0
AnchorPoint: "Anchor-1" 360 700 basechar 0
LayerCount: 2
Fore
SplineSet
135 97 m 1
 458 97 l 2
 466 97 473 95 479 91 c 0
 487 86 490 78 490 69 c 0
 490 66 490 63 489 60 c 2
 484 33 l 2
 482 22 477 13 468 7 c 0
 461 2 454 0 445 0 c 2
 50 0 l 2
 42 0 35 2 29 6 c 0
 21 11 18 19 18 28 c 0
 18 31 18 33 19 36 c 2
 24 65 l 2
 38 151 78 225 136 274 c 2
 413 505 l 2
 438 526 459 560 470 604 c 1
 180 604 l 2
 172 604 165 606 159 610 c 0
 151 615 148 623 148 632 c 0
 148 635 148 638 149 641 c 0
 150 650 151 658 153 667 c 0
 155 678 160 687 169 693 c 0
 176 698 183 700 192 700 c 2
 556 700 l 2
 564 700 571 698 577 694 c 0
 585 689 588 681 588 672 c 0
 588 669 588 667 587 664 c 0
 586 654 585 645 583 635 c 0
 571 562 532 495 473 446 c 2
 197 215 l 2
 170 193 148 152 135 97 c 1
EndSplineSet
EndChar

StartChar: bracketleft
Encoding: 91 91 60
Width: 575
GlyphClass: 2
Flags: W
LayerCount: 2
Fore
SplineSet
394 -92 m 2
 402 -92 409 -94 415 -98 c 0
 423 -103 426 -111 426 -120 c 0
 426 -123 426 -126 425 -129 c 0
 424 -138 423 -146 421 -155 c 0
 419 -166 414 -175 405 -181 c 0
 398 -186 391 -188 382 -188 c 2
 107 -188 l 2
 99 -188 92 -186 86 -182 c 0
 78 -177 75 -169 75 -160 c 0
 75 -157 75 -154 76 -151 c 2
 215 727 l 2
 217 738 222 747 231 753 c 0
 238 758 245 760 254 760 c 2
 529 760 l 2
 537 760 544 758 550 754 c 0
 558 749 561 741 561 732 c 0
 561 729 561 726 560 723 c 0
 559 714 558 706 556 697 c 0
 554 686 549 677 540 671 c 0
 533 666 526 664 517 664 c 2
 311 664 l 1
 191 -92 l 1
 394 -92 l 2
EndSplineSet
EndChar

StartChar: backslash
Encoding: 92 92 61
Width: 575
GlyphClass: 2
Flags: W
LayerCount: 2
Fore
SplineSet
393 -84 m 0
 380 -84 369 -76 365 -63 c 2
 128 659 l 2
 127 663 125 667 125 671 c 0
 125 686 136 698 150 704 c 2
 179 717 l 2
 185 720 190 721 196 721 c 0
 209 721 219 712 223 700 c 2
 461 -22 l 2
 462 -26 464 -30 464 -34 c 0
 464 -49 453 -61 439 -67 c 2
 410 -80 l 2
 404 -83 399 -84 393 -84 c 0
EndSplineSet
EndChar

StartChar: bracketright
Encoding: 93 93 62
Width: 575
GlyphClass: 2
Flags: W
LayerCount: 2
Fore
SplineSet
232 664 m 2
 224 664 217 666 211 670 c 0
 203 675 200 683 200 692 c 0
 200 695 200 698 201 701 c 0
 202 710 203 718 205 727 c 0
 207 738 212 747 221 753 c 0
 228 758 235 760 244 760 c 2
 519 760 l 2
 527 760 534 758 540 754 c 0
 548 749 551 741 551 732 c 0
 551 729 551 726 550 723 c 2
 411 -155 l 2
 409 -166 404 -175 395 -181 c 0
 388 -186 381 -188 372 -188 c 2
 97 -188 l 2
 89 -188 82 -186 76 -182 c 0
 68 -177 65 -169 65 -160 c 0
 65 -157 65 -154 66 -151 c 0
 67 -142 68 -134 70 -125 c 0
 72 -114 77 -105 86 -99 c 0
 93 -94 100 -92 109 -92 c 2
 315 -92 l 1
 435 664 l 1
 232 664 l 2
EndSplineSet
EndChar

StartChar: asciicircum
Encoding: 94 94 63
Width: 575
GlyphClass: 2
Flags: W
LayerCount: 2
Fore
SplineSet
362 729 m 0
 397 729 416 708 432 689 c 2
 592 506 l 2
 598 500 602 492 602 484 c 0
 602 472 595 462 585 455 c 2
 560 435 l 2
 552 429 544 425 535 425 c 0
 525 425 516 430 510 438 c 0
 458 501 407 564 356 627 c 0
 354 629 353 631 353 631 c 1
 353 631 352 632 350 632 c 0
 348 632 343 629 340 626 c 2
 126 437 l 2
 118 430 109 425 100 425 c 0
 91 425 83 429 77 436 c 2
 57 456 l 2
 51 462 47 470 47 478 c 0
 47 489 52 499 61 507 c 2
 280 690 l 2
 304 710 328 729 362 729 c 0
EndSplineSet
EndChar

StartChar: underscore
Encoding: 95 95 64
Width: 575
GlyphClass: 2
Flags: W
LayerCount: 2
Fore
SplineSet
24 -87 m 2
 16 -87 9 -85 3 -81 c 0
 -5 -76 -8 -68 -8 -59 c 0
 -8 -56 -8 -53 -7 -50 c 0
 -6 -41 -5 -32 -3 -23 c 0
 -1 -12 4 -3 13 3 c 0
 20 8 27 10 36 10 c 2
 459 10 l 2
 467 10 474 8 480 4 c 0
 488 -1 491 -9 491 -18 c 0
 491 -21 491 -24 490 -27 c 0
 489 -36 488 -45 486 -54 c 0
 484 -65 479 -74 470 -80 c 0
 463 -85 456 -87 447 -87 c 2
 24 -87 l 2
EndSplineSet
EndChar

StartChar: grave
Encoding: 96 96 65
Width: 575
GlyphClass: 2
Flags: W
LayerCount: 2
Fore
SplineSet
234 709 m 0
 240 709 246 708 252 705 c 2
 445 604 l 2
 456 599 463 590 463 578 c 0
 463 571 461 563 457 557 c 0
 453 551 449 544 445 538 c 0
 436 527 425 519 412 519 c 0
 407 519 403 520 399 522 c 2
 188 597 l 2
 176 601 167 610 167 623 c 0
 167 630 170 636 174 643 c 2
 203 689 l 2
 210 701 221 709 234 709 c 0
EndSplineSet
EndChar

StartChar: a
Encoding: 97 97 66
Width: 575
GlyphClass: 2
Flags: W
AnchorPoint: "Anchor-3" 417 0 basechar 0
AnchorPoint: "Anchor-2" 248 0 basechar 0
AnchorPoint: "Anchor-1" 327 500 basechar 0
LayerCount: 2
Fore
SplineSet
100 46 m 0
 79 78 67 124 67 191 c 0
 67 379 159 510 357 510 c 0
 386 510 442 508 503 500 c 0
 520 497 533 486 533 469 c 0
 533 466 532 464 532 461 c 2
 464 37 l 2
 462 20 450 0 427 0 c 2
 390 0 l 2
 382 0 376 2 370 6 c 0
 362 11 358 20 358 29 c 0
 358 36 360 42 361 48 c 1
 312 10 259 -10 212 -10 c 0
 167 -10 127 5 100 46 c 0
421 411 m 1
 388 413 361 414 345 414 c 0
 273 414 229 385 203 340 c 0
 182 304 173 257 173 207 c 0
 173 162 179 132 189 114 c 0
 201 92 218 86 242 86 c 0
 278 86 329 111 379 161 c 1
 421 411 l 1
EndSplineSet
EndChar

StartChar: b
Encoding: 98 98 67
Width: 575
GlyphClass: 2
Flags: W
AnchorPoint: "Anchor-2" 248 0 basechar 0
LayerCount: 2
Fore
SplineSet
209 452 m 1
 258 490 311 510 358 510 c 0
 403 510 444 492 470 450 c 0
 491 417 503 371 503 308 c 0
 503 226 487 154 450 99 c 0
 404 30 327 -10 213 -10 c 0
 184 -10 128 -8 67 0 c 0
 59 1 52 4 47 9 c 0
 40 15 38 24 38 33 c 2
 38 39 l 1
 145 717 l 2
 147 728 152 737 161 743 c 0
 168 748 175 750 184 750 c 2
 219 750 l 2
 227 750 234 748 240 744 c 0
 248 739 251 731 251 722 c 0
 251 719 251 716 250 713 c 2
 209 452 l 1
367 140 m 0
 388 177 397 228 397 285 c 0
 397 329 391 360 381 380 c 0
 369 405 351 414 328 414 c 0
 292 414 241 388 191 334 c 1
 149 69 l 1
 182 67 224 66 225 66 c 0
 298 66 341 94 367 140 c 0
EndSplineSet
EndChar

StartChar: c
Encoding: 99 99 68
Width: 575
GlyphClass: 2
Flags: W
AnchorPoint: "Anchor-2" 248 0 basechar 0
AnchorPoint: "Anchor-1" 327 500 basechar 0
LayerCount: 2
Fore
SplineSet
518 479 m 0
 529 474 537 465 537 453 c 0
 537 446 535 439 531 432 c 2
 517 408 l 2
 510 395 499 387 485 387 c 0
 480 387 475 388 470 390 c 0
 430 406 365 411 357 412 c 0
 233 412 176 318 176 213 c 0
 176 158 193 127 218 109 c 0
 238 95 266 88 299 88 c 0
 339 88 374 94 421 110 c 0
 426 112 431 113 436 113 c 0
 450 113 460 103 464 89 c 2
 470 65 l 2
 471 62 471 58 471 55 c 0
 471 40 462 27 446 21 c 0
 397 2 293 -10 287 -10 c 0
 236 -10 188 1 149 27 c 0
 101 60 70 118 70 204 c 0
 70 370 181 510 369 510 c 0
 421 510 473 500 518 479 c 0
EndSplineSet
EndChar

StartChar: d
Encoding: 100 100 69
Width: 575
GlyphClass: 2
Flags: W
AnchorPoint: "Anchor-2" 248 0 basechar 0
AnchorPoint: "Anchor-0" 580 700 basechar 0
LayerCount: 2
Fore
SplineSet
469 717 m 2
 473 737 487 750 508 750 c 2
 543 750 l 2
 551 750 557 748 563 744 c 0
 571 739 575 730 575 721 c 0
 575 718 574 716 574 713 c 2
 464 38 l 2
 462 20 450 0 427 0 c 2
 390 0 l 2
 382 0 376 2 370 6 c 0
 362 11 358 20 358 29 c 0
 358 36 360 42 361 48 c 1
 312 10 259 -10 212 -10 c 0
 167 -10 126 8 100 50 c 0
 79 83 67 129 67 192 c 0
 67 274 83 346 120 401 c 0
 166 470 243 510 357 510 c 0
 376 510 405 509 437 507 c 1
 469 717 l 2
421 411 m 1
 388 413 361 414 345 414 c 0
 272 414 229 387 203 344 c 0
 182 309 173 262 173 208 c 0
 173 167 179 137 189 118 c 0
 201 95 219 86 242 86 c 0
 278 86 329 111 379 161 c 1
 421 411 l 1
EndSplineSet
EndChar

StartChar: e
Encoding: 101 101 70
Width: 575
GlyphClass: 2
Flags: W
AnchorPoint: "Anchor-3" 429 25 basechar 0
AnchorPoint: "Anchor-2" 248 0 basechar 0
AnchorPoint: "Anchor-1" 327 500 basechar 0
LayerCount: 2
Fore
SplineSet
287 -10 m 0
 155 -10 63 59 63 191 c 0
 63 353 175 510 333 510 c 0
 428 510 517 446 517 327 c 0
 517 311 515 298 509 269 c 0
 505 250 490 237 470 237 c 2
 171 237 l 1
 170 227 169 201 169 201 c 2
 169 153 187 125 214 108 c 0
 236 94 266 88 299 88 c 0
 339 88 378 94 425 110 c 0
 430 112 440 113 440 113 c 2
 454 113 464 103 468 90 c 0
 470 82 472 73 474 65 c 0
 475 62 475 58 475 55 c 0
 475 40 466 27 450 21 c 0
 405 3 344 -10 287 -10 c 0
412 314 m 1
 412 317 414 321 414 333 c 0
 414 387 365 414 322 414 c 0
 269 414 207 373 191 314 c 1
 412 314 l 1
EndSplineSet
EndChar

StartChar: f
Encoding: 102 102 71
Width: 575
GlyphClass: 2
Flags: W
LayerCount: 2
Fore
SplineSet
564 670 m 2
 556 657 545 649 531 649 c 0
 526 649 521 650 516 652 c 0
 491 662 471 665 447 665 c 0
 417 665 393 657 374 634 c 0
 359 615 346 585 339 538 c 2
 334 500 l 1
 485 500 l 2
 493 500 500 498 506 494 c 0
 513 488 516 479 516 470 c 2
 516 464 l 2
 515 455 514 446 512 437 c 0
 508 417 494 404 473 404 c 2
 318 404 l 1
 251 8 l 2
 243 -45 233 -85 213 -117 c 0
 189 -158 151 -186 92 -217 c 0
 85 -220 79 -222 72 -222 c 0
 60 -222 49 -215 44 -203 c 2
 32 -173 l 2
 30 -168 28 -162 28 -157 c 0
 28 -142 38 -132 51 -125 c 0
 88 -105 109 -89 123 -66 c 0
 134 -48 141 -25 146 8 c 2
 212 404 l 1
 128 404 l 2
 121 404 114 405 108 409 c 0
 100 414 96 423 96 432 c 0
 96 435 97 438 97 441 c 2
 101 466 l 2
 104 487 120 500 140 500 c 2
 227 500 l 1
 233 541 l 2
 260 706 360 763 459 763 c 0
 495 763 532 754 564 742 c 0
 576 738 585 729 585 717 c 0
 585 710 583 702 579 696 c 2
 564 670 l 2
EndSplineSet
EndChar

StartChar: g
Encoding: 103 103 72
Width: 575
GlyphClass: 2
Flags: W
AnchorPoint: "Anchor-1" 327 500 basechar 0
LayerCount: 2
Fore
SplineSet
47 -169 m 2
 51 -151 65 -140 83 -140 c 2
 89 -140 l 1
 92 -140 l 1
 143 -148 187 -155 222 -155 c 0
 262 -155 291 -146 312 -123 c 0
 329 -104 342 -74 349 -27 c 2
 361 48 l 1
 317 14 218 -11 211 -11 c 1
 212 -10 l 1
 167 -10 126 8 100 50 c 0
 79 83 67 129 67 192 c 0
 67 274 83 346 120 401 c 0
 166 470 243 510 357 510 c 0
 386 510 442 508 503 500 c 0
 511 499 518 496 523 491 c 0
 530 485 532 476 532 467 c 2
 532 461 l 1
 453 -30 l 2
 437 -128 403 -185 355 -217 c 0
 317 -242 270 -250 221 -250 c 0
 172 -250 116 -241 67 -236 c 0
 60 -235 54 -233 49 -229 c 0
 43 -224 40 -216 40 -209 c 0
 40 -204 41 -200 42 -195 c 2
 47 -169 l 2
421 411 m 1
 388 413 361 414 345 414 c 0
 272 414 229 387 203 344 c 0
 182 309 173 262 173 208 c 0
 173 167 179 137 189 118 c 0
 201 95 219 86 242 86 c 0
 278 86 329 111 379 161 c 1
 421 411 l 1
EndSplineSet
EndChar

StartChar: h
Encoding: 104 104 73
Width: 575
GlyphClass: 2
Flags: W
AnchorPoint: "Anchor-2" 248 0 basechar 0
LayerCount: 2
Fore
SplineSet
109 0 m 2
 74 0 l 2
 66 0 59 2 53 6 c 0
 46 12 43 20 43 29 c 2
 43 36 l 1
 153 712 l 2
 156 730 168 750 191 750 c 2
 228 750 l 2
 236 750 242 748 248 744 c 0
 256 739 260 730 260 721 c 0
 260 718 259 716 259 713 c 2
 218 452 l 1
 265 490 316 510 372 510 c 0
 403 510 434 504 458 486 c 0
 489 463 507 422 507 355 c 0
 507 332 505 306 500 276 c 2
 460 33 l 2
 459 23 454 13 445 7 c 0
 438 2 430 0 421 0 c 2
 386 0 l 2
 378 0 371 2 365 6 c 0
 358 11 355 20 355 29 c 2
 355 35 l 1
 395 276 l 2
 399 300 401 322 401 338 c 0
 401 370 395 388 387 398 c 0
 377 410 363 414 343 414 c 0
 296 414 250 389 199 338 c 1
 148 32 l 2
 145 12 129 0 109 0 c 2
EndSplineSet
EndChar

StartChar: i
Encoding: 105 105 74
Width: 575
GlyphClass: 2
Flags: W
AnchorPoint: "Anchor-3" 423 25 basechar 0
AnchorPoint: "Anchor-2" 248 0 basechar 0
LayerCount: 2
Fore
SplineSet
256 348 m 2
 259 360 260 370 260 379 c 0
 260 395 256 403 248 408 c 0
 242 412 231 416 215 416 c 0
 200 416 182 415 152 410 c 0
 149 409 145 409 142 409 c 0
 134 409 126 411 120 417 c 0
 115 421 112 427 111 434 c 2
 107 460 l 1
 107 468 l 2
 107 485 118 496 133 499 c 0
 172 508 206 510 227 510 c 0
 266 510 298 503 322 488 c 0
 352 469 367 437 367 396 c 0
 367 380 365 363 361 344 c 2
 319 152 l 2
 316 140 315 130 315 121 c 0
 315 105 319 97 327 92 c 0
 333 88 344 84 360 84 c 0
 375 84 393 85 423 90 c 0
 426 91 430 91 433 91 c 0
 441 91 449 89 455 83 c 0
 460 79 463 73 464 66 c 2
 468 40 l 1
 468 32 l 2
 468 15 457 4 442 1 c 0
 403 -8 369 -10 348 -10 c 0
 309 -10 277 -3 253 12 c 0
 223 31 208 63 208 104 c 0
 208 120 210 137 214 156 c 2
 256 348 l 2
401 631 m 0
 394 626 386 624 377 624 c 2
 312 624 l 2
 304 624 297 626 291 630 c 0
 284 636 281 645 281 654 c 2
 281 660 l 1
 292 726 l 2
 295 747 311 760 331 760 c 2
 396 760 l 2
 403 760 410 759 416 755 c 0
 424 750 428 741 428 732 c 0
 428 729 428 726 427 723 c 2
 416 658 l 2
 415 647 410 637 401 631 c 0
EndSplineSet
EndChar

StartChar: j
Encoding: 106 106 75
Width: 575
GlyphClass: 2
Flags: W
LayerCount: 2
Fore
SplineSet
422 726 m 2
 425 747 441 760 461 760 c 2
 526 760 l 2
 533 760 540 759 546 755 c 0
 554 750 558 741 558 732 c 0
 558 729 558 726 557 723 c 2
 546 658 l 2
 545 647 540 637 531 631 c 0
 524 626 516 624 507 624 c 2
 442 624 l 2
 434 624 427 626 421 630 c 0
 414 636 411 645 411 654 c 2
 411 660 l 1
 422 726 l 2
456 487 m 0
 493 464 514 423 514 360 c 0
 514 340 512 319 508 295 c 2
 479 120 l 2
 445 -88 312 -160 182 -160 c 0
 130 -160 78 -150 33 -129 c 0
 22 -124 14 -115 14 -103 c 0
 14 -96 16 -89 20 -82 c 2
 34 -58 l 2
 41 -45 52 -37 66 -37 c 0
 71 -37 76 -38 81 -40 c 0
 122 -56 186 -61 194 -62 c 0
 242 -62 284 -49 316 -12 c 0
 342 16 363 60 373 125 c 2
 402 297 l 2
 405 315 407 331 407 344 c 0
 407 376 399 393 385 403 c 0
 374 411 357 415 333 415 c 0
 310 415 283 411 250 405 c 0
 247 404 244 404 241 404 c 0
 234 404 227 406 222 410 c 0
 215 415 212 424 212 433 c 2
 212 435 l 2
 212 444 211 454 211 463 c 0
 211 482 222 498 244 502 c 0
 281 508 316 512 348 512 c 0
 390 512 427 505 456 487 c 0
EndSplineSet
EndChar

StartChar: k
Encoding: 107 107 76
Width: 575
GlyphClass: 2
Flags: W
AnchorPoint: "Anchor-2" 248 0 basechar 0
LayerCount: 2
Fore
SplineSet
221 475 m 1
 266 498 314 510 360 510 c 0
 398 510 427 503 449 490 c 0
 476 473 489 447 489 418 c 0
 489 412 489 406 488 400 c 0
 478 340 425 268 337 218 c 1
 475 45 l 2
 480 39 483 32 483 25 c 0
 483 8 467 0 449 0 c 2
 391 0 l 2
 375 0 363 5 354 16 c 2
 211 197 l 2
 206 202 203 209 203 216 c 0
 203 228 212 238 224 245 c 0
 276 275 315 305 340 331 c 0
 360 352 371 371 374 385 c 0
 374 387 375 389 375 391 c 0
 375 405 362 413 331 413 c 0
 294 413 245 399 206 381 c 1
 148 32 l 2
 145 12 129 0 109 0 c 2
 74 0 l 2
 66 0 59 2 53 6 c 0
 46 12 43 20 43 29 c 2
 43 36 l 1
 154 717 l 2
 158 737 172 750 193 750 c 2
 228 750 l 2
 236 750 242 748 248 744 c 0
 256 739 260 730 260 721 c 0
 260 718 259 716 259 713 c 2
 221 475 l 1
EndSplineSet
EndChar

StartChar: l
Encoding: 108 108 77
Width: 575
GlyphClass: 2
Flags: W
AnchorPoint: "Anchor-4" 469 400 basechar 0
AnchorPoint: "Anchor-2" 248 0 basechar 0
AnchorPoint: "Anchor-1" 360 700 basechar 0
AnchorPoint: "Anchor-0" 461 700 basechar 0
LayerCount: 2
Fore
SplineSet
305 153 m 2
 303 141 302 131 302 122 c 0
 302 107 307 98 317 92 c 0
 325 87 338 84 354 84 c 0
 369 84 394 86 423 91 c 0
 426 92 430 92 433 92 c 0
 441 92 449 90 455 84 c 0
 460 80 463 73 464 66 c 2
 468 40 l 1
 468 32 l 2
 468 15 457 4 442 1 c 0
 403 -8 363 -10 342 -10 c 0
 303 -10 269 -3 244 12 c 0
 212 31 195 62 195 104 c 0
 195 120 197 137 200 156 c 2
 270 592 l 2
 272 605 273 615 273 624 c 0
 273 640 268 648 258 654 c 0
 250 659 237 663 221 663 c 0
 206 663 181 661 152 656 c 0
 149 655 145 655 142 655 c 0
 134 655 126 657 120 663 c 0
 115 668 112 675 111 682 c 2
 107 709 l 1
 107 717 l 2
 107 735 118 745 133 749 c 0
 172 758 212 760 233 760 c 0
 272 760 306 753 331 738 c 0
 363 718 380 685 380 642 c 0
 380 625 378 607 375 588 c 2
 305 153 l 2
EndSplineSet
EndChar

StartChar: m
Encoding: 109 109 78
Width: 575
GlyphClass: 2
Flags: W
AnchorPoint: "Anchor-2" 248 0 basechar 0
AnchorPoint: "Anchor-1" 327 500 basechar 0
LayerCount: 2
Fore
SplineSet
114 500 m 2
 151 500 l 2
 159 500 166 498 172 494 c 0
 179 488 182 479 182 470 c 2
 182 464 l 2
 181 459 181 455 180 450 c 1
 228 485 269 507 301 507 c 0
 321 507 339 498 349 479 c 0
 355 468 358 455 360 439 c 1
 415 480 460 507 496 507 c 0
 518 507 535 497 545 477 c 0
 553 462 556 441 556 415 c 0
 556 395 554 371 550 343 c 2
 498 33 l 2
 497 23 492 13 483 7 c 0
 476 2 468 0 459 0 c 2
 424 0 l 2
 416 0 409 2 403 6 c 0
 396 11 393 20 393 29 c 2
 393 35 l 1
 446 352 l 2
 448 367 450 378 450 386 c 0
 450 394 448 398 448 398 c 1
 447 398 l 2
 443 398 434 395 421 387 c 0
 405 378 383 362 355 341 c 1
 334 199 l 2
 333 188 328 178 319 172 c 0
 312 167 304 165 295 165 c 2
 260 165 l 2
 252 165 245 167 239 171 c 0
 232 177 229 186 229 195 c 2
 229 201 l 1
 251 349 l 2
 253 364 255 376 255 385 c 0
 255 394 253 398 253 398 c 1
 252 398 l 2
 248 398 240 395 227 388 c 0
 212 380 190 366 162 346 c 1
 110 32 l 2
 107 12 91 0 71 0 c 2
 36 0 l 2
 28 0 21 2 15 6 c 0
 8 12 5 20 5 29 c 2
 5 35 l 1
 76 463 l 2
 78 481 91 500 114 500 c 2
EndSplineSet
EndChar

StartChar: n
Encoding: 110 110 79
Width: 575
GlyphClass: 2
Flags: W
AnchorPoint: "Anchor-2" 248 0 basechar 0
AnchorPoint: "Anchor-1" 327 500 basechar 0
LayerCount: 2
Fore
SplineSet
218 452 m 1
 265 490 315 510 362 510 c 0
 460 510 508 461 508 357 c 0
 508 333 505 307 500 276 c 2
 460 32 l 2
 458 21 453 13 444 7 c 0
 437 2 430 0 421 0 c 2
 386 0 l 2
 378 0 371 2 365 6 c 0
 357 11 354 20 354 28 c 0
 354 30 355 32 355 35 c 2
 395 276 l 2
 399 301 401 323 401 340 c 0
 401 378 392 395 379 404 c 0
 368 411 352 414 332 414 c 0
 296 414 250 389 199 338 c 1
 148 32 l 2
 145 13 130 0 109 0 c 2
 74 0 l 2
 66 0 59 2 53 6 c 0
 45 11 42 19 42 27 c 0
 42 30 42 32 43 35 c 2
 115 468 l 2
 117 479 122 487 131 493 c 0
 138 498 145 500 154 500 c 2
 189 500 l 2
 197 500 204 498 210 494 c 0
 218 489 221 481 221 472 c 0
 221 465 219 458 218 452 c 1
EndSplineSet
EndChar

StartChar: o
Encoding: 111 111 80
Width: 575
GlyphClass: 2
Flags: W
AnchorPoint: "Anchor-2" 248 0 basechar 0
AnchorPoint: "Anchor-1" 327 500 basechar 0
LayerCount: 2
Fore
SplineSet
130 28 m 0
 88 61 62 114 62 191 c 0
 62 346 163 510 332 510 c 0
 386 510 436 492 470 451 c 0
 497 419 513 373 513 313 c 0
 513 156 418 -10 250 -10 c 0
 206 -10 163 2 130 28 c 0
337 119 m 0
 381 161 407 236 407 297 c 0
 407 364 380 414 317 414 c 0
 286 414 260 402 238 381 c 0
 194 339 168 264 168 203 c 0
 168 122 208 86 259 86 c 0
 289 86 315 98 337 119 c 0
EndSplineSet
EndChar

StartChar: p
Encoding: 112 112 81
Width: 575
GlyphClass: 2
Flags: W
AnchorPoint: "Anchor-1" 327 500 basechar 0
LayerCount: 2
Fore
SplineSet
106 -216 m 2
 103 -237 87 -250 67 -250 c 2
 32 -250 l 2
 24 -250 18 -248 12 -244 c 0
 4 -239 0 -230 0 -221 c 0
 0 -218 1 -216 1 -213 c 2
 110 463 l 2
 113 480 123 500 147 500 c 2
 184 500 l 2
 192 500 198 498 204 494 c 0
 212 489 216 480 216 471 c 0
 216 464 214 458 213 452 c 1
 262 490 315 510 362 510 c 0
 407 510 448 491 474 450 c 0
 495 417 507 371 507 309 c 0
 507 226 492 154 455 99 c 0
 409 30 331 -10 217 -10 c 0
 198 -10 170 -9 138 -7 c 1
 106 -216 l 2
371 141 m 0
 392 178 401 228 401 286 c 0
 401 330 395 360 385 380 c 0
 373 405 355 414 332 414 c 0
 296 414 245 388 195 334 c 1
 153 69 l 1
 186 67 228 66 229 66 c 0
 302 66 345 95 371 141 c 0
EndSplineSet
EndChar

StartChar: q
Encoding: 113 113 82
Width: 575
GlyphClass: 2
Flags: W
AnchorPoint: "Anchor-1" 327 500 basechar 0
LayerCount: 2
Fore
SplineSet
366 48 m 1
 317 10 264 -10 217 -10 c 0
 172 -10 131 8 105 50 c 0
 84 83 72 129 72 192 c 0
 72 274 88 346 125 401 c 0
 171 470 248 510 362 510 c 0
 391 510 447 508 508 500 c 0
 516 499 523 496 528 491 c 0
 535 485 537 476 537 467 c 2
 537 461 l 1
 430 -217 l 2
 428 -228 423 -237 414 -243 c 0
 407 -248 400 -250 391 -250 c 2
 356 -250 l 2
 348 -250 341 -248 335 -244 c 0
 327 -239 324 -231 324 -222 c 0
 324 -219 324 -216 325 -213 c 2
 366 48 l 1
208 360 m 0
 187 323 178 272 178 215 c 0
 178 171 184 140 194 120 c 0
 206 95 224 86 247 86 c 0
 283 86 334 112 384 166 c 1
 426 431 l 1
 393 433 351 434 350 434 c 0
 277 434 234 406 208 360 c 0
EndSplineSet
EndChar

StartChar: r
Encoding: 114 114 83
Width: 575
GlyphClass: 2
Flags: W
AnchorPoint: "Anchor-2" 248 0 basechar 0
AnchorPoint: "Anchor-1" 327 500 basechar 0
LayerCount: 2
Fore
SplineSet
218 452 m 1
 265 490 315 510 362 510 c 0
 460 510 507 459 507 350 c 2
 507 338 l 2
 507 327 503 316 495 310 c 0
 488 305 480 303 471 303 c 2
 436 303 l 2
 425 303 414 306 408 315 c 0
 403 322 401 330 401 339 c 0
 401 378 391 395 378 404 c 0
 367 411 352 414 332 414 c 0
 296 414 250 389 199 338 c 1
 148 32 l 2
 145 12 129 0 109 0 c 2
 74 0 l 2
 66 0 59 2 53 6 c 0
 46 12 43 20 43 29 c 2
 43 35 l 1
 114 463 l 2
 116 481 129 500 152 500 c 2
 189 500 l 2
 197 500 204 498 210 494 c 0
 217 488 220 479 220 470 c 2
 220 464 l 2
 220 460 219 456 218 452 c 1
EndSplineSet
EndChar

StartChar: s
Encoding: 115 115 84
Width: 575
GlyphClass: 2
Flags: W
AnchorPoint: "Anchor-2" 248 0 basechar 0
AnchorPoint: "Anchor-1" 327 500 basechar 0
LayerCount: 2
Fore
SplineSet
469 429 m 0
 462 414 450 404 434 404 c 0
 431 404 428 404 425 405 c 0
 384 412 354 414 328 414 c 0
 290 414 252 404 233 387 c 0
 223 379 219 370 219 359 c 0
 219 325 256 315 311 303 c 0
 378 288 465 269 465 167 c 0
 465 55 348 -10 218 -10 c 0
 186 -10 138 -8 83 1 c 0
 68 4 57 14 57 29 c 0
 57 34 58 40 60 45 c 2
 70 71 l 2
 76 88 89 97 106 97 c 2
 114 97 l 1
 163 88 207 87 230 87 c 0
 304 87 358 117 358 160 c 0
 358 199 319 209 262 221 c 0
 196 235 113 254 113 350 c 0
 113 452 222 510 340 510 c 0
 367 510 411 508 458 499 c 0
 473 496 483 486 483 471 c 0
 483 466 482 460 480 455 c 0
 476 446 473 438 469 429 c 0
EndSplineSet
EndChar

StartChar: t
Encoding: 116 116 85
Width: 575
GlyphClass: 2
Flags: W
AnchorPoint: "Anchor-2" 248 0 basechar 0
AnchorPoint: "Anchor-0" 555 700 basechar 0
LayerCount: 2
Fore
SplineSet
468 42 m 1
 468 37 l 2
 468 18 455 4 437 1 c 0
 381 -9 337 -10 310 -10 c 0
 265 -10 230 -4 204 11 c 0
 171 30 156 64 156 109 c 0
 156 123 157 139 160 156 c 2
 202 404 l 1
 138 404 l 2
 130 404 124 406 118 410 c 0
 110 415 106 424 106 433 c 0
 106 436 107 438 107 441 c 2
 111 466 l 2
 113 486 128 500 150 500 c 2
 216 500 l 1
 236 627 l 2
 240 647 254 660 275 660 c 2
 311 660 l 2
 319 660 325 658 331 654 c 0
 339 649 343 640 343 631 c 0
 343 628 342 626 342 623 c 2
 323 500 l 1
 475 500 l 2
 483 500 490 498 496 494 c 0
 504 488 506 479 506 470 c 2
 506 463 l 2
 505 454 504 446 502 437 c 0
 498 417 484 404 463 404 c 2
 308 404 l 1
 265 156 l 2
 263 147 263 138 263 130 c 0
 263 110 268 101 278 95 c 0
 286 90 301 87 322 87 c 0
 344 87 384 89 427 96 c 0
 430 97 434 97 437 97 c 0
 446 97 453 94 459 87 c 0
 463 82 466 75 466 68 c 2
 468 42 l 1
EndSplineSet
EndChar

StartChar: u
Encoding: 117 117 86
Width: 575
GlyphClass: 2
Flags: W
AnchorPoint: "Anchor-3" 412 0 basechar 0
AnchorPoint: "Anchor-2" 248 0 basechar 0
AnchorPoint: "Anchor-1" 327 500 basechar 0
LayerCount: 2
Fore
SplineSet
211 -11 m 1
 211 -11 211 -10 212 -10 c 1
 114 -10 66 39 66 143 c 0
 66 167 69 193 74 224 c 2
 114 467 l 2
 115 477 120 487 129 493 c 0
 136 498 144 500 153 500 c 2
 188 500 l 2
 196 500 203 498 209 494 c 0
 216 489 219 480 219 471 c 2
 219 465 l 1
 179 224 l 2
 175 199 173 177 173 160 c 0
 173 122 182 105 195 96 c 0
 206 89 222 86 242 86 c 0
 278 86 324 111 375 162 c 1
 426 468 l 2
 429 488 445 500 465 500 c 2
 500 500 l 2
 508 500 515 498 521 494 c 0
 528 488 531 480 531 471 c 2
 531 465 l 1
 460 37 l 2
 458 19 445 0 422 0 c 2
 385 0 l 2
 377 0 370 2 364 6 c 0
 357 12 354 21 354 30 c 2
 354 36 l 2
 354 40 355 44 356 48 c 1
 314 14 218 -11 211 -11 c 1
EndSplineSet
EndChar

StartChar: v
Encoding: 118 118 87
Width: 575
GlyphClass: 2
Flags: MW
AnchorPoint: "Anchor-2" 248 0 basechar 0
AnchorPoint: "Anchor-1" 327 500 basechar 0
LayerCount: 2
Fore
SplineSet
441 468 m 0
 444 488 460 500 480 500 c 2
 515 500 l 2
 523 500 530 498 536 494 c 0
 543 488 546 480 546 471 c 0
 546 457 521 314 460 186 c 0
 412 85 339 -10 232 -10 c 0
 177 -10 134 25 128 85 c 2
 92 465 l 2
 92 476 97 486 105 492 c 0
 112 497 120 500 129 500 c 2
 165 500 l 2
 173 500 180 499 186 494 c 0
 194 489 197 480 198 471 c 0
 210 348 222 226 234 103 c 0
 235 92 241 87 254 87 c 0
 268 87 283 94 299 109 c 0
 318 127 337 157 355 192 c 0
 394 272 426 381 441 468 c 0
EndSplineSet
EndChar

StartChar: w
Encoding: 119 119 88
Width: 575
GlyphClass: 2
Flags: MW
AnchorPoint: "Anchor-2" 248 0 basechar 0
AnchorPoint: "Anchor-1" 327 500 basechar 0
LayerCount: 2
Fore
SplineSet
509 500 m 2
 544 500 l 2
 552 500 559 498 565 494 c 0
 572 488 575 480 575 471 c 0
 575 425 528 170 478 30 c 0
 472 16 466 0 446 0 c 2
 420 0 l 2
 400 0 388 10 383 25 c 2
 294 287 l 1
 231 163 183 87 142 44 c 0
 108 7 78 -7 50 -7 c 0
 41 -7 34 -3 29 4 c 0
 25 9 24 15 24 21 c 0
 24 28 62 373 72 467 c 0
 73 489 92 500 111 500 c 2
 147 500 l 2
 155 500 161 498 167 494 c 0
 174 488 177 479 177 471 c 0
 177 461 165 377 153 283 c 0
 147 238 141 191 136 151 c 1
 183 224 223 307 250 375 c 0
 257 395 276 399 291 399 c 2
 322 399 l 2
 342 399 352 389 358 374 c 2
 426 172 l 1
 443 267 461 375 470 466 c 0
 471 488 489 500 509 500 c 2
EndSplineSet
EndChar

StartChar: x
Encoding: 120 120 89
Width: 575
GlyphClass: 2
Flags: MW
AnchorPoint: "Anchor-2" 248 0 basechar 0
AnchorPoint: "Anchor-1" 327 500 basechar 0
LayerCount: 2
Fore
SplineSet
231 355 m 2
 208 396 194 403 181 403 c 0
 164 403 137 389 115 375 c 0
 107 370 100 366 91 366 c 0
 81 366 73 372 67 381 c 2
 54 400 l 2
 50 406 49 412 49 419 c 0
 49 431 55 442 67 450 c 0
 113 481 159 508 196 508 c 0
 241 508 283 479 325 403 c 0
 335 385 345 366 354 347 c 1
 491 492 l 2
 499 501 508 506 519 506 c 0
 527 506 535 503 541 497 c 2
 562 479 l 2
 569 473 573 465 573 457 c 0
 573 448 567 440 560 432 c 2
 398 266 l 1
 510 41 l 2
 512 37 513 32 513 27 c 0
 513 11 499 0 482 0 c 2
 440 0 l 2
 425 0 410 6 404 20 c 2
 320 196 l 1
 143 8 l 2
 135 -1 126 -6 115 -6 c 0
 107 -6 100 -2 94 3 c 2
 73 21 l 2
 66 27 62 34 62 43 c 0
 62 52 67 61 74 68 c 2
 276 273 l 1
 231 355 l 2
EndSplineSet
EndChar

StartChar: y
Encoding: 121 121 90
Width: 575
GlyphClass: 2
Flags: W
AnchorPoint: "Anchor-1" 327 500 basechar 0
LayerCount: 2
Fore
SplineSet
8 -135 m 0
 34 -146 60 -147 85 -147 c 2
 101 -147 l 2
 192 -147 245 -104 292 -10 c 1
 257 -10 l 2
 222 -10 194 -3 173 10 c 0
 146 26 132 53 128 86 c 0
 116 212 104 337 92 463 c 1
 92 466 l 2
 92 477 96 487 105 493 c 0
 112 498 120 500 129 500 c 2
 165 500 l 2
 173 500 180 499 186 494 c 0
 194 488 197 480 198 471 c 0
 210 348 222 226 234 103 c 0
 234 95 237 91 242 88 c 0
 247 85 255 83 268 83 c 2
 330 83 l 1
 367 183 411 347 449 473 c 0
 455 492 473 500 491 500 c 2
 527 500 l 2
 534 500 541 499 546 495 c 0
 553 490 555 482 555 475 c 0
 555 470 555 465 553 460 c 0
 542 422 531 386 521 351 c 0
 413 -20 350 -245 103 -245 c 2
 98 -245 l 2
 59 -245 12 -244 -36 -224 c 0
 -47 -219 -56 -210 -56 -197 c 0
 -56 -191 -54 -184 -51 -178 c 2
 -39 -155 l 2
 -33 -141 -21 -132 -7 -132 c 0
 -2 -132 3 -133 8 -135 c 0
EndSplineSet
EndChar

StartChar: z
Encoding: 122 122 91
Width: 575
GlyphClass: 2
Flags: W
AnchorPoint: "Anchor-2" 248 0 basechar 0
AnchorPoint: "Anchor-1" 327 500 basechar 0
LayerCount: 2
Fore
SplineSet
132 466 m 2
 134 486 149 500 171 500 c 2
 505 500 l 2
 513 500 519 498 525 494 c 0
 532 489 535 480 535 472 c 2
 535 465 l 1
 528 423 l 2
 524 397 511 376 489 358 c 2
 171 97 l 1
 438 97 l 2
 446 97 453 95 459 91 c 0
 467 85 469 77 469 68 c 2
 469 60 l 1
 464 33 l 2
 463 22 458 13 449 7 c 0
 442 2 434 0 425 0 c 2
 70 0 l 2
 62 0 56 2 50 6 c 0
 43 11 40 20 40 28 c 2
 40 35 l 1
 47 78 l 2
 51 104 64 125 86 143 c 2
 405 404 l 1
 159 404 l 2
 151 404 145 406 139 410 c 0
 131 415 127 424 127 433 c 0
 127 436 128 438 128 441 c 2
 132 466 l 2
EndSplineSet
EndChar

StartChar: braceleft
Encoding: 123 123 92
Width: 575
GlyphClass: 2
Flags: W
LayerCount: 2
Fore
SplineSet
558 664 m 2
 477 664 l 2
 445 664 426 656 414 641 c 0
 404 629 397 609 393 583 c 2
 365 407 l 2
 358 357 343 315 291 285 c 1
 321 264 330 235 330 204 c 0
 330 190 328 176 326 162 c 2
 298 -15 l 2
 296 -26 295 -35 295 -43 c 0
 295 -64 301 -76 311 -83 c 0
 320 -89 333 -92 354 -92 c 2
 435 -92 l 2
 443 -92 450 -94 456 -98 c 0
 464 -103 467 -111 467 -120 c 0
 467 -123 467 -126 466 -129 c 0
 465 -138 464 -146 462 -155 c 0
 460 -166 455 -175 446 -181 c 0
 439 -186 432 -188 423 -188 c 2
 342 -188 l 2
 297 -188 262 -181 236 -165 c 0
 203 -144 189 -109 189 -62 c 0
 189 -47 190 -29 193 -11 c 2
 221 166 l 2
 223 176 224 184 224 192 c 0
 224 212 218 222 208 229 c 0
 199 235 186 238 165 238 c 2
 85 238 l 2
 77 238 70 240 64 244 c 0
 56 249 53 257 53 266 c 0
 53 269 53 272 54 275 c 0
 55 284 56 292 58 301 c 0
 60 312 65 321 74 327 c 0
 81 332 88 334 97 334 c 2
 177 334 l 2
 208 334 227 342 239 356 c 0
 249 368 256 386 260 411 c 2
 288 587 l 2
 306 703 361 760 489 760 c 2
 570 760 l 2
 578 760 585 758 591 754 c 0
 599 749 602 741 602 732 c 0
 602 729 602 726 601 723 c 0
 600 714 599 706 597 697 c 0
 595 686 590 677 581 671 c 0
 574 666 567 664 558 664 c 2
EndSplineSet
EndChar

StartChar: bar
Encoding: 124 124 93
Width: 575
GlyphClass: 2
Flags: W
LayerCount: 2
Fore
SplineSet
341 710 m 2
 376 710 l 2
 384 710 390 708 396 704 c 0
 404 699 408 690 408 681 c 0
 408 678 407 676 407 673 c 2
 294 -40 l 2
 290 -60 276 -73 255 -73 c 2
 220 -73 l 2
 212 -73 206 -71 200 -67 c 0
 192 -62 188 -53 188 -44 c 0
 188 -41 189 -39 189 -36 c 2
 302 677 l 2
 306 697 320 710 341 710 c 2
EndSplineSet
EndChar

StartChar: braceright
Encoding: 125 125 94
Width: 575
GlyphClass: 2
Flags: W
LayerCount: 2
Fore
SplineSet
28 -92 m 2
 109 -92 l 2
 141 -92 160 -84 172 -69 c 0
 182 -57 189 -37 193 -11 c 2
 221 165 l 2
 228 215 243 257 295 287 c 1
 265 308 256 337 256 368 c 0
 256 382 258 396 260 410 c 2
 288 587 l 2
 290 598 291 607 291 615 c 0
 291 636 285 648 275 655 c 0
 266 661 253 664 232 664 c 2
 151 664 l 2
 143 664 136 666 130 670 c 0
 122 675 119 683 119 692 c 0
 119 695 119 698 120 701 c 0
 121 710 122 718 124 727 c 0
 126 738 131 747 140 753 c 0
 147 758 154 760 163 760 c 2
 244 760 l 2
 289 760 324 753 350 737 c 0
 383 716 397 681 397 634 c 0
 397 619 396 601 393 583 c 2
 365 406 l 2
 363 396 362 388 362 380 c 0
 362 360 368 350 378 343 c 0
 387 337 400 334 421 334 c 2
 501 334 l 2
 509 334 516 332 522 328 c 0
 530 323 533 315 533 306 c 0
 533 303 533 300 532 297 c 0
 531 288 530 280 528 271 c 0
 526 260 521 251 512 245 c 0
 505 240 498 238 489 238 c 2
 409 238 l 2
 378 238 359 230 347 216 c 0
 337 204 330 186 326 161 c 2
 298 -15 l 2
 280 -131 225 -188 97 -188 c 2
 16 -188 l 2
 8 -188 1 -186 -5 -182 c 0
 -13 -177 -16 -169 -16 -160 c 0
 -16 -157 -16 -154 -15 -151 c 0
 -14 -142 -13 -134 -11 -125 c 0
 -9 -114 -4 -105 5 -99 c 0
 12 -94 19 -92 28 -92 c 2
EndSplineSet
EndChar

StartChar: asciitilde
Encoding: 126 126 95
Width: 575
GlyphClass: 2
Flags: W
LayerCount: 2
Fore
SplineSet
533 378 m 2
 540 378 547 376 553 372 c 0
 560 367 563 358 563 349 c 0
 563 346 563 343 562 340 c 0
 546 245 490 190 404 190 c 0
 356 190 304 222 258 277 c 0
 224 316 195 334 178 334 c 0
 154 334 137 316 129 273 c 0
 128 263 122 254 113 249 c 0
 106 245 98 243 89 243 c 2
 61 243 l 2
 54 243 47 245 41 249 c 0
 34 254 30 263 30 272 c 0
 30 275 30 278 31 281 c 0
 47 375 104 431 191 431 c 0
 239 431 290 398 336 343 c 0
 369 304 398 286 416 286 c 0
 439 286 457 304 464 347 c 0
 467 367 484 378 504 378 c 2
 533 378 l 2
EndSplineSet
EndChar

StartChar: exclamdown
Encoding: 161 161 97
Width: 575
GlyphClass: 2
Flags: W
LayerCount: 2
Fore
SplineSet
244 -210 m 2
 189 -210 l 2
 181 -210 175 -209 169 -205 c 0
 161 -200 157 -192 157 -183 c 0
 157 -180 157 -176 158 -173 c 0
 186 -25 214 124 243 272 c 0
 247 292 262 305 283 305 c 2
 306 305 l 2
 314 305 320 304 326 300 c 0
 334 295 338 286 338 277 c 0
 338 274 338 272 337 269 c 0
 319 121 301 -29 283 -177 c 0
 281 -188 276 -197 267 -203 c 0
 260 -208 253 -210 244 -210 c 2
329 393 m 2
 294 393 l 2
 286 393 279 395 273 399 c 0
 265 404 262 412 262 421 c 0
 262 424 262 427 263 430 c 0
 265 446 267 461 270 477 c 0
 272 488 277 497 286 503 c 0
 293 508 300 510 309 510 c 2
 344 510 l 2
 352 510 359 508 365 504 c 0
 373 499 376 491 376 482 c 0
 376 479 376 476 375 473 c 0
 373 457 371 442 368 426 c 0
 366 415 361 406 352 400 c 0
 345 395 338 393 329 393 c 2
EndSplineSet
EndChar

StartChar: cent
Encoding: 162 162 98
Width: 575
GlyphClass: 2
Flags: W
LayerCount: 2
Fore
SplineSet
351 688 m 2
 386 688 l 2
 393 688 400 687 406 683 c 0
 414 678 418 669 418 660 c 0
 418 657 417 654 417 651 c 2
 394 509 l 1
 438 506 480 497 518 479 c 0
 529 474 537 465 537 453 c 0
 537 446 535 439 531 432 c 2
 517 408 l 2
 510 395 499 387 485 387 c 0
 480 387 475 388 470 390 c 0
 430 406 365 411 357 412 c 0
 233 412 176 318 176 213 c 0
 176 158 193 127 218 109 c 0
 238 95 266 88 299 88 c 0
 339 88 374 94 421 110 c 0
 426 112 431 113 436 113 c 0
 450 113 460 103 464 89 c 2
 470 65 l 2
 471 62 471 58 471 55 c 0
 471 40 462 27 446 21 c 0
 411 7 347 -2 312 -7 c 1
 289 -155 l 2
 287 -166 282 -175 273 -181 c 0
 266 -186 259 -188 250 -188 c 2
 215 -188 l 2
 208 -188 201 -187 195 -183 c 0
 187 -178 183 -169 183 -160 c 0
 183 -157 184 -154 184 -151 c 2
 208 0 l 1
 187 6 167 15 149 27 c 0
 101 60 70 118 70 204 c 0
 70 344 149 466 287 500 c 1
 312 655 l 2
 314 666 319 675 328 681 c 0
 335 686 342 688 351 688 c 2
EndSplineSet
EndChar

StartChar: sterling
Encoding: 163 163 99
Width: 575
GlyphClass: 2
Flags: W
LayerCount: 2
Fore
SplineSet
400 720 m 0
 514 720 559 651 559 544 c 0
 559 532 555 521 546 515 c 0
 539 510 531 508 522 508 c 2
 487 508 l 2
 476 508 466 512 459 520 c 0
 454 527 452 535 452 544 c 0
 452 586 437 624 388 624 c 0
 349 624 314 594 305 536 c 2
 283 399 l 1
 447 399 l 2
 455 399 461 397 467 393 c 0
 475 388 479 379 479 370 c 0
 479 367 478 365 478 362 c 0
 477 353 476 344 474 335 c 0
 470 315 456 302 435 302 c 2
 268 302 l 1
 234 87 l 1
 438 87 l 2
 446 87 453 85 459 81 c 0
 467 75 469 67 469 58 c 2
 469 50 l 1
 464 23 l 2
 463 12 458 3 449 -3 c 0
 442 -8 434 -10 425 -10 c 2
 70 -10 l 2
 62 -10 55 -8 49 -4 c 0
 42 2 39 11 39 20 c 2
 39 27 l 1
 44 54 l 2
 47 75 63 87 83 87 c 2
 128 87 l 1
 162 302 l 1
 120 302 l 2
 112 302 106 304 100 308 c 0
 92 313 88 322 88 331 c 0
 88 334 89 336 89 339 c 0
 92 358 93 376 104 388 c 0
 111 396 121 399 132 399 c 2
 177 399 l 1
 200 540 l 2
 211 612 242 660 284 688 c 0
 318 711 358 720 400 720 c 0
EndSplineSet
EndChar

StartChar: currency
Encoding: 164 164 100
Width: 575
GlyphClass: 2
Flags: W
LayerCount: 2
Fore
SplineSet
588 462 m 0
 588 451 581 441 572 434 c 2
 483 357 l 1
 493 333 499 307 499 280 c 0
 499 270 499 258 497 248 c 0
 491 211 474 173 450 141 c 1
 514 65 l 2
 519 59 522 52 522 44 c 0
 522 33 515 23 505 16 c 2
 479 -5 l 2
 471 -11 463 -15 454 -15 c 0
 444 -15 436 -10 430 -2 c 2
 369 71 l 1
 333 52 293 41 256 41 c 0
 218 41 183 52 153 71 c 1
 67 -4 l 2
 59 -11 49 -15 40 -15 c 0
 31 -15 23 -11 17 -4 c 0
 10 3 4 10 -3 17 c 0
 -8 23 -12 30 -12 38 c 0
 -12 49 -7 58 2 66 c 2
 92 144 l 1
 82 167 77 193 77 219 c 0
 77 230 77 241 79 252 c 0
 85 290 101 327 125 360 c 1
 61 436 l 2
 56 442 54 449 54 456 c 0
 54 467 60 477 70 485 c 2
 96 505 l 2
 104 511 113 515 122 515 c 0
 131 515 140 511 146 504 c 2
 206 430 l 1
 242 449 282 459 320 459 c 0
 357 459 393 449 422 430 c 1
 510 505 l 2
 518 512 526 515 535 515 c 0
 544 515 552 511 558 505 c 2
 578 484 l 2
 584 478 588 470 588 462 c 0
173 230 m 0
 173 177 213 138 269 138 c 0
 332 138 390 189 400 252 c 0
 401 258 402 264 402 270 c 0
 402 323 363 363 307 363 c 0
 244 363 185 311 175 248 c 0
 174 242 173 236 173 230 c 0
EndSplineSet
EndChar

StartChar: yen
Encoding: 165 165 101
Width: 575
GlyphClass: 2
Flags: W
LayerCount: 2
Fore
SplineSet
567 710 m 2
 603 710 l 2
 618 710 633 703 633 687 c 0
 633 680 629 673 625 666 c 2
 468 426 l 1
 504 426 l 2
 511 426 518 425 524 421 c 0
 532 416 536 407 536 398 c 0
 536 395 535 392 535 389 c 2
 532 368 l 2
 528 348 514 335 493 335 c 2
 113 335 l 2
 105 335 99 337 93 341 c 0
 85 346 81 355 81 364 c 0
 81 367 82 369 82 372 c 2
 85 393 l 2
 87 404 92 413 101 419 c 0
 108 424 115 426 124 426 c 2
 164 426 l 1
 83 668 l 2
 81 673 80 676 80 681 c 0
 80 700 96 710 114 710 c 2
 151 710 l 2
 158 710 165 709 171 706 c 0
 179 702 184 694 187 685 c 2
 279 413 l 2
 285 397 296 390 309 390 c 0
 323 390 336 398 347 415 c 2
 526 687 l 2
 536 703 550 710 567 710 c 2
102 285 m 2
 482 285 l 2
 489 285 496 284 502 280 c 0
 510 275 514 266 514 257 c 0
 514 254 513 251 513 248 c 2
 510 227 l 2
 506 207 492 194 471 194 c 2
 332 194 l 1
 304 24 l 2
 301 3 285 -10 265 -10 c 2
 230 -10 l 2
 222 -10 215 -8 209 -4 c 0
 202 2 199 11 199 20 c 2
 199 26 l 1
 226 194 l 1
 91 194 l 2
 83 194 77 196 71 200 c 0
 63 205 59 214 59 223 c 0
 59 226 60 228 60 231 c 2
 63 252 l 2
 65 263 70 272 79 278 c 0
 86 283 93 285 102 285 c 2
EndSplineSet
EndChar

StartChar: brokenbar
Encoding: 166 166 102
Width: 575
GlyphClass: 2
Flags: W
LayerCount: 2
Fore
SplineSet
237 -188 m 2
 202 -188 l 2
 195 -188 188 -187 182 -183 c 0
 174 -178 170 -169 170 -160 c 0
 170 -157 171 -154 171 -151 c 2
 222 170 l 2
 224 181 229 190 238 196 c 0
 245 201 252 203 261 203 c 2
 296 203 l 2
 303 203 310 202 316 198 c 0
 324 193 328 184 328 175 c 0
 328 172 327 169 327 166 c 2
 276 -154 l 2
 275 -165 270 -175 261 -181 c 0
 254 -186 246 -188 237 -188 c 2
325 369 m 2
 290 369 l 2
 282 369 275 371 269 375 c 0
 262 381 259 390 259 399 c 2
 259 405 l 1
 310 727 l 2
 314 747 328 760 349 760 c 2
 384 760 l 2
 392 760 398 759 404 755 c 0
 412 750 416 741 416 732 c 0
 416 729 416 726 415 723 c 2
 364 403 l 2
 361 382 345 369 325 369 c 2
EndSplineSet
EndChar

StartChar: section
Encoding: 167 167 103
Width: 575
GlyphClass: 2
Flags: W
LayerCount: 2
Fore
SplineSet
372 720 m 0
 399 720 443 718 490 709 c 0
 504 706 515 697 515 682 c 0
 515 676 513 671 511 665 c 2
 500 639 l 2
 494 624 482 614 466 614 c 0
 463 614 459 614 456 615 c 0
 416 622 378 624 360 624 c 0
 291 622 257 599 251 566 c 0
 250 563 250 560 250 557 c 0
 250 525 277 498 336 479 c 0
 443 445 492 406 492 342 c 0
 492 335 491 327 490 319 c 0
 482 268 449 231 397 209 c 1
 433 180 453 143 453 99 c 0
 453 91 452 82 451 74 c 0
 435 -27 349 -80 216 -80 c 0
 190 -80 131 -78 83 -69 c 0
 69 -66 58 -57 58 -42 c 0
 58 -36 60 -31 62 -25 c 2
 72 1 l 2
 78 18 91 27 107 27 c 0
 110 27 114 27 117 26 c 0
 157 18 209 17 229 17 c 0
 304 18 340 42 346 75 c 0
 347 78 347 81 347 84 c 0
 347 115 321 143 263 162 c 0
 155 196 105 235 105 299 c 0
 105 306 106 314 107 322 c 0
 115 373 148 409 201 431 c 1
 164 460 144 498 144 541 c 0
 144 549 145 558 146 566 c 0
 162 667 244 720 372 720 c 0
384 318 m 0
 384 343 364 361 297 382 c 0
 290 384 284 386 278 389 c 1
 239 375 218 356 214 333 c 0
 213 330 213 324 213 324 c 2
 213 297 232 279 301 258 c 0
 306 256 311 255 316 253 c 0
 359 267 379 286 383 308 c 0
 384 312 384 315 384 318 c 0
EndSplineSet
EndChar

StartChar: dieresis
Encoding: 168 168 104
Width: 575
GlyphClass: 2
Flags: W
LayerCount: 2
Fore
SplineSet
238 710 m 2
 273 710 l 2
 281 710 288 708 294 704 c 0
 302 699 305 691 305 682 c 0
 305 679 305 676 304 673 c 0
 302 658 300 642 297 627 c 0
 295 618 293 611 287 605 c 0
 280 597 269 594 258 594 c 2
 223 594 l 2
 215 594 209 596 203 600 c 0
 195 605 191 614 191 623 c 0
 191 626 192 628 192 631 c 0
 194 646 196 662 199 677 c 0
 203 697 217 710 238 710 c 2
445 710 m 2
 480 710 l 2
 488 710 494 708 500 704 c 0
 508 699 512 690 512 681 c 0
 512 678 511 676 511 673 c 0
 509 658 507 642 504 627 c 0
 502 616 497 607 488 601 c 0
 481 596 474 594 465 594 c 2
 430 594 l 2
 422 594 415 596 409 600 c 0
 401 605 398 613 398 622 c 0
 398 625 398 628 399 631 c 0
 401 646 403 662 406 677 c 0
 410 697 424 710 445 710 c 2
EndSplineSet
EndChar

StartChar: copyright
Encoding: 169 169 105
Width: 575
GlyphClass: 2
Flags: W
LayerCount: 2
Fore
SplineSet
433 488 m 0
 433 477 426 467 417 460 c 2
 405 451 l 2
 398 445 390 441 382 441 c 0
 373 441 366 446 359 450 c 0
 350 456 337 459 324 459 c 2
 323 459 l 2
 303 459 279 449 262 433 c 0
 246 418 235 395 231 373 c 0
 230 368 230 364 230 359 c 0
 230 343 234 328 243 316 c 0
 254 302 273 292 293 291 c 2
 294 291 l 2
 307 291 321 296 333 302 c 0
 341 306 349 309 357 309 c 0
 366 309 373 305 379 298 c 2
 388 289 l 2
 394 283 398 275 398 267 c 0
 398 256 391 246 381 239 c 0
 352 220 317 209 285 209 c 2
 282 209 l 2
 239 210 200 228 176 261 c 0
 156 286 146 317 146 350 c 0
 146 359 146 368 148 377 c 0
 154 419 177 461 211 491 c 0
 244 521 288 541 330 541 c 0
 331 541 332 542 333 542 c 2
 335 542 l 2
 367 542 398 531 421 511 c 0
 428 505 433 496 433 488 c 0
33 334 m 0
 33 348 34 363 36 377 c 0
 47 448 87 518 145 569 c 0
 204 618 277 647 349 647 c 0
 420 647 488 618 530 567 c 0
 565 526 583 472 583 415 c 0
 583 401 582 387 580 373 c 0
 569 303 529 232 470 182 c 0
 419 137 275 102 264 102 c 1
 266 103 l 1
 194 103 128 133 84 184 c 0
 50 224 33 278 33 334 c 0
499 405 m 0
 499 444 486 482 463 510 c 0
 434 544 388 565 339 565 c 0
 290 565 237 544 196 508 c 0
 155 472 126 422 118 373 c 0
 117 363 116 354 116 345 c 0
 116 306 129 268 152 240 c 0
 182 205 227 186 276 186 c 0
 325 186 379 207 419 242 c 0
 460 278 489 328 497 377 c 0
 498 387 499 396 499 405 c 0
EndSplineSet
EndChar

StartChar: ordfeminine
Encoding: 170 170 106
Width: 575
GlyphClass: 2
Flags: W
LayerCount: 2
Fore
SplineSet
368 743 m 0
 387 743 425 742 466 737 c 1
 467 737 l 2
 485 734 499 722 499 703 c 0
 499 700 498 698 498 695 c 0
 483 600 469 504 453 409 c 0
 450 389 434 373 415 373 c 2
 390 373 l 2
 375 373 363 381 358 393 c 1
 330 376 300 367 271 367 c 0
 231 367 200 384 182 417 c 0
 168 442 161 475 161 516 c 0
 161 579 176 631 204 669 c 0
 240 717 296 743 368 743 c 0
371 504 m 1
 395 652 l 1
 380 653 368 653 360 653 c 0
 323 653 297 640 280 615 c 0
 267 594 259 564 259 526 c 0
 259 502 261 484 266 474 c 0
 271 461 278 457 291 457 c 0
 311 457 341 472 371 504 c 1
EndSplineSet
EndChar

StartChar: guillemotleft
Encoding: 171 171 107
Width: 575
GlyphClass: 2
Flags: W
LayerCount: 2
Fore
SplineSet
352 519 m 0
 352 508 346 499 338 491 c 2
 128 310 l 1
 279 131 l 2
 284 125 287 117 287 109 c 0
 287 98 281 89 271 81 c 0
 262 74 254 67 245 60 c 0
 237 54 229 51 220 51 c 0
 211 51 202 55 195 62 c 2
 47 240 l 2
 33 257 19 275 19 301 c 0
 19 305 19 308 20 312 c 0
 25 343 46 366 68 385 c 2
 272 561 l 2
 280 568 290 572 299 572 c 0
 308 572 316 568 322 561 c 2
 342 541 l 2
 348 535 352 527 352 519 c 0
589 518 m 0
 589 507 583 498 574 490 c 2
 364 310 l 1
 514 131 l 2
 520 125 524 117 524 109 c 0
 524 98 517 88 507 81 c 0
 498 74 490 67 481 60 c 0
 473 54 465 51 456 51 c 0
 447 51 438 56 432 63 c 2
 283 240 l 2
 269 257 255 275 255 301 c 0
 255 305 255 308 256 312 c 0
 261 343 282 366 304 385 c 2
 509 560 l 2
 517 567 526 572 535 572 c 0
 544 572 552 568 558 561 c 2
 578 541 l 2
 585 535 589 527 589 518 c 0
EndSplineSet
EndChar

StartChar: logicalnot
Encoding: 172 172 108
Width: 575
GlyphClass: 2
Flags: W
LayerCount: 2
Fore
SplineSet
136 424 m 2
 491 424 l 2
 499 424 505 422 511 418 c 0
 519 413 523 404 523 395 c 0
 523 392 522 390 522 387 c 2
 484 149 l 2
 483 138 478 128 469 122 c 0
 462 117 454 115 445 115 c 2
 410 115 l 2
 402 115 395 117 389 121 c 0
 382 127 379 136 379 145 c 2
 379 151 l 1
 407 327 l 1
 124 327 l 2
 116 327 110 329 104 333 c 0
 96 338 92 347 92 356 c 0
 92 359 93 361 93 364 c 0
 94 373 95 382 97 391 c 0
 101 411 115 424 136 424 c 2
EndSplineSet
EndChar

StartChar: uni00AD
Encoding: 173 173 109
Width: 575
GlyphClass: 2
Flags: W
LayerCount: 2
Fore
SplineSet
80 262 m 2
 72 262 65 264 59 268 c 0
 51 273 48 281 48 290 c 0
 48 293 48 296 49 299 c 0
 50 308 51 317 53 326 c 0
 55 337 60 346 69 352 c 0
 76 357 83 359 92 359 c 2
 515 359 l 2
 523 359 530 357 536 353 c 0
 544 348 547 340 547 331 c 0
 547 328 547 325 546 322 c 0
 545 313 544 304 542 295 c 0
 540 284 535 275 526 269 c 0
 519 264 512 262 503 262 c 2
 80 262 l 2
EndSplineSet
EndChar

StartChar: registered
Encoding: 174 174 110
Width: 575
GlyphClass: 2
Flags: W
LayerCount: 2
Fore
SplineSet
349 647 m 0
 420 647 488 618 530 567 c 0
 565 526 583 472 583 415 c 0
 583 401 582 387 580 373 c 0
 569 303 529 232 470 182 c 0
 419 137 275 102 264 102 c 1
 266 103 l 1
 194 103 128 133 84 184 c 0
 50 224 33 278 33 334 c 0
 33 348 34 363 36 377 c 0
 47 448 87 518 145 569 c 0
 204 618 277 647 349 647 c 0
276 186 m 0
 325 186 379 207 419 242 c 0
 460 278 489 328 497 377 c 0
 498 387 499 396 499 405 c 0
 499 444 486 482 463 510 c 0
 434 544 388 565 339 565 c 0
 290 565 237 544 196 508 c 0
 155 472 126 422 118 373 c 0
 117 363 116 354 116 345 c 0
 116 306 129 268 152 240 c 0
 182 205 227 186 276 186 c 0
246 510 m 2
 348 510 l 2
 379 510 403 507 422 493 c 0
 433 485 441 474 446 461 c 0
 449 452 452 443 452 432 c 0
 452 428 452 424 451 420 c 0
 449 406 442 392 434 380 c 0
 425 369 415 358 401 350 c 0
 394 346 387 342 379 340 c 1
 412 286 l 2
 415 280 417 274 417 268 c 0
 417 250 401 240 383 240 c 2
 362 240 l 2
 346 240 334 247 326 260 c 2
 281 334 l 1
 267 334 l 1
 257 273 l 2
 255 265 253 257 247 251 c 0
 240 243 229 240 218 240 c 2
 206 240 l 2
 198 240 192 242 186 246 c 0
 178 251 174 260 174 269 c 0
 174 272 175 274 175 277 c 2
 207 476 l 2
 209 496 224 510 246 510 c 2
368 423 m 0
 365 426 352 428 347 428 c 2
 282 428 l 1
 280 417 l 1
 342 417 l 2
 349 417 368 417 368 423 c 0
EndSplineSet
EndChar

StartChar: macron
Encoding: 175 175 111
Width: 575
GlyphClass: 2
Flags: W
LayerCount: 2
Fore
SplineSet
240 710 m 2
 478 710 l 2
 486 710 492 708 498 704 c 0
 506 699 510 690 510 681 c 0
 510 678 509 676 509 673 c 2
 505 647 l 2
 502 626 486 614 466 614 c 2
 228 614 l 2
 220 614 213 616 207 620 c 0
 199 626 197 635 197 644 c 2
 197 651 l 2
 198 660 199 668 201 677 c 0
 205 697 219 710 240 710 c 2
EndSplineSet
EndChar

StartChar: degree
Encoding: 176 176 112
Width: 575
GlyphClass: 2
Flags: W
LayerCount: 2
Fore
SplineSet
136 498 m 0
 136 621 241 720 363 720 c 0
 459 720 526 653 526 560 c 0
 526 441 427 336 305 336 c 0
 204 336 136 404 136 498 c 0
242 509 m 0
 242 464 270 433 314 433 c 0
 372 433 420 488 420 548 c 0
 420 593 391 623 348 623 c 0
 290 623 242 571 242 509 c 0
EndSplineSet
EndChar

StartChar: plusminus
Encoding: 177 177 113
Width: 575
GlyphClass: 2
Flags: W
LayerCount: 2
Fore
SplineSet
531 462 m 2
 539 462 546 460 552 456 c 0
 560 451 563 443 563 434 c 0
 563 431 563 428 562 425 c 0
 559 406 559 388 548 376 c 0
 541 368 530 365 519 365 c 2
 359 365 l 1
 332 201 l 2
 331 190 326 180 317 174 c 0
 310 169 302 167 293 167 c 2
 258 167 l 2
 250 167 243 169 237 173 c 0
 230 179 227 188 227 197 c 2
 227 203 l 1
 253 365 l 1
 96 365 l 2
 88 365 82 367 76 371 c 0
 68 376 64 385 64 394 c 0
 64 397 65 399 65 402 c 0
 68 421 69 439 80 451 c 0
 87 459 97 462 108 462 c 2
 268 462 l 1
 294 627 l 2
 298 647 312 660 333 660 c 2
 368 660 l 2
 376 660 383 658 389 654 c 0
 397 649 400 641 400 632 c 0
 400 629 400 626 399 623 c 2
 374 462 l 1
 531 462 l 2
459 -10 m 2
 36 -10 l 2
 28 -10 21 -8 15 -4 c 0
 8 2 5 11 5 20 c 2
 5 27 l 1
 10 54 l 2
 13 75 29 87 49 87 c 2
 472 87 l 2
 480 87 487 85 493 81 c 0
 501 75 503 67 503 58 c 2
 503 50 l 1
 498 23 l 2
 497 12 492 3 483 -3 c 0
 476 -8 468 -10 459 -10 c 2
EndSplineSet
EndChar

StartChar: uni00B2
Encoding: 178 178 114
Width: 575
GlyphClass: 2
Flags: W
LayerCount: 2
Fore
SplineSet
339 775 m 0
 400 775 461 747 461 677 c 0
 461 670 460 662 459 655 c 0
 448 585 387 544 336 508 c 0
 310 490 288 475 275 459 c 1
 401 459 l 2
 421 459 432 443 432 428 c 0
 432 421 430 416 429 410 c 0
 427 394 411 379 392 379 c 2
 202 379 l 2
 184 379 170 392 170 409 c 0
 170 415 171 421 172 426 c 0
 184 501 246 540 286 567 c 0
 288 568 289 570 291 571 c 0
 338 603 367 626 372 659 c 0
 373 663 373 665 373 668 c 0
 373 680 369 686 361 690 c 0
 354 694 344 696 330 696 c 0
 311 696 296 692 272 685 c 0
 269 684 261 684 261 684 c 2
 248 684 233 692 230 706 c 2
 227 719 l 2
 226 721 226 723 226 725 c 0
 226 740 238 754 252 759 c 0
 279 770 311 775 339 775 c 0
EndSplineSet
EndChar

StartChar: uni00B3
Encoding: 179 179 115
Width: 575
GlyphClass: 2
Flags: W
LayerCount: 2
Fore
SplineSet
270 690 m 0
 256 690 241 698 238 715 c 0
 238 721 237 726 237 732 c 0
 237 746 246 763 266 768 c 0
 286 773 308 775 330 775 c 0
 388 775 454 751 454 681 c 0
 454 675 453 668 452 661 c 0
 446 623 430 594 402 574 c 1
 421 558 431 536 431 509 c 0
 431 503 431 496 430 490 c 0
 416 404 334 375 268 375 c 0
 245 375 222 376 202 382 c 0
 187 386 181 400 181 411 c 0
 181 422 186 431 190 439 c 0
 196 452 211 461 226 461 c 0
 229 461 231 461 234 460 c 0
 248 456 261 454 277 454 c 0
 296 454 311 456 321 461 c 0
 333 467 340 477 343 494 c 0
 343 497 344 499 344 501 c 0
 344 523 328 537 297 537 c 2
 272 537 l 2
 254 537 240 550 240 567 c 0
 240 573 241 579 242 585 c 0
 245 602 262 616 281 616 c 2
 306 616 l 2
 339 616 361 635 365 665 c 0
 365 668 366 670 366 672 c 0
 366 682 362 687 354 691 c 0
 347 694 336 696 321 696 c 0
 308 696 292 694 278 691 c 0
 275 690 273 690 270 690 c 0
EndSplineSet
EndChar

StartChar: acute
Encoding: 180 180 116
Width: 575
GlyphClass: 2
Flags: W
LayerCount: 2
Fore
SplineSet
215 569 m 0
 215 585 225 597 241 604 c 2
 467 705 l 2
 473 708 478 709 484 709 c 0
 497 709 508 700 512 687 c 2
 525 641 l 2
 526 637 527 633 527 629 c 0
 527 613 515 601 499 596 c 2
 267 521 l 2
 262 519 257 519 252 519 c 0
 238 519 227 528 223 541 c 0
 221 547 218 553 216 559 c 0
 215 562 215 566 215 569 c 0
EndSplineSet
EndChar

StartChar: mu
Encoding: 181 181 117
Width: 575
GlyphClass: 2
Flags: W
LayerCount: 2
Fore
SplineSet
470 510 m 2
 505 510 l 2
 513 510 520 508 526 504 c 0
 534 498 536 490 536 481 c 2
 536 474 l 1
 465 29 l 2
 464 18 460 8 452 2 c 0
 446 -3 437 -6 429 -7 c 0
 353 -19 290 -20 257 -20 c 0
 208 -20 169 -13 141 5 c 1
 107 -215 l 2
 103 -235 89 -248 68 -248 c 2
 33 -248 l 2
 25 -248 19 -246 13 -242 c 0
 5 -237 1 -228 1 -219 c 0
 1 -216 2 -214 2 -211 c 2
 111 476 l 2
 113 496 128 510 150 510 c 2
 185 510 l 2
 193 510 200 508 206 504 c 0
 214 498 216 490 216 481 c 2
 216 474 l 1
 171 191 l 2
 169 176 167 164 167 153 c 0
 167 120 177 102 196 91 c 0
 212 82 235 77 269 77 c 0
 291 77 326 77 368 80 c 1
 431 476 l 2
 434 497 450 510 470 510 c 2
EndSplineSet
EndChar

StartChar: paragraph
Encoding: 182 182 118
Width: 575
GlyphClass: 2
Flags: W
LayerCount: 2
Fore
SplineSet
321 710 m 2
 381 710 l 2
 389 710 395 709 401 705 c 0
 409 700 413 691 413 682 c 0
 413 679 413 676 412 673 c 2
 294 -77 l 2
 292 -85 290 -93 284 -99 c 0
 277 -107 266 -110 255 -110 c 2
 220 -110 l 2
 212 -110 206 -108 200 -104 c 0
 192 -99 188 -90 188 -81 c 0
 188 -78 189 -76 189 -73 c 2
 249 312 l 1
 199 314 161 326 135 347 c 0
 99 376 86 419 86 466 c 0
 86 481 88 496 90 512 c 0
 109 630 180 710 321 710 c 2
531 710 m 2
 566 710 l 2
 574 710 580 709 586 705 c 0
 594 700 598 691 598 682 c 0
 598 679 598 676 597 673 c 2
 479 -77 l 2
 477 -85 475 -93 469 -99 c 0
 462 -107 451 -110 440 -110 c 2
 405 -110 l 2
 397 -110 391 -108 385 -104 c 0
 377 -99 373 -90 373 -81 c 0
 373 -78 374 -76 374 -73 c 2
 492 677 l 2
 496 697 510 710 531 710 c 2
EndSplineSet
EndChar

StartChar: periodcentered
Encoding: 183 183 119
Width: 575
GlyphClass: 4
Flags: W
AnchorPoint: "Anchor-4" 297 310 mark 0
LayerCount: 2
Fore
SplineSet
259 390 m 2
 359 390 l 2
 367 390 374 388 380 384 c 0
 388 379 391 371 391 362 c 0
 391 359 391 356 390 353 c 2
 375 263 l 2
 373 252 368 243 359 237 c 0
 352 232 345 230 336 230 c 2
 236 230 l 2
 228 230 221 232 215 236 c 0
 207 241 204 249 204 258 c 0
 204 261 204 264 205 267 c 2
 220 357 l 2
 222 368 227 377 236 383 c 0
 243 388 250 390 259 390 c 2
EndSplineSet
EndChar

StartChar: cedilla
Encoding: 184 184 120
Width: 575
GlyphClass: 2
Flags: W
LayerCount: 2
Fore
SplineSet
239 23 m 1
 257 23 l 1
 258 23 l 2
 272 22 286 15 286 -1 c 0
 286 -8 284 -15 280 -22 c 2
 260 -54 l 1
 275 -52 301 -51 302 -51 c 0
 374 -51 413 -84 413 -129 c 0
 413 -156 399 -179 378 -198 c 0
 336 -235 263 -256 196 -256 c 0
 170 -256 145 -252 117 -245 c 0
 104 -241 95 -230 95 -217 c 0
 95 -206 102 -195 106 -187 c 0
 113 -172 126 -164 141 -164 c 0
 144 -164 148 -164 151 -165 c 0
 170 -169 192 -171 207 -171 c 0
 232 -171 258 -166 275 -158 c 0
 289 -151 294 -145 294 -140 c 0
 294 -138 291 -129 263 -129 c 0
 256 -129 246 -130 236 -131 c 0
 233 -131 230 -132 227 -132 c 0
 216 -132 204 -127 196 -117 c 2
 172 -88 l 2
 167 -82 164 -74 164 -66 c 0
 164 -58 167 -51 172 -43 c 2
 198 0 l 2
 207 14 220 23 236 23 c 2
 239 23 l 1
EndSplineSet
EndChar

StartChar: uni00B9
Encoding: 185 185 121
Width: 575
GlyphClass: 2
Flags: W
LayerCount: 2
Fore
SplineSet
374 770 m 2
 391 770 405 758 405 741 c 2
 405 736 l 1
 361 459 l 1
 389 459 l 2
 409 459 420 443 420 428 c 0
 420 422 418 416 417 411 c 0
 415 395 399 380 380 380 c 2
 202 380 l 2
 182 380 171 396 171 411 c 0
 171 417 173 423 174 428 c 0
 176 444 192 459 211 459 c 2
 274 459 l 1
 303 640 l 1
 243 640 l 2
 225 640 213 655 213 670 c 0
 213 676 214 681 215 687 c 0
 217 704 233 719 252 719 c 0
 278 719 295 721 306 727 c 0
 315 731 321 738 328 749 c 0
 335 761 349 770 364 770 c 2
 374 770 l 2
EndSplineSet
EndChar

StartChar: ordmasculine
Encoding: 186 186 122
Width: 575
GlyphClass: 2
Flags: W
LayerCount: 2
Fore
SplineSet
350 775 m 0
 423 775 462 714 462 628 c 0
 462 611 461 592 458 573 c 0
 440 458 377 375 290 375 c 0
 217 375 178 436 178 522 c 0
 178 539 179 558 182 577 c 0
 200 692 263 775 350 775 c 0
341 697 m 0
 333 697 324 693 314 684 c 0
 296 667 279 633 270 584 c 1
 371 670 l 1
 364 689 354 697 341 697 c 0
371 568 m 1
 270 482 l 1
 277 462 287 454 299 454 c 0
 308 454 317 458 327 467 c 0
 345 484 362 518 371 568 c 1
EndSplineSet
EndChar

StartChar: guillemotright
Encoding: 187 187 123
Width: 575
GlyphClass: 2
Flags: W
LayerCount: 2
Fore
SplineSet
242 103 m 0
 242 114 248 123 256 131 c 2
 466 312 l 1
 315 491 l 2
 310 497 307 505 307 513 c 0
 307 524 313 533 323 541 c 0
 332 548 340 555 349 562 c 0
 357 568 365 571 374 571 c 0
 383 571 392 567 399 560 c 2
 547 382 l 2
 561 365 575 347 575 321 c 0
 575 317 575 314 574 310 c 0
 569 279 548 256 526 237 c 2
 322 61 l 2
 314 54 304 50 295 50 c 0
 286 50 278 54 272 61 c 2
 252 81 l 2
 246 87 242 95 242 103 c 0
5 104 m 0
 5 115 11 124 20 132 c 2
 230 312 l 1
 80 491 l 2
 74 497 70 505 70 513 c 0
 70 524 77 534 87 541 c 0
 96 548 104 555 113 562 c 0
 121 568 129 571 138 571 c 0
 147 571 156 566 162 559 c 2
 311 382 l 2
 325 365 339 347 339 321 c 0
 339 317 339 314 338 310 c 0
 333 279 312 256 290 237 c 2
 85 62 l 2
 77 55 68 50 59 50 c 0
 50 50 42 54 36 61 c 2
 16 81 l 2
 9 87 5 95 5 104 c 0
EndSplineSet
EndChar

StartChar: onequarter
Encoding: 188 188 124
Width: 575
GlyphClass: 2
Flags: W
LayerCount: 2
Fore
SplineSet
548 131 m 2
 566 131 578 116 578 101 c 0
 578 95 577 89 576 83 c 0
 573 66 557 53 538 53 c 2
 531 53 l 1
 524 12 l 2
 522 -5 506 -20 487 -20 c 2
 469 -20 l 2
 449 -20 438 -4 438 11 c 2
 438 15 l 1
 444 53 l 1
 344 53 l 2
 327 53 314 66 314 82 c 2
 314 87 l 2
 317 104 318 116 326 129 c 2
 470 349 l 2
 479 362 493 370 510 370 c 2
 528 370 l 2
 545 370 557 358 557 343 c 0
 557 337 555 330 551 325 c 2
 484 222 l 1
 491 226 498 229 506 229 c 2
 523 229 l 2
 541 229 554 215 554 199 c 2
 554 194 l 1
 545 131 l 1
 548 131 l 2
457 131 m 1
 467 196 l 1
 424 131 l 1
 457 131 l 1
5 169 m 0
 5 180 11 190 20 198 c 2
 231 380 l 1
 77 380 l 2
 57 380 46 396 46 411 c 0
 46 417 48 423 49 428 c 0
 51 444 67 459 86 459 c 2
 149 459 l 1
 178 640 l 1
 118 640 l 2
 100 640 88 655 88 670 c 0
 88 676 89 681 90 687 c 0
 92 704 108 719 127 719 c 0
 153 719 170 721 181 727 c 0
 190 731 196 738 203 749 c 0
 210 761 224 770 239 770 c 2
 249 770 l 2
 266 770 280 758 280 741 c 2
 280 736 l 1
 236 459 l 1
 264 459 l 2
 281 459 291 448 294 435 c 1
 494 607 l 2
 502 614 510 617 519 617 c 0
 528 617 537 612 543 605 c 0
 550 597 558 589 565 580 c 0
 570 574 573 568 573 560 c 0
 573 549 567 539 558 531 c 2
 83 122 l 2
 75 115 67 112 58 112 c 0
 49 112 40 117 34 124 c 2
 13 149 l 2
 8 155 5 161 5 169 c 0
EndSplineSet
EndChar

StartChar: onehalf
Encoding: 189 189 125
Width: 575
GlyphClass: 2
Flags: W
LayerCount: 2
Fore
SplineSet
476 375 m 0
 537 375 598 347 598 277 c 0
 598 270 597 262 596 255 c 0
 585 185 524 144 473 108 c 0
 447 90 425 75 412 59 c 1
 538 59 l 2
 558 59 569 43 569 28 c 0
 569 21 567 16 566 10 c 0
 564 -6 548 -21 529 -21 c 2
 339 -21 l 2
 321 -21 307 -8 307 9 c 0
 307 15 308 21 309 26 c 0
 321 101 383 140 423 167 c 0
 425 168 426 170 428 171 c 0
 475 203 504 226 509 259 c 0
 510 263 510 265 510 268 c 0
 510 280 506 286 498 290 c 0
 491 294 481 296 467 296 c 0
 448 296 433 292 409 285 c 0
 406 284 398 284 398 284 c 2
 385 284 370 292 367 306 c 2
 364 319 l 2
 363 321 363 323 363 325 c 0
 363 340 375 354 389 359 c 0
 416 370 448 375 476 375 c 0
5 169 m 0
 5 180 11 190 20 198 c 2
 231 380 l 1
 77 380 l 2
 57 380 46 396 46 411 c 0
 46 417 48 423 49 428 c 0
 51 444 67 459 86 459 c 2
 149 459 l 1
 178 640 l 1
 118 640 l 2
 100 640 88 655 88 670 c 0
 88 676 89 681 90 687 c 0
 92 704 108 719 127 719 c 0
 153 719 170 721 181 727 c 0
 190 731 196 738 203 749 c 0
 210 761 224 770 239 770 c 2
 249 770 l 2
 266 770 280 758 280 741 c 2
 280 736 l 1
 236 459 l 1
 264 459 l 2
 281 459 291 448 294 435 c 1
 494 607 l 2
 502 614 510 617 519 617 c 0
 528 617 537 612 543 605 c 0
 550 597 558 589 565 580 c 0
 570 574 573 568 573 560 c 0
 573 549 567 539 558 531 c 2
 83 122 l 2
 75 115 67 112 58 112 c 0
 49 112 40 117 34 124 c 2
 13 149 l 2
 8 155 5 161 5 169 c 0
EndSplineSet
EndChar

StartChar: threequarters
Encoding: 190 190 126
Width: 575
GlyphClass: 2
Flags: W
LayerCount: 2
Fore
SplineSet
548 131 m 2
 566 131 578 116 578 101 c 0
 578 95 577 89 576 83 c 0
 573 66 557 53 538 53 c 2
 531 53 l 1
 524 12 l 2
 522 -5 506 -20 487 -20 c 2
 469 -20 l 2
 449 -20 438 -4 438 11 c 2
 438 15 l 1
 444 53 l 1
 344 53 l 2
 327 53 314 66 314 82 c 2
 314 87 l 2
 317 104 318 116 326 129 c 2
 470 349 l 2
 479 362 493 370 510 370 c 2
 528 370 l 2
 545 370 557 358 557 343 c 0
 557 337 555 330 551 325 c 2
 484 222 l 1
 491 226 498 229 506 229 c 2
 523 229 l 2
 541 229 554 215 554 199 c 2
 554 194 l 1
 545 131 l 1
 548 131 l 2
457 131 m 1
 467 196 l 1
 424 131 l 1
 457 131 l 1
145 690 m 0
 131 690 116 698 113 715 c 0
 113 721 112 726 112 732 c 0
 112 746 121 763 141 768 c 0
 161 773 183 775 205 775 c 0
 263 775 329 751 329 681 c 0
 329 675 328 668 327 661 c 0
 321 623 305 594 277 574 c 1
 296 558 306 536 306 509 c 0
 306 503 306 496 305 490 c 0
 291 404 209 375 143 375 c 0
 120 375 97 376 77 382 c 0
 62 386 56 400 56 411 c 0
 56 422 61 431 65 439 c 0
 71 452 86 461 101 461 c 0
 104 461 106 461 109 460 c 0
 123 456 136 454 152 454 c 0
 171 454 186 456 196 461 c 0
 208 467 215 477 218 494 c 0
 218 497 219 499 219 501 c 0
 219 523 203 537 172 537 c 2
 147 537 l 2
 129 537 115 550 115 567 c 0
 115 573 116 579 117 585 c 0
 120 602 137 616 156 616 c 2
 181 616 l 2
 214 616 236 635 240 665 c 0
 240 668 241 670 241 672 c 0
 241 682 237 687 229 691 c 0
 222 694 211 696 196 696 c 0
 183 696 167 694 153 691 c 0
 150 690 148 690 145 690 c 0
5 169 m 0
 5 180 11 190 20 198 c 2
 494 607 l 2
 502 614 510 617 519 617 c 0
 528 617 537 612 543 605 c 0
 550 597 558 589 565 580 c 0
 570 574 573 568 573 560 c 0
 573 549 567 539 558 531 c 2
 83 122 l 2
 75 115 67 112 58 112 c 0
 49 112 40 117 34 124 c 2
 13 149 l 2
 8 155 5 161 5 169 c 0
EndSplineSet
EndChar

StartChar: questiondown
Encoding: 191 191 127
Width: 575
GlyphClass: 2
Flags: W
LayerCount: 2
Fore
SplineSet
423 393 m 2
 388 393 l 2
 380 393 373 395 367 399 c 0
 359 404 356 412 356 421 c 0
 356 424 356 427 357 430 c 0
 359 446 361 461 364 477 c 0
 366 488 371 497 380 503 c 0
 387 508 394 510 403 510 c 2
 438 510 l 2
 446 510 453 508 459 504 c 0
 467 499 470 491 470 482 c 0
 470 479 470 476 469 473 c 0
 467 457 465 442 462 426 c 0
 460 415 455 406 446 400 c 0
 439 395 432 393 423 393 c 2
376 89 m 2
 315 89 l 2
 253 89 194 74 163 47 c 0
 148 33 139 17 139 -3 c 0
 139 -25 150 -43 172 -60 c 0
 217 -94 308 -115 433 -116 c 0
 441 -116 447 -118 453 -122 c 0
 461 -127 465 -136 465 -145 c 0
 465 -148 464 -150 464 -153 c 2
 461 -177 l 2
 457 -197 443 -210 422 -210 c 0
 152 -208 33 -114 33 -10 c 0
 33 117 176 181 319 183 c 1
 324 213 328 242 333 272 c 0
 337 292 351 305 372 305 c 2
 407 305 l 2
 415 305 421 303 427 299 c 0
 435 294 439 285 439 276 c 0
 439 273 438 271 438 268 c 2
 415 123 l 2
 412 102 396 89 376 89 c 2
EndSplineSet
EndChar

StartChar: Agrave
Encoding: 192 192 128
Width: 575
GlyphClass: 2
Flags: W
LayerCount: 2
Fore
SplineSet
75 27 m 2
 68 9 53 0 34 0 c 2
 -1 0 l 2
 -8 0 -15 1 -20 5 c 0
 -27 10 -31 17 -31 25 c 0
 -31 30 -29 36 -27 41 c 2
 215 617 l 2
 240 677 292 710 355 710 c 0
 417 710 473 678 479 615 c 2
 533 38 l 1
 533 33 l 2
 533 13 517 0 497 0 c 2
 461 0 l 2
 453 0 445 1 439 6 c 0
 431 12 428 20 427 30 c 2
 410 210 l 1
 154 210 l 1
 75 27 l 2
374 597 m 2
 373 608 363 614 349 614 c 0
 334 614 319 606 315 594 c 2
 193 306 l 1
 401 306 l 1
 374 597 l 2
276 964 m 0
 282 964 288 963 294 960 c 2
 487 859 l 2
 498 854 505 845 505 833 c 0
 505 826 503 818 499 812 c 0
 495 806 491 799 487 793 c 0
 478 782 467 774 454 774 c 0
 449 774 445 775 441 777 c 2
 230 852 l 2
 218 856 209 865 209 878 c 0
 209 885 212 891 216 898 c 2
 245 944 l 2
 252 956 263 964 276 964 c 0
EndSplineSet
EndChar

StartChar: Aacute
Encoding: 193 193 129
Width: 575
GlyphClass: 2
Flags: W
LayerCount: 2
Fore
SplineSet
75 27 m 2
 68 9 53 0 34 0 c 2
 -1 0 l 2
 -8 0 -15 1 -20 5 c 0
 -27 10 -31 17 -31 25 c 0
 -31 30 -29 36 -27 41 c 2
 215 617 l 2
 240 677 292 710 355 710 c 0
 417 710 473 678 479 615 c 2
 533 38 l 1
 533 33 l 2
 533 13 517 0 497 0 c 2
 461 0 l 2
 453 0 445 1 439 6 c 0
 431 12 428 20 427 30 c 2
 410 210 l 1
 154 210 l 1
 75 27 l 2
374 597 m 2
 373 608 363 614 349 614 c 0
 334 614 319 606 315 594 c 2
 193 306 l 1
 401 306 l 1
 374 597 l 2
257 824 m 0
 257 840 267 852 283 859 c 2
 509 960 l 2
 515 963 520 964 526 964 c 0
 539 964 550 955 554 942 c 2
 567 896 l 2
 568 892 569 888 569 884 c 0
 569 868 557 856 541 851 c 2
 309 776 l 2
 304 774 299 774 294 774 c 0
 280 774 269 783 265 796 c 0
 263 802 260 808 258 814 c 0
 257 817 257 821 257 824 c 0
EndSplineSet
EndChar

StartChar: Acircumflex
Encoding: 194 194 130
Width: 575
GlyphClass: 2
Flags: W
LayerCount: 2
Fore
SplineSet
75 27 m 2
 68 9 53 0 34 0 c 2
 -1 0 l 2
 -8 0 -15 1 -20 5 c 0
 -27 10 -31 17 -31 25 c 0
 -31 30 -29 36 -27 41 c 2
 215 617 l 2
 240 677 292 710 355 710 c 0
 417 710 473 678 479 615 c 2
 533 38 l 1
 533 33 l 2
 533 13 517 0 497 0 c 2
 461 0 l 2
 453 0 445 1 439 6 c 0
 431 12 428 20 427 30 c 2
 410 210 l 1
 154 210 l 1
 75 27 l 2
374 597 m 2
 373 608 363 614 349 614 c 0
 334 614 319 606 315 594 c 2
 193 306 l 1
 401 306 l 1
 374 597 l 2
238 786 m 0
 227 786 217 793 210 802 c 2
 198 826 l 2
 195 832 193 838 193 844 c 0
 193 857 202 868 214 875 c 2
 329 941 l 2
 353 955 375 965 401 965 c 0
 427 965 450 953 468 940 c 2
 561 874 l 2
 569 868 575 860 575 850 c 0
 575 841 570 832 563 824 c 2
 543 801 l 2
 535 792 526 786 515 786 c 0
 508 786 500 789 494 794 c 2
 403 866 l 2
 401 867 400 868 399 869 c 0
 395 872 395 873 390 873 c 0
 385 873 383 872 377 868 c 0
 376 867 374 866 372 865 c 2
 259 794 l 2
 252 790 246 786 238 786 c 0
EndSplineSet
EndChar

StartChar: Atilde
Encoding: 195 195 131
Width: 575
GlyphClass: 2
Flags: W
LayerCount: 2
Fore
SplineSet
75 27 m 2
 68 9 53 0 34 0 c 2
 -1 0 l 2
 -8 0 -15 1 -20 5 c 0
 -27 10 -31 17 -31 25 c 0
 -31 30 -29 36 -27 41 c 2
 215 617 l 2
 240 677 292 710 355 710 c 0
 417 710 473 678 479 615 c 2
 533 38 l 1
 533 33 l 2
 533 13 517 0 497 0 c 2
 461 0 l 2
 453 0 445 1 439 6 c 0
 431 12 428 20 427 30 c 2
 410 210 l 1
 154 210 l 1
 75 27 l 2
374 597 m 2
 373 608 363 614 349 614 c 0
 334 614 319 606 315 594 c 2
 193 306 l 1
 401 306 l 1
 374 597 l 2
175 865 m 0
 175 874 180 883 187 891 c 0
 229 936 274 963 317 963 c 0
 344 963 377 949 410 924 c 0
 430 910 456 905 461 903 c 0
 477 903 494 910 511 926 c 0
 519 935 528 940 539 940 c 0
 546 940 554 938 560 933 c 2
 571 924 l 2
 579 918 585 910 585 900 c 0
 585 890 579 881 572 874 c 0
 529 828 484 802 442 802 c 0
 415 802 383 816 349 840 c 0
 329 854 308 861 293 861 c 0
 281 861 266 854 249 839 c 0
 241 831 231 825 220 825 c 0
 207 825 196 835 188 841 c 0
 180 847 175 855 175 865 c 0
EndSplineSet
EndChar

StartChar: Adieresis
Encoding: 196 196 132
Width: 575
GlyphClass: 2
Flags: W
LayerCount: 2
Fore
SplineSet
75 27 m 2
 68 9 53 0 34 0 c 2
 -1 0 l 2
 -8 0 -15 1 -20 5 c 0
 -27 10 -31 17 -31 25 c 0
 -31 30 -29 36 -27 41 c 2
 215 617 l 2
 240 677 292 710 355 710 c 0
 417 710 473 678 479 615 c 2
 533 38 l 1
 533 33 l 2
 533 13 517 0 497 0 c 2
 461 0 l 2
 453 0 445 1 439 6 c 0
 431 12 428 20 427 30 c 2
 410 210 l 1
 154 210 l 1
 75 27 l 2
374 597 m 2
 373 608 363 614 349 614 c 0
 334 614 319 606 315 594 c 2
 193 306 l 1
 401 306 l 1
 374 597 l 2
273 920 m 2
 308 920 l 2
 316 920 323 918 329 914 c 0
 337 909 340 901 340 892 c 0
 340 889 340 886 339 883 c 0
 337 868 335 852 332 837 c 0
 330 828 328 821 322 815 c 0
 315 807 304 804 293 804 c 2
 258 804 l 2
 250 804 244 806 238 810 c 0
 230 815 226 824 226 833 c 0
 226 836 227 838 227 841 c 0
 229 856 231 872 234 887 c 0
 238 907 252 920 273 920 c 2
480 920 m 2
 515 920 l 2
 523 920 529 918 535 914 c 0
 543 909 547 900 547 891 c 0
 547 888 546 886 546 883 c 0
 544 868 542 852 539 837 c 0
 537 826 532 817 523 811 c 0
 516 806 509 804 500 804 c 2
 465 804 l 2
 457 804 450 806 444 810 c 0
 436 815 433 823 433 832 c 0
 433 835 433 838 434 841 c 0
 436 856 438 872 441 887 c 0
 445 907 459 920 480 920 c 2
EndSplineSet
EndChar

StartChar: Aring
Encoding: 197 197 133
Width: 575
GlyphClass: 2
Flags: W
LayerCount: 2
Fore
SplineSet
75 27 m 2
 68 9 53 0 34 0 c 2
 -1 0 l 2
 -8 0 -15 1 -20 5 c 0
 -27 10 -31 17 -31 25 c 0
 -31 30 -29 36 -27 41 c 2
 215 617 l 2
 240 677 292 710 355 710 c 0
 417 710 473 678 479 615 c 2
 533 38 l 1
 533 33 l 2
 533 13 517 0 497 0 c 2
 461 0 l 2
 453 0 445 1 439 6 c 0
 431 12 428 20 427 30 c 2
 410 210 l 1
 154 210 l 1
 75 27 l 2
374 597 m 2
 373 608 363 614 349 614 c 0
 334 614 319 606 315 594 c 2
 193 306 l 1
 401 306 l 1
 374 597 l 2
371 753 m 0
 343 753 319 759 301 771 c 0
 278 787 266 812 266 842 c 0
 266 848 266 855 267 861 c 0
 277 925 330 965 401 965 c 0
 429 965 453 959 471 947 c 0
 494 931 506 906 506 876 c 0
 506 870 506 863 505 857 c 0
 495 793 442 753 371 753 c 0
381 834 m 0
 396 834 405 844 408 861 c 0
 408 864 409 866 409 868 c 0
 409 875 407 879 404 881 c 0
 402 883 398 884 392 884 c 0
 377 884 366 875 363 857 c 2
 363 852 l 2
 363 840 368 834 381 834 c 0
EndSplineSet
EndChar

StartChar: AE
Encoding: 198 198 134
Width: 575
GlyphClass: 2
Flags: W
AnchorPoint: "Anchor-1" 360 700 basechar 0
LayerCount: 2
Fore
SplineSet
358 97 m 1
 466 97 l 2
 474 97 481 95 487 91 c 0
 495 85 497 77 497 68 c 2
 497 60 l 1
 492 33 l 2
 491 22 486 13 477 7 c 0
 470 2 462 0 453 0 c 2
 273 0 l 2
 265 0 258 2 252 6 c 0
 245 11 242 19 242 28 c 2
 242 35 l 1
 263 160 l 1
 133 160 l 1
 75 27 l 2
 68 9 52 0 34 0 c 2
 -1 0 l 2
 -8 0 -15 1 -20 5 c 0
 -27 10 -31 17 -31 25 c 0
 -31 30 -29 36 -27 41 c 2
 215 617 l 2
 241 678 292 700 359 700 c 2
 553 700 l 2
 560 700 567 699 573 695 c 0
 581 690 585 681 585 672 c 0
 585 669 584 666 584 663 c 2
 580 638 l 2
 578 618 563 604 541 604 c 2
 441 604 l 1
 409 413 l 1
 499 413 l 2
 507 413 513 411 519 407 c 0
 527 402 531 393 531 384 c 0
 531 381 530 379 530 376 c 0
 529 367 528 358 526 349 c 0
 522 329 508 316 487 316 c 2
 394 316 l 1
 358 97 l 1
315 603 m 2
 172 256 l 1
 278 256 l 1
 337 623 l 1
 326 620 318 612 315 603 c 2
EndSplineSet
EndChar

StartChar: Ccedilla
Encoding: 199 199 135
Width: 575
GlyphClass: 2
Flags: W
LayerCount: 2
Fore
SplineSet
203 387 m 0
 186 287 182 256 182 222 c 0
 182 156 203 120 230 100 c 0
 252 84 280 78 308 78 c 0
 337 78 374 84 419 100 c 0
 424 102 434 103 434 103 c 2
 448 103 459 93 462 79 c 2
 468 56 l 2
 469 52 469 48 469 44 c 0
 469 28 460 17 444 11 c 0
 397 -8 302 -20 297 -20 c 2
 282 -20 l 1
 282 -21 282 -21 281 -22 c 2
 261 -54 l 1
 276 -52 302 -51 303 -51 c 0
 375 -51 414 -84 414 -129 c 0
 414 -156 400 -179 379 -198 c 0
 337 -235 264 -256 197 -256 c 0
 171 -256 146 -252 118 -245 c 0
 105 -241 96 -230 96 -217 c 0
 96 -206 103 -195 107 -187 c 0
 114 -172 127 -164 142 -164 c 0
 145 -164 149 -164 152 -165 c 0
 171 -169 193 -171 208 -171 c 0
 233 -171 259 -166 276 -158 c 0
 290 -151 295 -145 295 -140 c 0
 295 -138 292 -129 264 -129 c 0
 257 -129 247 -130 237 -131 c 0
 234 -131 231 -132 228 -132 c 0
 217 -132 205 -127 197 -117 c 2
 173 -88 l 2
 168 -82 165 -74 165 -66 c 0
 165 -58 168 -51 173 -43 c 2
 198 -2 l 1
 185 3 172 10 160 18 c 0
 109 53 75 115 75 211 c 0
 75 250 80 283 97 390 c 0
 138 638 290 710 413 710 c 0
 459 710 505 699 550 679 c 0
 561 674 569 665 569 653 c 0
 569 646 567 639 563 632 c 2
 549 608 l 2
 542 595 531 587 517 587 c 0
 512 587 507 588 502 590 c 0
 461 606 405 611 399 612 c 0
 357 612 311 599 273 557 c 0
 242 523 217 470 203 387 c 0
EndSplineSet
EndChar

StartChar: Egrave
Encoding: 200 200 136
Width: 575
GlyphClass: 2
Flags: W
LayerCount: 2
Fore
SplineSet
155 97 m 1
 464 97 l 2
 472 97 479 95 485 91 c 0
 493 86 496 78 496 69 c 0
 496 66 496 63 495 60 c 0
 494 51 493 42 491 33 c 0
 489 22 484 13 475 7 c 0
 468 2 461 0 452 0 c 2
 70 0 l 2
 62 0 55 2 49 6 c 0
 41 11 38 19 38 28 c 0
 38 31 38 33 39 36 c 2
 142 667 l 2
 144 678 149 687 158 693 c 0
 165 698 172 700 181 700 c 2
 540 700 l 2
 548 700 555 698 561 694 c 0
 569 689 572 681 572 672 c 0
 572 669 572 666 571 663 c 0
 570 654 569 646 567 637 c 0
 565 626 560 617 551 611 c 0
 544 606 537 604 528 604 c 2
 238 604 l 1
 206 413 l 1
 472 413 l 2
 480 413 487 411 493 407 c 0
 501 402 504 394 504 385 c 0
 504 382 504 379 503 376 c 0
 502 367 501 358 499 349 c 0
 497 338 492 329 483 323 c 0
 476 318 469 316 460 316 c 2
 191 316 l 1
 155 97 l 1
276 964 m 0
 282 964 288 963 294 960 c 2
 487 859 l 2
 498 854 505 845 505 833 c 0
 505 826 503 818 499 812 c 0
 495 806 491 799 487 793 c 0
 478 782 467 774 454 774 c 0
 449 774 445 775 441 777 c 2
 230 852 l 2
 218 856 209 865 209 878 c 0
 209 885 212 891 216 898 c 2
 245 944 l 2
 252 956 263 964 276 964 c 0
EndSplineSet
EndChar

StartChar: Eacute
Encoding: 201 201 137
Width: 575
GlyphClass: 2
Flags: W
LayerCount: 2
Fore
SplineSet
155 97 m 1
 464 97 l 2
 472 97 479 95 485 91 c 0
 493 86 496 78 496 69 c 0
 496 66 496 63 495 60 c 0
 494 51 493 42 491 33 c 0
 489 22 484 13 475 7 c 0
 468 2 461 0 452 0 c 2
 70 0 l 2
 62 0 55 2 49 6 c 0
 41 11 38 19 38 28 c 0
 38 31 38 33 39 36 c 2
 142 667 l 2
 144 678 149 687 158 693 c 0
 165 698 172 700 181 700 c 2
 540 700 l 2
 548 700 555 698 561 694 c 0
 569 689 572 681 572 672 c 0
 572 669 572 666 571 663 c 0
 570 654 569 646 567 637 c 0
 565 626 560 617 551 611 c 0
 544 606 537 604 528 604 c 2
 238 604 l 1
 206 413 l 1
 472 413 l 2
 480 413 487 411 493 407 c 0
 501 402 504 394 504 385 c 0
 504 382 504 379 503 376 c 0
 502 367 501 358 499 349 c 0
 497 338 492 329 483 323 c 0
 476 318 469 316 460 316 c 2
 191 316 l 1
 155 97 l 1
257 824 m 0
 257 840 267 852 283 859 c 2
 509 960 l 2
 515 963 520 964 526 964 c 0
 539 964 550 955 554 942 c 2
 567 896 l 2
 568 892 569 888 569 884 c 0
 569 868 557 856 541 851 c 2
 309 776 l 2
 304 774 299 774 294 774 c 0
 280 774 269 783 265 796 c 0
 263 802 260 808 258 814 c 0
 257 817 257 821 257 824 c 0
EndSplineSet
EndChar

StartChar: Ecircumflex
Encoding: 202 202 138
Width: 575
GlyphClass: 2
Flags: W
LayerCount: 2
Fore
SplineSet
155 97 m 1
 464 97 l 2
 472 97 479 95 485 91 c 0
 493 86 496 78 496 69 c 0
 496 66 496 63 495 60 c 0
 494 51 493 42 491 33 c 0
 489 22 484 13 475 7 c 0
 468 2 461 0 452 0 c 2
 70 0 l 2
 62 0 55 2 49 6 c 0
 41 11 38 19 38 28 c 0
 38 31 38 33 39 36 c 2
 142 667 l 2
 144 678 149 687 158 693 c 0
 165 698 172 700 181 700 c 2
 540 700 l 2
 548 700 555 698 561 694 c 0
 569 689 572 681 572 672 c 0
 572 669 572 666 571 663 c 0
 570 654 569 646 567 637 c 0
 565 626 560 617 551 611 c 0
 544 606 537 604 528 604 c 2
 238 604 l 1
 206 413 l 1
 472 413 l 2
 480 413 487 411 493 407 c 0
 501 402 504 394 504 385 c 0
 504 382 504 379 503 376 c 0
 502 367 501 358 499 349 c 0
 497 338 492 329 483 323 c 0
 476 318 469 316 460 316 c 2
 191 316 l 1
 155 97 l 1
238 786 m 0
 227 786 217 793 210 802 c 2
 198 826 l 2
 195 832 193 838 193 844 c 0
 193 857 202 868 214 875 c 2
 329 941 l 2
 353 955 375 965 401 965 c 0
 427 965 450 953 468 940 c 2
 561 874 l 2
 569 868 575 860 575 850 c 0
 575 841 570 832 563 824 c 2
 543 801 l 2
 535 792 526 786 515 786 c 0
 508 786 500 789 494 794 c 2
 403 866 l 2
 401 867 400 868 399 869 c 0
 395 872 395 873 390 873 c 0
 385 873 383 872 377 868 c 0
 376 867 374 866 372 865 c 2
 259 794 l 2
 252 790 246 786 238 786 c 0
EndSplineSet
EndChar

StartChar: Edieresis
Encoding: 203 203 139
Width: 575
GlyphClass: 2
Flags: W
LayerCount: 2
Fore
SplineSet
155 97 m 1
 464 97 l 2
 472 97 479 95 485 91 c 0
 493 86 496 78 496 69 c 0
 496 66 496 63 495 60 c 0
 494 51 493 42 491 33 c 0
 489 22 484 13 475 7 c 0
 468 2 461 0 452 0 c 2
 70 0 l 2
 62 0 55 2 49 6 c 0
 41 11 38 19 38 28 c 0
 38 31 38 33 39 36 c 2
 142 667 l 2
 144 678 149 687 158 693 c 0
 165 698 172 700 181 700 c 2
 540 700 l 2
 548 700 555 698 561 694 c 0
 569 689 572 681 572 672 c 0
 572 669 572 666 571 663 c 0
 570 654 569 646 567 637 c 0
 565 626 560 617 551 611 c 0
 544 606 537 604 528 604 c 2
 238 604 l 1
 206 413 l 1
 472 413 l 2
 480 413 487 411 493 407 c 0
 501 402 504 394 504 385 c 0
 504 382 504 379 503 376 c 0
 502 367 501 358 499 349 c 0
 497 338 492 329 483 323 c 0
 476 318 469 316 460 316 c 2
 191 316 l 1
 155 97 l 1
273 920 m 2
 308 920 l 2
 316 920 323 918 329 914 c 0
 337 909 340 901 340 892 c 0
 340 889 340 886 339 883 c 0
 337 868 335 852 332 837 c 0
 330 828 328 821 322 815 c 0
 315 807 304 804 293 804 c 2
 258 804 l 2
 250 804 244 806 238 810 c 0
 230 815 226 824 226 833 c 0
 226 836 227 838 227 841 c 0
 229 856 231 872 234 887 c 0
 238 907 252 920 273 920 c 2
480 920 m 2
 515 920 l 2
 523 920 529 918 535 914 c 0
 543 909 547 900 547 891 c 0
 547 888 546 886 546 883 c 0
 544 868 542 852 539 837 c 0
 537 826 532 817 523 811 c 0
 516 806 509 804 500 804 c 2
 465 804 l 2
 457 804 450 806 444 810 c 0
 436 815 433 823 433 832 c 0
 433 835 433 838 434 841 c 0
 436 856 438 872 441 887 c 0
 445 907 459 920 480 920 c 2
EndSplineSet
EndChar

StartChar: Igrave
Encoding: 204 204 140
Width: 575
GlyphClass: 2
Flags: W
LayerCount: 2
Fore
SplineSet
168 693 m 0
 175 698 182 700 191 700 c 2
 526 700 l 2
 534 700 541 698 547 694 c 0
 555 689 558 681 558 672 c 0
 558 669 558 666 557 663 c 0
 556 654 555 646 553 637 c 0
 551 626 546 617 537 611 c 0
 530 606 523 604 514 604 c 2
 398 604 l 1
 315 97 l 1
 438 97 l 2
 446 97 453 95 459 91 c 0
 467 86 470 78 470 69 c 0
 470 66 470 63 469 60 c 0
 468 51 467 42 465 33 c 0
 463 22 458 13 449 7 c 0
 442 2 435 0 426 0 c 2
 71 0 l 2
 63 0 56 2 50 6 c 0
 42 11 39 19 39 28 c 0
 39 31 39 34 40 37 c 0
 41 46 42 55 44 64 c 0
 46 75 51 84 60 90 c 0
 67 95 74 97 83 97 c 2
 209 97 l 1
 292 604 l 1
 179 604 l 2
 171 604 164 606 158 610 c 0
 150 615 147 623 147 632 c 0
 147 635 147 638 148 641 c 0
 149 650 150 658 152 667 c 0
 154 678 159 687 168 693 c 0
276 964 m 0
 282 964 288 963 294 960 c 2
 487 859 l 2
 498 854 505 845 505 833 c 0
 505 826 503 818 499 812 c 0
 495 806 491 799 487 793 c 0
 478 782 467 774 454 774 c 0
 449 774 445 775 441 777 c 2
 230 852 l 2
 218 856 209 865 209 878 c 0
 209 885 212 891 216 898 c 2
 245 944 l 2
 252 956 263 964 276 964 c 0
EndSplineSet
EndChar

StartChar: Iacute
Encoding: 205 205 141
Width: 575
GlyphClass: 2
Flags: W
LayerCount: 2
Fore
SplineSet
168 693 m 0
 175 698 182 700 191 700 c 2
 526 700 l 2
 534 700 541 698 547 694 c 0
 555 689 558 681 558 672 c 0
 558 669 558 666 557 663 c 0
 556 654 555 646 553 637 c 0
 551 626 546 617 537 611 c 0
 530 606 523 604 514 604 c 2
 398 604 l 1
 315 97 l 1
 438 97 l 2
 446 97 453 95 459 91 c 0
 467 86 470 78 470 69 c 0
 470 66 470 63 469 60 c 0
 468 51 467 42 465 33 c 0
 463 22 458 13 449 7 c 0
 442 2 435 0 426 0 c 2
 71 0 l 2
 63 0 56 2 50 6 c 0
 42 11 39 19 39 28 c 0
 39 31 39 34 40 37 c 0
 41 46 42 55 44 64 c 0
 46 75 51 84 60 90 c 0
 67 95 74 97 83 97 c 2
 209 97 l 1
 292 604 l 1
 179 604 l 2
 171 604 164 606 158 610 c 0
 150 615 147 623 147 632 c 0
 147 635 147 638 148 641 c 0
 149 650 150 658 152 667 c 0
 154 678 159 687 168 693 c 0
257 824 m 0
 257 840 267 852 283 859 c 2
 509 960 l 2
 515 963 520 964 526 964 c 0
 539 964 550 955 554 942 c 2
 567 896 l 2
 568 892 569 888 569 884 c 0
 569 868 557 856 541 851 c 2
 309 776 l 2
 304 774 299 774 294 774 c 0
 280 774 269 783 265 796 c 0
 263 802 260 808 258 814 c 0
 257 817 257 821 257 824 c 0
EndSplineSet
EndChar

StartChar: Icircumflex
Encoding: 206 206 142
Width: 575
GlyphClass: 2
Flags: W
LayerCount: 2
Fore
SplineSet
168 693 m 0
 175 698 182 700 191 700 c 2
 526 700 l 2
 534 700 541 698 547 694 c 0
 555 689 558 681 558 672 c 0
 558 669 558 666 557 663 c 0
 556 654 555 646 553 637 c 0
 551 626 546 617 537 611 c 0
 530 606 523 604 514 604 c 2
 398 604 l 1
 315 97 l 1
 438 97 l 2
 446 97 453 95 459 91 c 0
 467 86 470 78 470 69 c 0
 470 66 470 63 469 60 c 0
 468 51 467 42 465 33 c 0
 463 22 458 13 449 7 c 0
 442 2 435 0 426 0 c 2
 71 0 l 2
 63 0 56 2 50 6 c 0
 42 11 39 19 39 28 c 0
 39 31 39 34 40 37 c 0
 41 46 42 55 44 64 c 0
 46 75 51 84 60 90 c 0
 67 95 74 97 83 97 c 2
 209 97 l 1
 292 604 l 1
 179 604 l 2
 171 604 164 606 158 610 c 0
 150 615 147 623 147 632 c 0
 147 635 147 638 148 641 c 0
 149 650 150 658 152 667 c 0
 154 678 159 687 168 693 c 0
238 786 m 0
 227 786 217 793 210 802 c 2
 198 826 l 2
 195 832 193 838 193 844 c 0
 193 857 202 868 214 875 c 2
 329 941 l 2
 353 955 375 965 401 965 c 0
 427 965 450 953 468 940 c 2
 561 874 l 2
 569 868 575 860 575 850 c 0
 575 841 570 832 563 824 c 2
 543 801 l 2
 535 792 526 786 515 786 c 0
 508 786 500 789 494 794 c 2
 403 866 l 2
 401 867 400 868 399 869 c 0
 395 872 395 873 390 873 c 0
 385 873 383 872 377 868 c 0
 376 867 374 866 372 865 c 2
 259 794 l 2
 252 790 246 786 238 786 c 0
EndSplineSet
EndChar

StartChar: Idieresis
Encoding: 207 207 143
Width: 575
GlyphClass: 2
Flags: W
LayerCount: 2
Fore
SplineSet
168 693 m 0
 175 698 182 700 191 700 c 2
 526 700 l 2
 534 700 541 698 547 694 c 0
 555 689 558 681 558 672 c 0
 558 669 558 666 557 663 c 0
 556 654 555 646 553 637 c 0
 551 626 546 617 537 611 c 0
 530 606 523 604 514 604 c 2
 398 604 l 1
 315 97 l 1
 438 97 l 2
 446 97 453 95 459 91 c 0
 467 86 470 78 470 69 c 0
 470 66 470 63 469 60 c 0
 468 51 467 42 465 33 c 0
 463 22 458 13 449 7 c 0
 442 2 435 0 426 0 c 2
 71 0 l 2
 63 0 56 2 50 6 c 0
 42 11 39 19 39 28 c 0
 39 31 39 34 40 37 c 0
 41 46 42 55 44 64 c 0
 46 75 51 84 60 90 c 0
 67 95 74 97 83 97 c 2
 209 97 l 1
 292 604 l 1
 179 604 l 2
 171 604 164 606 158 610 c 0
 150 615 147 623 147 632 c 0
 147 635 147 638 148 641 c 0
 149 650 150 658 152 667 c 0
 154 678 159 687 168 693 c 0
273 920 m 2
 308 920 l 2
 316 920 323 918 329 914 c 0
 337 909 340 901 340 892 c 0
 340 889 340 886 339 883 c 0
 337 868 335 852 332 837 c 0
 330 828 328 821 322 815 c 0
 315 807 304 804 293 804 c 2
 258 804 l 2
 250 804 244 806 238 810 c 0
 230 815 226 824 226 833 c 0
 226 836 227 838 227 841 c 0
 229 856 231 872 234 887 c 0
 238 907 252 920 273 920 c 2
480 920 m 2
 515 920 l 2
 523 920 529 918 535 914 c 0
 543 909 547 900 547 891 c 0
 547 888 546 886 546 883 c 0
 544 868 542 852 539 837 c 0
 537 826 532 817 523 811 c 0
 516 806 509 804 500 804 c 2
 465 804 l 2
 457 804 450 806 444 810 c 0
 436 815 433 823 433 832 c 0
 433 835 433 838 434 841 c 0
 436 856 438 872 441 887 c 0
 445 907 459 920 480 920 c 2
EndSplineSet
EndChar

StartChar: Eth
Encoding: 208 208 144
Width: 575
GlyphClass: 2
Flags: W
LayerCount: 2
Fore
SplineSet
123 700 m 2
 175 700 l 2
 377 700 546 657 546 470 c 0
 546 430 542 402 528 319 c 0
 509 200 468 115 391 62 c 0
 329 20 246 0 133 0 c 2
 79 0 l 2
 60 0 45 12 45 30 c 0
 45 32 46 35 46 37 c 2
 89 302 l 1
 68 302 l 2
 60 302 54 304 48 308 c 0
 40 313 36 322 36 331 c 0
 36 334 37 336 37 339 c 0
 40 358 41 376 52 388 c 0
 59 396 69 399 80 399 c 2
 105 399 l 1
 139 604 l 1
 115 604 l 2
 96 604 81 616 81 635 c 0
 81 637 82 640 82 643 c 0
 85 664 86 684 101 694 c 0
 108 698 115 700 123 700 c 2
330 335 m 0
 326 315 312 302 291 302 c 2
 196 302 l 1
 162 86 l 1
 257 90 317 111 357 156 c 0
 391 194 411 252 424 334 c 0
 439 422 441 442 441 473 c 0
 441 525 425 558 386 580 c 0
 356 597 310 608 245 612 c 1
 211 399 l 1
 303 399 l 2
 311 399 317 397 323 393 c 0
 331 388 335 379 335 370 c 0
 335 367 334 365 334 362 c 0
 333 353 332 344 330 335 c 0
EndSplineSet
EndChar

StartChar: Ntilde
Encoding: 209 209 145
Width: 575
GlyphClass: 2
Flags: W
LayerCount: 2
Fore
SplineSet
480 666 m 2
 483 686 499 700 519 700 c 2
 554 700 l 2
 562 700 568 699 574 695 c 0
 582 690 586 682 586 673 c 0
 586 670 586 668 585 665 c 2
 480 33 l 2
 478 22 473 13 464 7 c 0
 457 2 450 0 441 0 c 2
 423 0 l 2
 389 0 370 17 361 43 c 2
 202 496 l 1
 129 33 l 2
 127 22 122 13 113 7 c 0
 106 2 99 0 90 0 c 2
 55 0 l 2
 47 0 40 2 34 6 c 0
 26 11 23 19 23 28 c 0
 23 31 23 33 24 36 c 2
 127 667 l 2
 129 678 134 687 143 693 c 0
 150 698 157 700 166 700 c 2
 186 700 l 2
 220 700 239 684 248 657 c 2
 405 200 l 1
 480 666 l 2
175 865 m 0
 175 874 180 883 187 891 c 0
 229 936 274 963 317 963 c 0
 344 963 377 949 410 924 c 0
 430 910 456 905 461 903 c 0
 477 903 494 910 511 926 c 0
 519 935 528 940 539 940 c 0
 546 940 554 938 560 933 c 2
 571 924 l 2
 579 918 585 910 585 900 c 0
 585 890 579 881 572 874 c 0
 529 828 484 802 442 802 c 0
 415 802 383 816 349 840 c 0
 329 854 308 861 293 861 c 0
 281 861 266 854 249 839 c 0
 241 831 231 825 220 825 c 0
 207 825 196 835 188 841 c 0
 180 847 175 855 175 865 c 0
EndSplineSet
EndChar

StartChar: Ograve
Encoding: 210 210 146
Width: 575
GlyphClass: 2
Flags: W
LayerCount: 2
Fore
SplineSet
101 456 m 0
 128 622 232 710 356 710 c 0
 463 710 545 641 545 514 c 0
 545 485 542 465 527 373 c 0
 522 340 515 298 506 244 c 0
 479 80 376 -10 252 -10 c 0
 151 -10 67 51 62 167 c 1
 62 182 l 2
 62 220 68 257 88 376 c 0
 92 399 96 426 101 456 c 0
169 179 m 0
 176 118 219 87 264 87 c 0
 322 87 383 142 401 248 c 0
 406 279 411 306 415 329 c 0
 435 451 439 476 439 497 c 0
 439 574 393 614 344 614 c 0
 286 614 224 558 206 452 c 0
 200 413 194 380 189 353 c 0
 173 257 168 224 168 199 c 0
 168 192 168 186 169 179 c 0
276 964 m 0
 282 964 288 963 294 960 c 2
 487 859 l 2
 498 854 505 845 505 833 c 0
 505 826 503 818 499 812 c 0
 495 806 491 799 487 793 c 0
 478 782 467 774 454 774 c 0
 449 774 445 775 441 777 c 2
 230 852 l 2
 218 856 209 865 209 878 c 0
 209 885 212 891 216 898 c 2
 245 944 l 2
 252 956 263 964 276 964 c 0
EndSplineSet
EndChar

StartChar: Oacute
Encoding: 211 211 147
Width: 575
GlyphClass: 2
Flags: W
LayerCount: 2
Fore
SplineSet
101 456 m 0
 128 622 232 710 356 710 c 0
 463 710 545 641 545 514 c 0
 545 485 542 465 527 373 c 0
 522 340 515 298 506 244 c 0
 479 80 376 -10 252 -10 c 0
 151 -10 67 51 62 167 c 1
 62 182 l 2
 62 220 68 257 88 376 c 0
 92 399 96 426 101 456 c 0
169 179 m 0
 176 118 219 87 264 87 c 0
 322 87 383 142 401 248 c 0
 406 279 411 306 415 329 c 0
 435 451 439 476 439 497 c 0
 439 574 393 614 344 614 c 0
 286 614 224 558 206 452 c 0
 200 413 194 380 189 353 c 0
 173 257 168 224 168 199 c 0
 168 192 168 186 169 179 c 0
257 824 m 0
 257 840 267 852 283 859 c 2
 509 960 l 2
 515 963 520 964 526 964 c 0
 539 964 550 955 554 942 c 2
 567 896 l 2
 568 892 569 888 569 884 c 0
 569 868 557 856 541 851 c 2
 309 776 l 2
 304 774 299 774 294 774 c 0
 280 774 269 783 265 796 c 0
 263 802 260 808 258 814 c 0
 257 817 257 821 257 824 c 0
EndSplineSet
EndChar

StartChar: Ocircumflex
Encoding: 212 212 148
Width: 575
GlyphClass: 2
Flags: W
LayerCount: 2
Fore
SplineSet
101 456 m 0
 128 622 232 710 356 710 c 0
 463 710 545 641 545 514 c 0
 545 485 542 465 527 373 c 0
 522 340 515 298 506 244 c 0
 479 80 376 -10 252 -10 c 0
 151 -10 67 51 62 167 c 1
 62 182 l 2
 62 220 68 257 88 376 c 0
 92 399 96 426 101 456 c 0
169 179 m 0
 176 118 219 87 264 87 c 0
 322 87 383 142 401 248 c 0
 406 279 411 306 415 329 c 0
 435 451 439 476 439 497 c 0
 439 574 393 614 344 614 c 0
 286 614 224 558 206 452 c 0
 200 413 194 380 189 353 c 0
 173 257 168 224 168 199 c 0
 168 192 168 186 169 179 c 0
238 786 m 0
 227 786 217 793 210 802 c 2
 198 826 l 2
 195 832 193 838 193 844 c 0
 193 857 202 868 214 875 c 2
 329 941 l 2
 353 955 375 965 401 965 c 0
 427 965 450 953 468 940 c 2
 561 874 l 2
 569 868 575 860 575 850 c 0
 575 841 570 832 563 824 c 2
 543 801 l 2
 535 792 526 786 515 786 c 0
 508 786 500 789 494 794 c 2
 403 866 l 2
 401 867 400 868 399 869 c 0
 395 872 395 873 390 873 c 0
 385 873 383 872 377 868 c 0
 376 867 374 866 372 865 c 2
 259 794 l 2
 252 790 246 786 238 786 c 0
EndSplineSet
EndChar

StartChar: Otilde
Encoding: 213 213 149
Width: 575
GlyphClass: 2
Flags: W
LayerCount: 2
Fore
SplineSet
101 456 m 0
 128 622 232 710 356 710 c 0
 463 710 545 641 545 514 c 0
 545 485 542 465 527 373 c 0
 522 340 515 298 506 244 c 0
 479 80 376 -10 252 -10 c 0
 151 -10 67 51 62 167 c 1
 62 182 l 2
 62 220 68 257 88 376 c 0
 92 399 96 426 101 456 c 0
169 179 m 0
 176 118 219 87 264 87 c 0
 322 87 383 142 401 248 c 0
 406 279 411 306 415 329 c 0
 435 451 439 476 439 497 c 0
 439 574 393 614 344 614 c 0
 286 614 224 558 206 452 c 0
 200 413 194 380 189 353 c 0
 173 257 168 224 168 199 c 0
 168 192 168 186 169 179 c 0
175 865 m 0
 175 874 180 883 187 891 c 0
 229 936 274 963 317 963 c 0
 344 963 377 949 410 924 c 0
 430 910 456 905 461 903 c 0
 477 903 494 910 511 926 c 0
 519 935 528 940 539 940 c 0
 546 940 554 938 560 933 c 2
 571 924 l 2
 579 918 585 910 585 900 c 0
 585 890 579 881 572 874 c 0
 529 828 484 802 442 802 c 0
 415 802 383 816 349 840 c 0
 329 854 308 861 293 861 c 0
 281 861 266 854 249 839 c 0
 241 831 231 825 220 825 c 0
 207 825 196 835 188 841 c 0
 180 847 175 855 175 865 c 0
EndSplineSet
EndChar

StartChar: Odieresis
Encoding: 214 214 150
Width: 575
GlyphClass: 2
Flags: W
LayerCount: 2
Fore
SplineSet
101 456 m 0
 128 622 232 710 356 710 c 0
 463 710 545 641 545 514 c 0
 545 485 542 465 527 373 c 0
 522 340 515 298 506 244 c 0
 479 80 376 -10 252 -10 c 0
 151 -10 67 51 62 167 c 1
 62 182 l 2
 62 220 68 257 88 376 c 0
 92 399 96 426 101 456 c 0
169 179 m 0
 176 118 219 87 264 87 c 0
 322 87 383 142 401 248 c 0
 406 279 411 306 415 329 c 0
 435 451 439 476 439 497 c 0
 439 574 393 614 344 614 c 0
 286 614 224 558 206 452 c 0
 200 413 194 380 189 353 c 0
 173 257 168 224 168 199 c 0
 168 192 168 186 169 179 c 0
273 920 m 2
 308 920 l 2
 316 920 323 918 329 914 c 0
 337 909 340 901 340 892 c 0
 340 889 340 886 339 883 c 0
 337 868 335 852 332 837 c 0
 330 828 328 821 322 815 c 0
 315 807 304 804 293 804 c 2
 258 804 l 2
 250 804 244 806 238 810 c 0
 230 815 226 824 226 833 c 0
 226 836 227 838 227 841 c 0
 229 856 231 872 234 887 c 0
 238 907 252 920 273 920 c 2
480 920 m 2
 515 920 l 2
 523 920 529 918 535 914 c 0
 543 909 547 900 547 891 c 0
 547 888 546 886 546 883 c 0
 544 868 542 852 539 837 c 0
 537 826 532 817 523 811 c 0
 516 806 509 804 500 804 c 2
 465 804 l 2
 457 804 450 806 444 810 c 0
 436 815 433 823 433 832 c 0
 433 835 433 838 434 841 c 0
 436 856 438 872 441 887 c 0
 445 907 459 920 480 920 c 2
EndSplineSet
EndChar

StartChar: multiply
Encoding: 215 215 151
Width: 575
GlyphClass: 2
Flags: W
LayerCount: 2
Fore
SplineSet
545 478 m 0
 545 467 540 457 531 449 c 2
 382 312 l 1
 487 176 l 2
 491 170 494 162 494 155 c 0
 494 145 489 136 481 128 c 2
 453 103 l 2
 446 96 437 92 428 92 c 0
 419 92 411 97 406 104 c 2
 303 238 l 1
 155 103 l 2
 148 96 139 92 130 92 c 0
 121 92 112 96 106 104 c 2
 92 123 l 2
 87 129 85 136 85 144 c 0
 85 154 89 164 98 172 c 2
 247 309 l 1
 143 445 l 2
 139 451 136 459 136 466 c 0
 136 476 141 485 149 493 c 2
 177 518 l 2
 184 525 193 529 202 529 c 0
 211 529 219 524 224 517 c 2
 327 383 l 1
 475 518 l 2
 482 525 491 529 500 529 c 0
 509 529 518 525 524 517 c 2
 538 498 l 2
 542 492 545 485 545 478 c 0
EndSplineSet
EndChar

StartChar: Oslash
Encoding: 216 216 152
Width: 575
GlyphClass: 2
Flags: W
LayerCount: 2
Fore
SplineSet
11 -41 m 2
 85 78 l 1
 69 106 62 139 62 181 c 0
 62 219 68 257 88 376 c 0
 92 399 96 425 101 455 c 0
 128 621 232 710 356 710 c 0
 396 710 433 700 464 680 c 1
 517 767 l 2
 524 778 535 786 547 786 c 0
 553 786 558 785 563 782 c 2
 586 769 l 2
 596 763 602 754 602 743 c 0
 602 736 600 729 596 722 c 2
 526 611 l 1
 539 584 545 552 545 515 c 0
 545 486 542 465 527 373 c 0
 522 340 515 298 506 244 c 0
 479 80 376 -10 252 -10 c 0
 215 -10 180 -2 150 15 c 1
 88 -86 l 2
 81 -97 71 -105 59 -105 c 0
 53 -105 48 -104 43 -101 c 2
 20 -88 l 2
 10 -82 4 -72 4 -61 c 0
 4 -54 7 -48 11 -41 c 2
189 343 m 0
 175 259 170 222 168 197 c 1
 407 586 l 1
 390 604 353 610 344 614 c 1
 286 614 224 555 206 445 c 0
 200 405 194 371 189 343 c 0
401 255 m 0
 411 318 434 456 437 482 c 1
 207 107 l 1
 223 94 258 89 264 87 c 0
 322 87 383 145 401 255 c 0
EndSplineSet
EndChar

StartChar: Ugrave
Encoding: 217 217 153
Width: 575
GlyphClass: 2
Flags: W
LayerCount: 2
Fore
SplineSet
430 53 m 0
 386 8 326 -10 259 -10 c 0
 143 -10 57 41 57 157 c 0
 57 176 59 196 62 218 c 2
 135 667 l 2
 137 678 142 687 151 693 c 0
 158 698 165 700 174 700 c 2
 209 700 l 2
 217 700 224 698 230 694 c 0
 238 689 241 681 241 672 c 0
 241 669 241 667 240 664 c 2
 167 217 l 2
 164 197 162 167 162 166 c 0
 162 132 176 112 198 100 c 0
 216 90 241 86 271 86 c 0
 316 86 343 96 362 121 c 0
 378 141 389 173 396 220 c 2
 469 668 l 2
 471 679 476 687 485 693 c 0
 492 698 499 700 508 700 c 2
 543 700 l 2
 551 700 558 698 564 694 c 0
 572 689 575 681 575 672 c 0
 575 669 575 667 574 664 c 2
 501 215 l 2
 489 142 465 89 430 53 c 0
276 964 m 0
 282 964 288 963 294 960 c 2
 487 859 l 2
 498 854 505 845 505 833 c 0
 505 826 503 818 499 812 c 0
 495 806 491 799 487 793 c 0
 478 782 467 774 454 774 c 0
 449 774 445 775 441 777 c 2
 230 852 l 2
 218 856 209 865 209 878 c 0
 209 885 212 891 216 898 c 2
 245 944 l 2
 252 956 263 964 276 964 c 0
EndSplineSet
EndChar

StartChar: Uacute
Encoding: 218 218 154
Width: 575
GlyphClass: 2
Flags: W
LayerCount: 2
Fore
SplineSet
430 53 m 0
 386 8 326 -10 259 -10 c 0
 143 -10 57 41 57 157 c 0
 57 176 59 196 62 218 c 2
 135 667 l 2
 137 678 142 687 151 693 c 0
 158 698 165 700 174 700 c 2
 209 700 l 2
 217 700 224 698 230 694 c 0
 238 689 241 681 241 672 c 0
 241 669 241 667 240 664 c 2
 167 217 l 2
 164 197 162 167 162 166 c 0
 162 132 176 112 198 100 c 0
 216 90 241 86 271 86 c 0
 316 86 343 96 362 121 c 0
 378 141 389 173 396 220 c 2
 469 668 l 2
 471 679 476 687 485 693 c 0
 492 698 499 700 508 700 c 2
 543 700 l 2
 551 700 558 698 564 694 c 0
 572 689 575 681 575 672 c 0
 575 669 575 667 574 664 c 2
 501 215 l 2
 489 142 465 89 430 53 c 0
257 824 m 0
 257 840 267 852 283 859 c 2
 509 960 l 2
 515 963 520 964 526 964 c 0
 539 964 550 955 554 942 c 2
 567 896 l 2
 568 892 569 888 569 884 c 0
 569 868 557 856 541 851 c 2
 309 776 l 2
 304 774 299 774 294 774 c 0
 280 774 269 783 265 796 c 0
 263 802 260 808 258 814 c 0
 257 817 257 821 257 824 c 0
EndSplineSet
EndChar

StartChar: Ucircumflex
Encoding: 219 219 155
Width: 575
GlyphClass: 2
Flags: W
LayerCount: 2
Fore
SplineSet
430 53 m 0
 386 8 326 -10 259 -10 c 0
 143 -10 57 41 57 157 c 0
 57 176 59 196 62 218 c 2
 135 667 l 2
 137 678 142 687 151 693 c 0
 158 698 165 700 174 700 c 2
 209 700 l 2
 217 700 224 698 230 694 c 0
 238 689 241 681 241 672 c 0
 241 669 241 667 240 664 c 2
 167 217 l 2
 164 197 162 167 162 166 c 0
 162 132 176 112 198 100 c 0
 216 90 241 86 271 86 c 0
 316 86 343 96 362 121 c 0
 378 141 389 173 396 220 c 2
 469 668 l 2
 471 679 476 687 485 693 c 0
 492 698 499 700 508 700 c 2
 543 700 l 2
 551 700 558 698 564 694 c 0
 572 689 575 681 575 672 c 0
 575 669 575 667 574 664 c 2
 501 215 l 2
 489 142 465 89 430 53 c 0
238 786 m 0
 227 786 217 793 210 802 c 2
 198 826 l 2
 195 832 193 838 193 844 c 0
 193 857 202 868 214 875 c 2
 329 941 l 2
 353 955 375 965 401 965 c 0
 427 965 450 953 468 940 c 2
 561 874 l 2
 569 868 575 860 575 850 c 0
 575 841 570 832 563 824 c 2
 543 801 l 2
 535 792 526 786 515 786 c 0
 508 786 500 789 494 794 c 2
 403 866 l 2
 401 867 400 868 399 869 c 0
 395 872 395 873 390 873 c 0
 385 873 383 872 377 868 c 0
 376 867 374 866 372 865 c 2
 259 794 l 2
 252 790 246 786 238 786 c 0
EndSplineSet
EndChar

StartChar: Udieresis
Encoding: 220 220 156
Width: 575
GlyphClass: 2
Flags: W
LayerCount: 2
Fore
SplineSet
430 53 m 0
 386 8 326 -10 259 -10 c 0
 143 -10 57 41 57 157 c 0
 57 176 59 196 62 218 c 2
 135 667 l 2
 137 678 142 687 151 693 c 0
 158 698 165 700 174 700 c 2
 209 700 l 2
 217 700 224 698 230 694 c 0
 238 689 241 681 241 672 c 0
 241 669 241 667 240 664 c 2
 167 217 l 2
 164 197 162 167 162 166 c 0
 162 132 176 112 198 100 c 0
 216 90 241 86 271 86 c 0
 316 86 343 96 362 121 c 0
 378 141 389 173 396 220 c 2
 469 668 l 2
 471 679 476 687 485 693 c 0
 492 698 499 700 508 700 c 2
 543 700 l 2
 551 700 558 698 564 694 c 0
 572 689 575 681 575 672 c 0
 575 669 575 667 574 664 c 2
 501 215 l 2
 489 142 465 89 430 53 c 0
273 920 m 2
 308 920 l 2
 316 920 323 918 329 914 c 0
 337 909 340 901 340 892 c 0
 340 889 340 886 339 883 c 0
 337 868 335 852 332 837 c 0
 330 828 328 821 322 815 c 0
 315 807 304 804 293 804 c 2
 258 804 l 2
 250 804 244 806 238 810 c 0
 230 815 226 824 226 833 c 0
 226 836 227 838 227 841 c 0
 229 856 231 872 234 887 c 0
 238 907 252 920 273 920 c 2
480 920 m 2
 515 920 l 2
 523 920 529 918 535 914 c 0
 543 909 547 900 547 891 c 0
 547 888 546 886 546 883 c 0
 544 868 542 852 539 837 c 0
 537 826 532 817 523 811 c 0
 516 806 509 804 500 804 c 2
 465 804 l 2
 457 804 450 806 444 810 c 0
 436 815 433 823 433 832 c 0
 433 835 433 838 434 841 c 0
 436 856 438 872 441 887 c 0
 445 907 459 920 480 920 c 2
EndSplineSet
EndChar

StartChar: Yacute
Encoding: 221 221 157
Width: 575
GlyphClass: 2
Flags: W
LayerCount: 2
Fore
SplineSet
526 677 m 2
 536 693 550 700 567 700 c 2
 603 700 l 2
 618 700 633 693 633 677 c 0
 633 670 629 664 625 657 c 2
 434 374 l 2
 412 342 384 320 349 309 c 1
 304 33 l 2
 302 22 297 13 288 7 c 0
 281 2 274 0 265 0 c 2
 230 0 l 2
 222 0 215 2 209 6 c 0
 201 11 198 19 198 28 c 0
 198 31 198 33 199 36 c 2
 244 310 l 1
 214 322 191 344 181 376 c 2
 83 659 l 2
 81 663 80 668 80 672 c 0
 80 690 96 700 114 700 c 2
 151 700 l 2
 158 700 165 699 171 696 c 0
 179 692 184 684 187 675 c 2
 279 403 l 2
 285 387 296 380 309 380 c 0
 323 380 336 388 347 405 c 2
 526 677 l 2
257 824 m 0
 257 840 267 852 283 859 c 2
 509 960 l 2
 515 963 520 964 526 964 c 0
 539 964 550 955 554 942 c 2
 567 896 l 2
 568 892 569 888 569 884 c 0
 569 868 557 856 541 851 c 2
 309 776 l 2
 304 774 299 774 294 774 c 0
 280 774 269 783 265 796 c 0
 263 802 260 808 258 814 c 0
 257 817 257 821 257 824 c 0
EndSplineSet
EndChar

StartChar: Thorn
Encoding: 222 222 158
Width: 575
GlyphClass: 2
Flags: W
LayerCount: 2
Fore
SplineSet
105 0 m 2
 70 0 l 2
 62 0 55 2 49 6 c 0
 42 12 39 20 39 29 c 2
 39 36 l 1
 142 668 l 2
 146 687 160 700 181 700 c 2
 216 700 l 2
 224 700 230 698 236 694 c 0
 244 689 248 681 248 672 c 0
 248 669 247 667 247 664 c 2
 243 640 l 1
 274 643 320 643 321 643 c 0
 383 643 431 633 466 608 c 0
 510 576 529 523 529 445 c 0
 529 360 513 286 476 230 c 0
 430 159 352 118 239 118 c 0
 220 118 192 119 158 122 c 1
 144 33 l 2
 141 13 125 0 105 0 c 2
393 285 m 0
 414 324 423 375 423 435 c 0
 423 478 416 506 403 524 c 0
 387 546 358 555 309 555 c 0
 292 555 264 553 228 553 c 1
 174 211 l 1
 206 209 250 208 251 208 c 0
 324 208 367 237 393 285 c 0
EndSplineSet
EndChar

StartChar: germandbls
Encoding: 223 223 159
Width: 575
GlyphClass: 2
Flags: W
LayerCount: 2
Fore
SplineSet
140 546 m 2
 163 687 249 760 362 760 c 0
 464 760 520 697 520 597 c 0
 520 528 477 478 443 438 c 0
 417 408 397 384 397 362 c 0
 397 342 412 332 436 317 c 0
 455 305 477 291 494 266 c 0
 507 246 516 220 516 184 c 0
 516 67 411 -10 302 -10 c 0
 273 -10 263 -8 229 1 c 0
 217 5 207 15 207 29 c 0
 207 34 209 39 211 44 c 2
 220 70 l 2
 225 85 236 98 252 98 c 0
 256 98 260 97 263 96 c 0
 284 90 296 87 314 87 c 0
 362 87 411 128 411 178 c 0
 411 216 389 231 361 250 c 0
 330 271 292 297 292 361 c 0
 292 418 331 457 365 492 c 0
 395 525 420 553 420 583 c 0
 420 605 416 624 407 637 c 0
 396 654 378 664 350 664 c 0
 297 664 259 627 245 542 c 2
 162 32 l 2
 158 14 146 0 126 0 c 2
 78 0 l 2
 71 0 65 2 60 8 c 0
 57 12 55 17 55 21 c 0
 55 26 56 31 57 36 c 2
 140 546 l 2
EndSplineSet
EndChar

StartChar: agrave
Encoding: 224 224 160
Width: 575
GlyphClass: 2
Flags: W
LayerCount: 2
Fore
SplineSet
100 46 m 0
 79 78 67 124 67 191 c 0
 67 379 159 510 357 510 c 0
 386 510 442 508 503 500 c 0
 520 497 533 486 533 469 c 0
 533 466 532 464 532 461 c 2
 464 37 l 2
 462 20 450 0 427 0 c 2
 390 0 l 2
 382 0 376 2 370 6 c 0
 362 11 358 20 358 29 c 0
 358 36 360 42 361 48 c 1
 312 10 259 -10 212 -10 c 0
 167 -10 127 5 100 46 c 0
421 411 m 1
 388 413 361 414 345 414 c 0
 273 414 229 385 203 340 c 0
 182 304 173 257 173 207 c 0
 173 162 179 132 189 114 c 0
 201 92 218 86 242 86 c 0
 278 86 329 111 379 161 c 1
 421 411 l 1
243 764 m 0
 249 764 255 763 261 760 c 2
 454 659 l 2
 465 654 472 645 472 633 c 0
 472 626 470 618 466 612 c 0
 462 606 458 599 454 593 c 0
 445 582 434 574 421 574 c 0
 416 574 412 575 408 577 c 2
 197 652 l 2
 185 656 176 665 176 678 c 0
 176 685 179 691 183 698 c 2
 212 744 l 2
 219 756 230 764 243 764 c 0
EndSplineSet
EndChar

StartChar: aacute
Encoding: 225 225 161
Width: 575
GlyphClass: 2
Flags: W
LayerCount: 2
Fore
SplineSet
100 46 m 0
 79 78 67 124 67 191 c 0
 67 379 159 510 357 510 c 0
 386 510 442 508 503 500 c 0
 520 497 533 486 533 469 c 0
 533 466 532 464 532 461 c 2
 464 37 l 2
 462 20 450 0 427 0 c 2
 390 0 l 2
 382 0 376 2 370 6 c 0
 362 11 358 20 358 29 c 0
 358 36 360 42 361 48 c 1
 312 10 259 -10 212 -10 c 0
 167 -10 127 5 100 46 c 0
421 411 m 1
 388 413 361 414 345 414 c 0
 273 414 229 385 203 340 c 0
 182 304 173 257 173 207 c 0
 173 162 179 132 189 114 c 0
 201 92 218 86 242 86 c 0
 278 86 329 111 379 161 c 1
 421 411 l 1
224 624 m 0
 224 640 234 652 250 659 c 2
 476 760 l 2
 482 763 487 764 493 764 c 0
 506 764 517 755 521 742 c 2
 534 696 l 2
 535 692 536 688 536 684 c 0
 536 668 524 656 508 651 c 2
 276 576 l 2
 271 574 266 574 261 574 c 0
 247 574 236 583 232 596 c 0
 230 602 227 608 225 614 c 0
 224 617 224 621 224 624 c 0
EndSplineSet
EndChar

StartChar: acircumflex
Encoding: 226 226 162
Width: 575
GlyphClass: 2
Flags: W
LayerCount: 2
Fore
SplineSet
100 46 m 0
 79 78 67 124 67 191 c 0
 67 379 159 510 357 510 c 0
 386 510 442 508 503 500 c 0
 520 497 533 486 533 469 c 0
 533 466 532 464 532 461 c 2
 464 37 l 2
 462 20 450 0 427 0 c 2
 390 0 l 2
 382 0 376 2 370 6 c 0
 362 11 358 20 358 29 c 0
 358 36 360 42 361 48 c 1
 312 10 259 -10 212 -10 c 0
 167 -10 127 5 100 46 c 0
421 411 m 1
 388 413 361 414 345 414 c 0
 273 414 229 385 203 340 c 0
 182 304 173 257 173 207 c 0
 173 162 179 132 189 114 c 0
 201 92 218 86 242 86 c 0
 278 86 329 111 379 161 c 1
 421 411 l 1
205 586 m 0
 194 586 184 593 177 602 c 2
 165 626 l 2
 162 632 160 638 160 644 c 0
 160 657 169 668 181 675 c 2
 296 741 l 2
 320 755 342 765 368 765 c 0
 394 765 417 753 435 740 c 2
 528 674 l 2
 536 668 542 660 542 650 c 0
 542 641 537 632 530 624 c 2
 510 601 l 2
 502 592 493 586 482 586 c 0
 475 586 467 589 461 594 c 2
 370 666 l 2
 368 667 367 668 366 669 c 0
 362 672 362 673 357 673 c 0
 352 673 350 672 344 668 c 0
 343 667 341 666 339 665 c 2
 226 594 l 2
 219 590 213 586 205 586 c 0
EndSplineSet
EndChar

StartChar: atilde
Encoding: 227 227 163
Width: 575
GlyphClass: 2
Flags: W
LayerCount: 2
Fore
SplineSet
100 46 m 0
 79 78 67 124 67 191 c 0
 67 379 159 510 357 510 c 0
 386 510 442 508 503 500 c 0
 520 497 533 486 533 469 c 0
 533 466 532 464 532 461 c 2
 464 37 l 2
 462 20 450 0 427 0 c 2
 390 0 l 2
 382 0 376 2 370 6 c 0
 362 11 358 20 358 29 c 0
 358 36 360 42 361 48 c 1
 312 10 259 -10 212 -10 c 0
 167 -10 127 5 100 46 c 0
421 411 m 1
 388 413 361 414 345 414 c 0
 273 414 229 385 203 340 c 0
 182 304 173 257 173 207 c 0
 173 162 179 132 189 114 c 0
 201 92 218 86 242 86 c 0
 278 86 329 111 379 161 c 1
 421 411 l 1
142 665 m 0
 142 674 147 683 154 691 c 0
 196 736 241 763 284 763 c 0
 311 763 344 749 377 724 c 0
 397 710 423 705 428 703 c 0
 444 703 461 710 478 726 c 0
 486 735 495 740 506 740 c 0
 513 740 521 738 527 733 c 2
 538 724 l 2
 546 718 552 710 552 700 c 0
 552 690 546 681 539 674 c 0
 496 628 451 602 409 602 c 0
 382 602 350 616 316 640 c 0
 296 654 275 661 260 661 c 0
 248 661 233 654 216 639 c 0
 208 631 198 625 187 625 c 0
 174 625 163 635 155 641 c 0
 147 647 142 655 142 665 c 0
EndSplineSet
EndChar

StartChar: adieresis
Encoding: 228 228 164
Width: 575
GlyphClass: 2
Flags: W
LayerCount: 2
Fore
SplineSet
100 46 m 0
 79 78 67 124 67 191 c 0
 67 379 159 510 357 510 c 0
 386 510 442 508 503 500 c 0
 520 497 533 486 533 469 c 0
 533 466 532 464 532 461 c 2
 464 37 l 2
 462 20 450 0 427 0 c 2
 390 0 l 2
 382 0 376 2 370 6 c 0
 362 11 358 20 358 29 c 0
 358 36 360 42 361 48 c 1
 312 10 259 -10 212 -10 c 0
 167 -10 127 5 100 46 c 0
421 411 m 1
 388 413 361 414 345 414 c 0
 273 414 229 385 203 340 c 0
 182 304 173 257 173 207 c 0
 173 162 179 132 189 114 c 0
 201 92 218 86 242 86 c 0
 278 86 329 111 379 161 c 1
 421 411 l 1
240 720 m 2
 275 720 l 2
 283 720 290 718 296 714 c 0
 304 709 307 701 307 692 c 0
 307 689 307 686 306 683 c 0
 304 668 302 652 299 637 c 0
 297 628 295 621 289 615 c 0
 282 607 271 604 260 604 c 2
 225 604 l 2
 217 604 211 606 205 610 c 0
 197 615 193 624 193 633 c 0
 193 636 194 638 194 641 c 0
 196 656 198 672 201 687 c 0
 205 707 219 720 240 720 c 2
447 720 m 2
 482 720 l 2
 490 720 496 718 502 714 c 0
 510 709 514 700 514 691 c 0
 514 688 513 686 513 683 c 0
 511 668 509 652 506 637 c 0
 504 626 499 617 490 611 c 0
 483 606 476 604 467 604 c 2
 432 604 l 2
 424 604 417 606 411 610 c 0
 403 615 400 623 400 632 c 0
 400 635 400 638 401 641 c 0
 403 656 405 672 408 687 c 0
 412 707 426 720 447 720 c 2
EndSplineSet
EndChar

StartChar: aring
Encoding: 229 229 165
Width: 575
GlyphClass: 2
Flags: W
LayerCount: 2
Fore
SplineSet
100 46 m 0
 79 78 67 124 67 191 c 0
 67 379 159 510 357 510 c 0
 386 510 442 508 503 500 c 0
 520 497 533 486 533 469 c 0
 533 466 532 464 532 461 c 2
 464 37 l 2
 462 20 450 0 427 0 c 2
 390 0 l 2
 382 0 376 2 370 6 c 0
 362 11 358 20 358 29 c 0
 358 36 360 42 361 48 c 1
 312 10 259 -10 212 -10 c 0
 167 -10 127 5 100 46 c 0
421 411 m 1
 388 413 361 414 345 414 c 0
 273 414 229 385 203 340 c 0
 182 304 173 257 173 207 c 0
 173 162 179 132 189 114 c 0
 201 92 218 86 242 86 c 0
 278 86 329 111 379 161 c 1
 421 411 l 1
338 553 m 0
 310 553 286 559 268 571 c 0
 245 587 233 612 233 642 c 0
 233 648 233 655 234 661 c 0
 244 725 297 765 368 765 c 0
 396 765 420 759 438 747 c 0
 461 731 473 706 473 676 c 0
 473 670 473 663 472 657 c 0
 462 593 409 553 338 553 c 0
348 634 m 0
 363 634 372 644 375 661 c 0
 375 664 376 666 376 668 c 0
 376 675 374 679 371 681 c 0
 369 683 365 684 359 684 c 0
 344 684 333 675 330 657 c 2
 330 652 l 2
 330 640 335 634 348 634 c 0
EndSplineSet
EndChar

StartChar: ae
Encoding: 230 230 166
Width: 575
GlyphClass: 2
Flags: W
AnchorPoint: "Anchor-1" 327 500 basechar 0
LayerCount: 2
Fore
SplineSet
143 460 m 1
 143 466 l 2
 143 484 156 496 174 499 c 0
 214 506 256 510 293 510 c 0
 357 510 406 496 440 470 c 0
 483 437 502 387 502 327 c 0
 502 308 500 288 497 267 c 0
 496 259 495 251 494 244 c 0
 490 225 476 212 455 212 c 2
 330 212 l 1
 308 84 l 1
 329 85 355 88 382 92 c 1
 386 92 l 1
 392 92 l 2
 401 92 408 90 414 83 c 0
 418 78 421 72 421 65 c 2
 423 40 l 1
 423 35 l 2
 423 17 410 4 391 1 c 0
 335 -9 318 -9 249 -10 c 0
 183 -10 134 -2 99 16 c 0
 55 38 37 76 37 123 c 0
 37 133 37 143 39 154 c 0
 55 248 126 296 239 305 c 1
 257 416 l 1
 236 415 211 413 185 409 c 0
 182 408 178 408 175 408 c 0
 166 408 159 411 153 417 c 0
 149 422 146 428 146 435 c 2
 143 460 l 1
398 309 m 1
 398 319 l 2
 398 356 389 389 359 402 c 1
 345 309 l 1
 398 309 l 1
143 138 m 0
 142 135 142 132 142 129 c 0
 142 103 164 85 203 78 c 1
 223 208 l 1
 175 200 150 179 143 138 c 0
EndSplineSet
EndChar

StartChar: ccedilla
Encoding: 231 231 167
Width: 575
GlyphClass: 2
Flags: W
LayerCount: 2
Fore
SplineSet
518 479 m 0
 529 474 537 465 537 453 c 0
 537 446 535 439 531 432 c 2
 517 408 l 2
 510 395 499 387 485 387 c 0
 480 387 475 388 470 390 c 0
 430 406 365 411 357 412 c 0
 233 412 176 318 176 213 c 0
 176 158 193 127 218 109 c 0
 238 95 266 88 299 88 c 0
 339 88 374 94 421 110 c 0
 426 112 431 113 436 113 c 0
 450 113 460 103 464 89 c 2
 470 65 l 2
 471 62 471 58 471 55 c 0
 471 40 462 27 446 21 c 0
 397 2 293 -10 287 -10 c 2
 286 -10 l 1
 285 -14 284 -18 281 -22 c 2
 261 -54 l 1
 276 -52 302 -51 303 -51 c 0
 375 -51 414 -84 414 -129 c 0
 414 -156 400 -179 379 -198 c 0
 337 -235 264 -256 197 -256 c 0
 171 -256 146 -252 118 -245 c 0
 105 -241 96 -230 96 -217 c 0
 96 -206 103 -195 107 -187 c 0
 114 -172 127 -164 142 -164 c 0
 145 -164 149 -164 152 -165 c 0
 171 -169 193 -171 208 -171 c 0
 233 -171 259 -166 276 -158 c 0
 290 -151 295 -145 295 -140 c 0
 295 -138 292 -129 264 -129 c 0
 257 -129 247 -130 237 -131 c 0
 234 -131 231 -132 228 -132 c 0
 217 -132 205 -127 197 -117 c 2
 173 -88 l 2
 168 -82 165 -74 165 -66 c 0
 165 -58 168 -51 173 -43 c 2
 199 0 l 2
 199 1 201 1 201 2 c 0
 182 8 165 16 149 27 c 0
 101 60 70 118 70 204 c 0
 70 370 181 510 369 510 c 0
 421 510 473 500 518 479 c 0
EndSplineSet
EndChar

StartChar: egrave
Encoding: 232 232 168
Width: 575
GlyphClass: 2
Flags: W
LayerCount: 2
Fore
SplineSet
287 -10 m 0
 155 -10 63 59 63 191 c 0
 63 353 175 510 333 510 c 0
 428 510 517 446 517 327 c 0
 517 311 515 298 509 269 c 0
 505 250 490 237 470 237 c 2
 171 237 l 1
 170 227 169 201 169 201 c 2
 169 153 187 125 214 108 c 0
 236 94 266 88 299 88 c 0
 339 88 378 94 425 110 c 0
 430 112 440 113 440 113 c 2
 454 113 464 103 468 90 c 0
 470 82 472 73 474 65 c 0
 475 62 475 58 475 55 c 0
 475 40 466 27 450 21 c 0
 405 3 344 -10 287 -10 c 0
412 314 m 1
 412 317 414 321 414 333 c 0
 414 387 365 414 322 414 c 0
 269 414 207 373 191 314 c 1
 412 314 l 1
243 764 m 0
 249 764 255 763 261 760 c 2
 454 659 l 2
 465 654 472 645 472 633 c 0
 472 626 470 618 466 612 c 0
 462 606 458 599 454 593 c 0
 445 582 434 574 421 574 c 0
 416 574 412 575 408 577 c 2
 197 652 l 2
 185 656 176 665 176 678 c 0
 176 685 179 691 183 698 c 2
 212 744 l 2
 219 756 230 764 243 764 c 0
EndSplineSet
EndChar

StartChar: eacute
Encoding: 233 233 169
Width: 575
GlyphClass: 2
Flags: W
LayerCount: 2
Fore
SplineSet
287 -10 m 0
 155 -10 63 59 63 191 c 0
 63 353 175 510 333 510 c 0
 428 510 517 446 517 327 c 0
 517 311 515 298 509 269 c 0
 505 250 490 237 470 237 c 2
 171 237 l 1
 170 227 169 201 169 201 c 2
 169 153 187 125 214 108 c 0
 236 94 266 88 299 88 c 0
 339 88 378 94 425 110 c 0
 430 112 440 113 440 113 c 2
 454 113 464 103 468 90 c 0
 470 82 472 73 474 65 c 0
 475 62 475 58 475 55 c 0
 475 40 466 27 450 21 c 0
 405 3 344 -10 287 -10 c 0
412 314 m 1
 412 317 414 321 414 333 c 0
 414 387 365 414 322 414 c 0
 269 414 207 373 191 314 c 1
 412 314 l 1
224 624 m 0
 224 640 234 652 250 659 c 2
 476 760 l 2
 482 763 487 764 493 764 c 0
 506 764 517 755 521 742 c 2
 534 696 l 2
 535 692 536 688 536 684 c 0
 536 668 524 656 508 651 c 2
 276 576 l 2
 271 574 266 574 261 574 c 0
 247 574 236 583 232 596 c 0
 230 602 227 608 225 614 c 0
 224 617 224 621 224 624 c 0
EndSplineSet
EndChar

StartChar: ecircumflex
Encoding: 234 234 170
Width: 575
GlyphClass: 2
Flags: W
LayerCount: 2
Fore
SplineSet
287 -10 m 0
 155 -10 63 59 63 191 c 0
 63 353 175 510 333 510 c 0
 428 510 517 446 517 327 c 0
 517 311 515 298 509 269 c 0
 505 250 490 237 470 237 c 2
 171 237 l 1
 170 227 169 201 169 201 c 2
 169 153 187 125 214 108 c 0
 236 94 266 88 299 88 c 0
 339 88 378 94 425 110 c 0
 430 112 440 113 440 113 c 2
 454 113 464 103 468 90 c 0
 470 82 472 73 474 65 c 0
 475 62 475 58 475 55 c 0
 475 40 466 27 450 21 c 0
 405 3 344 -10 287 -10 c 0
412 314 m 1
 412 317 414 321 414 333 c 0
 414 387 365 414 322 414 c 0
 269 414 207 373 191 314 c 1
 412 314 l 1
205 586 m 0
 194 586 184 593 177 602 c 2
 165 626 l 2
 162 632 160 638 160 644 c 0
 160 657 169 668 181 675 c 2
 296 741 l 2
 320 755 342 765 368 765 c 0
 394 765 417 753 435 740 c 2
 528 674 l 2
 536 668 542 660 542 650 c 0
 542 641 537 632 530 624 c 2
 510 601 l 2
 502 592 493 586 482 586 c 0
 475 586 467 589 461 594 c 2
 370 666 l 2
 368 667 367 668 366 669 c 0
 362 672 362 673 357 673 c 0
 352 673 350 672 344 668 c 0
 343 667 341 666 339 665 c 2
 226 594 l 2
 219 590 213 586 205 586 c 0
EndSplineSet
EndChar

StartChar: edieresis
Encoding: 235 235 171
Width: 575
GlyphClass: 2
Flags: W
LayerCount: 2
Fore
SplineSet
287 -10 m 0
 155 -10 63 59 63 191 c 0
 63 353 175 510 333 510 c 0
 428 510 517 446 517 327 c 0
 517 311 515 298 509 269 c 0
 505 250 490 237 470 237 c 2
 171 237 l 1
 170 227 169 201 169 201 c 2
 169 153 187 125 214 108 c 0
 236 94 266 88 299 88 c 0
 339 88 378 94 425 110 c 0
 430 112 440 113 440 113 c 2
 454 113 464 103 468 90 c 0
 470 82 472 73 474 65 c 0
 475 62 475 58 475 55 c 0
 475 40 466 27 450 21 c 0
 405 3 344 -10 287 -10 c 0
412 314 m 1
 412 317 414 321 414 333 c 0
 414 387 365 414 322 414 c 0
 269 414 207 373 191 314 c 1
 412 314 l 1
240 720 m 2
 275 720 l 2
 283 720 290 718 296 714 c 0
 304 709 307 701 307 692 c 0
 307 689 307 686 306 683 c 0
 304 668 302 652 299 637 c 0
 297 628 295 621 289 615 c 0
 282 607 271 604 260 604 c 2
 225 604 l 2
 217 604 211 606 205 610 c 0
 197 615 193 624 193 633 c 0
 193 636 194 638 194 641 c 0
 196 656 198 672 201 687 c 0
 205 707 219 720 240 720 c 2
447 720 m 2
 482 720 l 2
 490 720 496 718 502 714 c 0
 510 709 514 700 514 691 c 0
 514 688 513 686 513 683 c 0
 511 668 509 652 506 637 c 0
 504 626 499 617 490 611 c 0
 483 606 476 604 467 604 c 2
 432 604 l 2
 424 604 417 606 411 610 c 0
 403 615 400 623 400 632 c 0
 400 635 400 638 401 641 c 0
 403 656 405 672 408 687 c 0
 412 707 426 720 447 720 c 2
EndSplineSet
EndChar

StartChar: igrave
Encoding: 236 236 172
Width: 575
GlyphClass: 2
Flags: W
LayerCount: 2
Fore
SplineSet
256 348 m 2
 259 360 260 370 260 379 c 0
 260 395 256 403 248 408 c 0
 242 412 231 416 215 416 c 0
 200 416 182 415 152 410 c 0
 149 409 145 409 142 409 c 0
 134 409 126 411 120 417 c 0
 115 421 112 427 111 434 c 2
 107 460 l 1
 107 468 l 2
 107 485 118 496 133 499 c 0
 172 508 206 510 227 510 c 0
 266 510 298 503 322 488 c 0
 352 469 367 437 367 396 c 0
 367 380 365 363 361 344 c 2
 319 152 l 2
 316 140 315 130 315 121 c 0
 315 105 319 97 327 92 c 0
 333 88 344 84 360 84 c 0
 375 84 393 85 423 90 c 0
 426 91 430 91 433 91 c 0
 441 91 449 89 455 83 c 0
 460 79 463 73 464 66 c 2
 468 40 l 1
 468 32 l 2
 468 15 457 4 442 1 c 0
 403 -8 369 -10 348 -10 c 0
 309 -10 277 -3 253 12 c 0
 223 31 208 63 208 104 c 0
 208 120 210 137 214 156 c 2
 256 348 l 2
243 764 m 0
 249 764 255 763 261 760 c 2
 454 659 l 2
 465 654 472 645 472 633 c 0
 472 626 470 618 466 612 c 0
 462 606 458 599 454 593 c 0
 445 582 434 574 421 574 c 0
 416 574 412 575 408 577 c 2
 197 652 l 2
 185 656 176 665 176 678 c 0
 176 685 179 691 183 698 c 2
 212 744 l 2
 219 756 230 764 243 764 c 0
EndSplineSet
EndChar

StartChar: iacute
Encoding: 237 237 173
Width: 575
GlyphClass: 2
Flags: W
LayerCount: 2
Fore
SplineSet
256 348 m 2
 259 360 260 370 260 379 c 0
 260 395 256 403 248 408 c 0
 242 412 231 416 215 416 c 0
 200 416 182 415 152 410 c 0
 149 409 145 409 142 409 c 0
 134 409 126 411 120 417 c 0
 115 421 112 427 111 434 c 2
 107 460 l 1
 107 468 l 2
 107 485 118 496 133 499 c 0
 172 508 206 510 227 510 c 0
 266 510 298 503 322 488 c 0
 352 469 367 437 367 396 c 0
 367 380 365 363 361 344 c 2
 319 152 l 2
 316 140 315 130 315 121 c 0
 315 105 319 97 327 92 c 0
 333 88 344 84 360 84 c 0
 375 84 393 85 423 90 c 0
 426 91 430 91 433 91 c 0
 441 91 449 89 455 83 c 0
 460 79 463 73 464 66 c 2
 468 40 l 1
 468 32 l 2
 468 15 457 4 442 1 c 0
 403 -8 369 -10 348 -10 c 0
 309 -10 277 -3 253 12 c 0
 223 31 208 63 208 104 c 0
 208 120 210 137 214 156 c 2
 256 348 l 2
224 624 m 0
 224 640 234 652 250 659 c 2
 476 760 l 2
 482 763 487 764 493 764 c 0
 506 764 517 755 521 742 c 2
 534 696 l 2
 535 692 536 688 536 684 c 0
 536 668 524 656 508 651 c 2
 276 576 l 2
 271 574 266 574 261 574 c 0
 247 574 236 583 232 596 c 0
 230 602 227 608 225 614 c 0
 224 617 224 621 224 624 c 0
EndSplineSet
EndChar

StartChar: icircumflex
Encoding: 238 238 174
Width: 575
GlyphClass: 2
Flags: W
LayerCount: 2
Fore
SplineSet
256 348 m 2
 259 360 260 370 260 379 c 0
 260 395 256 403 248 408 c 0
 242 412 231 416 215 416 c 0
 200 416 182 415 152 410 c 0
 149 409 145 409 142 409 c 0
 134 409 126 411 120 417 c 0
 115 421 112 427 111 434 c 2
 107 460 l 1
 107 468 l 2
 107 485 118 496 133 499 c 0
 172 508 206 510 227 510 c 0
 266 510 298 503 322 488 c 0
 352 469 367 437 367 396 c 0
 367 380 365 363 361 344 c 2
 319 152 l 2
 316 140 315 130 315 121 c 0
 315 105 319 97 327 92 c 0
 333 88 344 84 360 84 c 0
 375 84 393 85 423 90 c 0
 426 91 430 91 433 91 c 0
 441 91 449 89 455 83 c 0
 460 79 463 73 464 66 c 2
 468 40 l 1
 468 32 l 2
 468 15 457 4 442 1 c 0
 403 -8 369 -10 348 -10 c 0
 309 -10 277 -3 253 12 c 0
 223 31 208 63 208 104 c 0
 208 120 210 137 214 156 c 2
 256 348 l 2
205 586 m 0
 194 586 184 593 177 602 c 2
 165 626 l 2
 162 632 160 638 160 644 c 0
 160 657 169 668 181 675 c 2
 296 741 l 2
 320 755 342 765 368 765 c 0
 394 765 417 753 435 740 c 2
 528 674 l 2
 536 668 542 660 542 650 c 0
 542 641 537 632 530 624 c 2
 510 601 l 2
 502 592 493 586 482 586 c 0
 475 586 467 589 461 594 c 2
 370 666 l 2
 368 667 367 668 366 669 c 0
 362 672 362 673 357 673 c 0
 352 673 350 672 344 668 c 0
 343 667 341 666 339 665 c 2
 226 594 l 2
 219 590 213 586 205 586 c 0
EndSplineSet
EndChar

StartChar: idieresis
Encoding: 239 239 175
Width: 575
GlyphClass: 2
Flags: W
LayerCount: 2
Fore
SplineSet
256 348 m 2
 259 360 260 370 260 379 c 0
 260 395 256 403 248 408 c 0
 242 412 231 416 215 416 c 0
 200 416 182 415 152 410 c 0
 149 409 145 409 142 409 c 0
 134 409 126 411 120 417 c 0
 115 421 112 427 111 434 c 2
 107 460 l 1
 107 468 l 2
 107 485 118 496 133 499 c 0
 172 508 206 510 227 510 c 0
 266 510 298 503 322 488 c 0
 352 469 367 437 367 396 c 0
 367 380 365 363 361 344 c 2
 319 152 l 2
 316 140 315 130 315 121 c 0
 315 105 319 97 327 92 c 0
 333 88 344 84 360 84 c 0
 375 84 393 85 423 90 c 0
 426 91 430 91 433 91 c 0
 441 91 449 89 455 83 c 0
 460 79 463 73 464 66 c 2
 468 40 l 1
 468 32 l 2
 468 15 457 4 442 1 c 0
 403 -8 369 -10 348 -10 c 0
 309 -10 277 -3 253 12 c 0
 223 31 208 63 208 104 c 0
 208 120 210 137 214 156 c 2
 256 348 l 2
240 720 m 2
 275 720 l 2
 283 720 290 718 296 714 c 0
 304 709 307 701 307 692 c 0
 307 689 307 686 306 683 c 0
 304 668 302 652 299 637 c 0
 297 628 295 621 289 615 c 0
 282 607 271 604 260 604 c 2
 225 604 l 2
 217 604 211 606 205 610 c 0
 197 615 193 624 193 633 c 0
 193 636 194 638 194 641 c 0
 196 656 198 672 201 687 c 0
 205 707 219 720 240 720 c 2
447 720 m 2
 482 720 l 2
 490 720 496 718 502 714 c 0
 510 709 514 700 514 691 c 0
 514 688 513 686 513 683 c 0
 511 668 509 652 506 637 c 0
 504 626 499 617 490 611 c 0
 483 606 476 604 467 604 c 2
 432 604 l 2
 424 604 417 606 411 610 c 0
 403 615 400 623 400 632 c 0
 400 635 400 638 401 641 c 0
 403 656 405 672 408 687 c 0
 412 707 426 720 447 720 c 2
EndSplineSet
EndChar

StartChar: eth
Encoding: 240 240 176
Width: 575
GlyphClass: 2
Flags: W
LayerCount: 2
Fore
SplineSet
606 590 m 0
 607 587 607 584 607 581 c 0
 607 565 596 551 579 546 c 2
 533 531 l 1
 544 494 549 452 549 407 c 0
 549 200 465 -10 251 -10 c 0
 145 -10 59 54 59 169 c 0
 59 312 176 432 318 432 c 0
 357 432 399 423 443 395 c 1
 443 403 444 410 444 418 c 0
 444 449 441 475 436 497 c 1
 337 464 l 2
 332 462 323 461 323 461 c 2
 308 461 298 472 294 486 c 0
 293 494 291 502 290 510 c 0
 289 513 289 516 289 519 c 0
 289 536 300 549 316 554 c 2
 393 581 l 1
 374 599 351 608 326 611 c 0
 319 612 312 614 307 618 c 0
 300 624 297 632 297 641 c 2
 297 648 l 1
 303 677 l 2
 307 697 321 709 340 709 c 2
 344 709 l 1
 409 702 461 668 496 616 c 1
 558 637 l 2
 563 639 567 640 572 640 c 0
 587 640 597 629 601 615 c 0
 603 607 604 598 606 590 c 0
310 351 m 0
 225 351 166 277 166 185 c 0
 166 145 180 121 200 106 c 0
 216 94 237 88 260 88 c 0
 330 88 407 146 432 303 c 1
 383 349 319 348 310 351 c 0
EndSplineSet
EndChar

StartChar: ntilde
Encoding: 241 241 177
Width: 575
GlyphClass: 2
Flags: W
LayerCount: 2
Fore
SplineSet
218 452 m 1
 265 490 315 510 362 510 c 0
 460 510 508 461 508 357 c 0
 508 333 505 307 500 276 c 2
 460 32 l 2
 458 21 453 13 444 7 c 0
 437 2 430 0 421 0 c 2
 386 0 l 2
 378 0 371 2 365 6 c 0
 357 11 354 20 354 28 c 0
 354 30 355 32 355 35 c 2
 395 276 l 2
 399 301 401 323 401 340 c 0
 401 378 392 395 379 404 c 0
 368 411 352 414 332 414 c 0
 296 414 250 389 199 338 c 1
 148 32 l 2
 145 13 130 0 109 0 c 2
 74 0 l 2
 66 0 59 2 53 6 c 0
 45 11 42 19 42 27 c 0
 42 30 42 32 43 35 c 2
 115 468 l 2
 117 479 122 487 131 493 c 0
 138 498 145 500 154 500 c 2
 189 500 l 2
 197 500 204 498 210 494 c 0
 218 489 221 481 221 472 c 0
 221 465 219 458 218 452 c 1
142 665 m 0
 142 674 147 683 154 691 c 0
 196 736 241 763 284 763 c 0
 311 763 344 749 377 724 c 0
 397 710 423 705 428 703 c 0
 444 703 461 710 478 726 c 0
 486 735 495 740 506 740 c 0
 513 740 521 738 527 733 c 2
 538 724 l 2
 546 718 552 710 552 700 c 0
 552 690 546 681 539 674 c 0
 496 628 451 602 409 602 c 0
 382 602 350 616 316 640 c 0
 296 654 275 661 260 661 c 0
 248 661 233 654 216 639 c 0
 208 631 198 625 187 625 c 0
 174 625 163 635 155 641 c 0
 147 647 142 655 142 665 c 0
EndSplineSet
EndChar

StartChar: ograve
Encoding: 242 242 178
Width: 575
GlyphClass: 2
Flags: W
LayerCount: 2
Fore
SplineSet
130 28 m 0
 88 61 62 114 62 191 c 0
 62 346 163 510 332 510 c 0
 386 510 436 492 470 451 c 0
 497 419 513 373 513 313 c 0
 513 156 418 -10 250 -10 c 0
 206 -10 163 2 130 28 c 0
337 119 m 0
 381 161 407 236 407 297 c 0
 407 364 380 414 317 414 c 0
 286 414 260 402 238 381 c 0
 194 339 168 264 168 203 c 0
 168 122 208 86 259 86 c 0
 289 86 315 98 337 119 c 0
243 764 m 0
 249 764 255 763 261 760 c 2
 454 659 l 2
 465 654 472 645 472 633 c 0
 472 626 470 618 466 612 c 0
 462 606 458 599 454 593 c 0
 445 582 434 574 421 574 c 0
 416 574 412 575 408 577 c 2
 197 652 l 2
 185 656 176 665 176 678 c 0
 176 685 179 691 183 698 c 2
 212 744 l 2
 219 756 230 764 243 764 c 0
EndSplineSet
EndChar

StartChar: oacute
Encoding: 243 243 179
Width: 575
GlyphClass: 2
Flags: W
LayerCount: 2
Fore
SplineSet
130 28 m 0
 88 61 62 114 62 191 c 0
 62 346 163 510 332 510 c 0
 386 510 436 492 470 451 c 0
 497 419 513 373 513 313 c 0
 513 156 418 -10 250 -10 c 0
 206 -10 163 2 130 28 c 0
337 119 m 0
 381 161 407 236 407 297 c 0
 407 364 380 414 317 414 c 0
 286 414 260 402 238 381 c 0
 194 339 168 264 168 203 c 0
 168 122 208 86 259 86 c 0
 289 86 315 98 337 119 c 0
224 624 m 0
 224 640 234 652 250 659 c 2
 476 760 l 2
 482 763 487 764 493 764 c 0
 506 764 517 755 521 742 c 2
 534 696 l 2
 535 692 536 688 536 684 c 0
 536 668 524 656 508 651 c 2
 276 576 l 2
 271 574 266 574 261 574 c 0
 247 574 236 583 232 596 c 0
 230 602 227 608 225 614 c 0
 224 617 224 621 224 624 c 0
EndSplineSet
EndChar

StartChar: ocircumflex
Encoding: 244 244 180
Width: 575
GlyphClass: 2
Flags: W
LayerCount: 2
Fore
SplineSet
130 28 m 0
 88 61 62 114 62 191 c 0
 62 346 163 510 332 510 c 0
 386 510 436 492 470 451 c 0
 497 419 513 373 513 313 c 0
 513 156 418 -10 250 -10 c 0
 206 -10 163 2 130 28 c 0
337 119 m 0
 381 161 407 236 407 297 c 0
 407 364 380 414 317 414 c 0
 286 414 260 402 238 381 c 0
 194 339 168 264 168 203 c 0
 168 122 208 86 259 86 c 0
 289 86 315 98 337 119 c 0
205 586 m 0
 194 586 184 593 177 602 c 2
 165 626 l 2
 162 632 160 638 160 644 c 0
 160 657 169 668 181 675 c 2
 296 741 l 2
 320 755 342 765 368 765 c 0
 394 765 417 753 435 740 c 2
 528 674 l 2
 536 668 542 660 542 650 c 0
 542 641 537 632 530 624 c 2
 510 601 l 2
 502 592 493 586 482 586 c 0
 475 586 467 589 461 594 c 2
 370 666 l 2
 368 667 367 668 366 669 c 0
 362 672 362 673 357 673 c 0
 352 673 350 672 344 668 c 0
 343 667 341 666 339 665 c 2
 226 594 l 2
 219 590 213 586 205 586 c 0
EndSplineSet
EndChar

StartChar: otilde
Encoding: 245 245 181
Width: 575
GlyphClass: 2
Flags: W
LayerCount: 2
Fore
SplineSet
130 28 m 0
 88 61 62 114 62 191 c 0
 62 346 163 510 332 510 c 0
 386 510 436 492 470 451 c 0
 497 419 513 373 513 313 c 0
 513 156 418 -10 250 -10 c 0
 206 -10 163 2 130 28 c 0
337 119 m 0
 381 161 407 236 407 297 c 0
 407 364 380 414 317 414 c 0
 286 414 260 402 238 381 c 0
 194 339 168 264 168 203 c 0
 168 122 208 86 259 86 c 0
 289 86 315 98 337 119 c 0
142 665 m 0
 142 674 147 683 154 691 c 0
 196 736 241 763 284 763 c 0
 311 763 344 749 377 724 c 0
 397 710 423 705 428 703 c 0
 444 703 461 710 478 726 c 0
 486 735 495 740 506 740 c 0
 513 740 521 738 527 733 c 2
 538 724 l 2
 546 718 552 710 552 700 c 0
 552 690 546 681 539 674 c 0
 496 628 451 602 409 602 c 0
 382 602 350 616 316 640 c 0
 296 654 275 661 260 661 c 0
 248 661 233 654 216 639 c 0
 208 631 198 625 187 625 c 0
 174 625 163 635 155 641 c 0
 147 647 142 655 142 665 c 0
EndSplineSet
EndChar

StartChar: odieresis
Encoding: 246 246 182
Width: 575
GlyphClass: 2
Flags: W
LayerCount: 2
Fore
SplineSet
130 28 m 0
 88 61 62 114 62 191 c 0
 62 346 163 510 332 510 c 0
 386 510 436 492 470 451 c 0
 497 419 513 373 513 313 c 0
 513 156 418 -10 250 -10 c 0
 206 -10 163 2 130 28 c 0
337 119 m 0
 381 161 407 236 407 297 c 0
 407 364 380 414 317 414 c 0
 286 414 260 402 238 381 c 0
 194 339 168 264 168 203 c 0
 168 122 208 86 259 86 c 0
 289 86 315 98 337 119 c 0
240 720 m 2
 275 720 l 2
 283 720 290 718 296 714 c 0
 304 709 307 701 307 692 c 0
 307 689 307 686 306 683 c 0
 304 668 302 652 299 637 c 0
 297 628 295 621 289 615 c 0
 282 607 271 604 260 604 c 2
 225 604 l 2
 217 604 211 606 205 610 c 0
 197 615 193 624 193 633 c 0
 193 636 194 638 194 641 c 0
 196 656 198 672 201 687 c 0
 205 707 219 720 240 720 c 2
447 720 m 2
 482 720 l 2
 490 720 496 718 502 714 c 0
 510 709 514 700 514 691 c 0
 514 688 513 686 513 683 c 0
 511 668 509 652 506 637 c 0
 504 626 499 617 490 611 c 0
 483 606 476 604 467 604 c 2
 432 604 l 2
 424 604 417 606 411 610 c 0
 403 615 400 623 400 632 c 0
 400 635 400 638 401 641 c 0
 403 656 405 672 408 687 c 0
 412 707 426 720 447 720 c 2
EndSplineSet
EndChar

StartChar: divide
Encoding: 247 247 183
Width: 575
GlyphClass: 2
Flags: W
LayerCount: 2
Fore
SplineSet
320 580 m 2
 355 580 l 2
 363 580 370 578 376 574 c 0
 384 569 387 561 387 552 c 0
 387 549 387 546 386 543 c 0
 384 528 382 512 379 497 c 0
 377 488 375 481 369 475 c 0
 362 467 351 464 340 464 c 2
 305 464 l 2
 297 464 291 466 285 470 c 0
 277 475 273 484 273 493 c 0
 273 496 274 498 274 501 c 0
 276 516 278 532 281 547 c 0
 285 567 299 580 320 580 c 2
253 157 m 2
 288 157 l 2
 296 157 303 155 309 151 c 0
 317 146 320 138 320 129 c 0
 320 126 320 123 319 120 c 0
 317 104 315 89 312 73 c 0
 310 64 308 57 302 51 c 0
 295 43 284 40 273 40 c 2
 238 40 l 2
 231 40 224 41 218 45 c 0
 210 50 206 59 206 68 c 0
 206 71 207 74 207 77 c 0
 209 93 212 108 214 124 c 0
 218 144 232 157 253 157 c 2
468 262 m 2
 113 262 l 2
 105 262 99 264 93 268 c 0
 85 273 81 282 81 291 c 0
 81 294 82 296 82 299 c 0
 85 318 86 336 97 348 c 0
 104 356 114 359 125 359 c 2
 480 359 l 2
 488 359 495 357 501 353 c 0
 509 348 512 340 512 331 c 0
 512 328 512 325 511 322 c 0
 508 303 508 285 497 273 c 0
 490 265 479 262 468 262 c 2
EndSplineSet
EndChar

StartChar: oslash
Encoding: 248 248 184
Width: 575
GlyphClass: 2
Flags: W
AnchorPoint: "Anchor-1" 327 500 basechar 0
LayerCount: 2
Fore
SplineSet
176 146 m 1
 220 235 264 325 308 414 c 1
 281 412 258 400 238 381 c 0
 194 339 168 264 168 203 c 0
 168 181 171 162 176 146 c 1
337 119 m 0
 381 161 407 236 407 297 c 0
 407 320 404 340 397 358 c 1
 264 86 l 1
 292 87 316 99 337 119 c 0
410 575 m 0
 415 575 420 575 425 573 c 2
 457 560 l 2
 470 557 481 550 481 540 c 0
 481 533 479 525 476 518 c 2
 452 469 l 1
 458 464 464 458 470 451 c 0
 497 419 513 373 513 313 c 0
 513 156 418 -10 250 -10 c 0
 239 -10 229 -10 218 -8 c 1
 186 -72 l 2
 180 -81 170 -88 156 -88 c 0
 151 -88 146 -88 141 -86 c 2
 108 -73 l 2
 95 -69 85 -62 85 -52 c 0
 85 -45 86 -38 89 -31 c 2
 122 35 l 1
 85 68 62 119 62 191 c 0
 62 346 163 510 332 510 c 0
 340 510 348 510 355 509 c 1
 363 526 371 542 379 559 c 0
 386 568 396 575 410 575 c 0
EndSplineSet
EndChar

StartChar: ugrave
Encoding: 249 249 185
Width: 575
GlyphClass: 2
Flags: W
LayerCount: 2
Fore
SplineSet
211 -11 m 1
 211 -11 211 -10 212 -10 c 1
 114 -10 66 39 66 143 c 0
 66 167 69 193 74 224 c 2
 114 467 l 2
 115 477 120 487 129 493 c 0
 136 498 144 500 153 500 c 2
 188 500 l 2
 196 500 203 498 209 494 c 0
 216 489 219 480 219 471 c 2
 219 465 l 1
 179 224 l 2
 175 199 173 177 173 160 c 0
 173 122 182 105 195 96 c 0
 206 89 222 86 242 86 c 0
 278 86 324 111 375 162 c 1
 426 468 l 2
 429 488 445 500 465 500 c 2
 500 500 l 2
 508 500 515 498 521 494 c 0
 528 488 531 480 531 471 c 2
 531 465 l 1
 460 37 l 2
 458 19 445 0 422 0 c 2
 385 0 l 2
 377 0 370 2 364 6 c 0
 357 12 354 21 354 30 c 2
 354 36 l 2
 354 40 355 44 356 48 c 1
 314 14 218 -11 211 -11 c 1
243 764 m 0
 249 764 255 763 261 760 c 2
 454 659 l 2
 465 654 472 645 472 633 c 0
 472 626 470 618 466 612 c 0
 462 606 458 599 454 593 c 0
 445 582 434 574 421 574 c 0
 416 574 412 575 408 577 c 2
 197 652 l 2
 185 656 176 665 176 678 c 0
 176 685 179 691 183 698 c 2
 212 744 l 2
 219 756 230 764 243 764 c 0
EndSplineSet
EndChar

StartChar: uacute
Encoding: 250 250 186
Width: 575
GlyphClass: 2
Flags: W
LayerCount: 2
Fore
SplineSet
211 -11 m 1
 211 -11 211 -10 212 -10 c 1
 114 -10 66 39 66 143 c 0
 66 167 69 193 74 224 c 2
 114 467 l 2
 115 477 120 487 129 493 c 0
 136 498 144 500 153 500 c 2
 188 500 l 2
 196 500 203 498 209 494 c 0
 216 489 219 480 219 471 c 2
 219 465 l 1
 179 224 l 2
 175 199 173 177 173 160 c 0
 173 122 182 105 195 96 c 0
 206 89 222 86 242 86 c 0
 278 86 324 111 375 162 c 1
 426 468 l 2
 429 488 445 500 465 500 c 2
 500 500 l 2
 508 500 515 498 521 494 c 0
 528 488 531 480 531 471 c 2
 531 465 l 1
 460 37 l 2
 458 19 445 0 422 0 c 2
 385 0 l 2
 377 0 370 2 364 6 c 0
 357 12 354 21 354 30 c 2
 354 36 l 2
 354 40 355 44 356 48 c 1
 314 14 218 -11 211 -11 c 1
224 624 m 0
 224 640 234 652 250 659 c 2
 476 760 l 2
 482 763 487 764 493 764 c 0
 506 764 517 755 521 742 c 2
 534 696 l 2
 535 692 536 688 536 684 c 0
 536 668 524 656 508 651 c 2
 276 576 l 2
 271 574 266 574 261 574 c 0
 247 574 236 583 232 596 c 0
 230 602 227 608 225 614 c 0
 224 617 224 621 224 624 c 0
EndSplineSet
EndChar

StartChar: ucircumflex
Encoding: 251 251 187
Width: 575
GlyphClass: 2
Flags: W
LayerCount: 2
Fore
SplineSet
211 -11 m 1
 211 -11 211 -10 212 -10 c 1
 114 -10 66 39 66 143 c 0
 66 167 69 193 74 224 c 2
 114 467 l 2
 115 477 120 487 129 493 c 0
 136 498 144 500 153 500 c 2
 188 500 l 2
 196 500 203 498 209 494 c 0
 216 489 219 480 219 471 c 2
 219 465 l 1
 179 224 l 2
 175 199 173 177 173 160 c 0
 173 122 182 105 195 96 c 0
 206 89 222 86 242 86 c 0
 278 86 324 111 375 162 c 1
 426 468 l 2
 429 488 445 500 465 500 c 2
 500 500 l 2
 508 500 515 498 521 494 c 0
 528 488 531 480 531 471 c 2
 531 465 l 1
 460 37 l 2
 458 19 445 0 422 0 c 2
 385 0 l 2
 377 0 370 2 364 6 c 0
 357 12 354 21 354 30 c 2
 354 36 l 2
 354 40 355 44 356 48 c 1
 314 14 218 -11 211 -11 c 1
205 586 m 0
 194 586 184 593 177 602 c 2
 165 626 l 2
 162 632 160 638 160 644 c 0
 160 657 169 668 181 675 c 2
 296 741 l 2
 320 755 342 765 368 765 c 0
 394 765 417 753 435 740 c 2
 528 674 l 2
 536 668 542 660 542 650 c 0
 542 641 537 632 530 624 c 2
 510 601 l 2
 502 592 493 586 482 586 c 0
 475 586 467 589 461 594 c 2
 370 666 l 2
 368 667 367 668 366 669 c 0
 362 672 362 673 357 673 c 0
 352 673 350 672 344 668 c 0
 343 667 341 666 339 665 c 2
 226 594 l 2
 219 590 213 586 205 586 c 0
EndSplineSet
EndChar

StartChar: udieresis
Encoding: 252 252 188
Width: 575
GlyphClass: 2
Flags: W
LayerCount: 2
Fore
SplineSet
211 -11 m 1
 211 -11 211 -10 212 -10 c 1
 114 -10 66 39 66 143 c 0
 66 167 69 193 74 224 c 2
 114 467 l 2
 115 477 120 487 129 493 c 0
 136 498 144 500 153 500 c 2
 188 500 l 2
 196 500 203 498 209 494 c 0
 216 489 219 480 219 471 c 2
 219 465 l 1
 179 224 l 2
 175 199 173 177 173 160 c 0
 173 122 182 105 195 96 c 0
 206 89 222 86 242 86 c 0
 278 86 324 111 375 162 c 1
 426 468 l 2
 429 488 445 500 465 500 c 2
 500 500 l 2
 508 500 515 498 521 494 c 0
 528 488 531 480 531 471 c 2
 531 465 l 1
 460 37 l 2
 458 19 445 0 422 0 c 2
 385 0 l 2
 377 0 370 2 364 6 c 0
 357 12 354 21 354 30 c 2
 354 36 l 2
 354 40 355 44 356 48 c 1
 314 14 218 -11 211 -11 c 1
240 720 m 2
 275 720 l 2
 283 720 290 718 296 714 c 0
 304 709 307 701 307 692 c 0
 307 689 307 686 306 683 c 0
 304 668 302 652 299 637 c 0
 297 628 295 621 289 615 c 0
 282 607 271 604 260 604 c 2
 225 604 l 2
 217 604 211 606 205 610 c 0
 197 615 193 624 193 633 c 0
 193 636 194 638 194 641 c 0
 196 656 198 672 201 687 c 0
 205 707 219 720 240 720 c 2
447 720 m 2
 482 720 l 2
 490 720 496 718 502 714 c 0
 510 709 514 700 514 691 c 0
 514 688 513 686 513 683 c 0
 511 668 509 652 506 637 c 0
 504 626 499 617 490 611 c 0
 483 606 476 604 467 604 c 2
 432 604 l 2
 424 604 417 606 411 610 c 0
 403 615 400 623 400 632 c 0
 400 635 400 638 401 641 c 0
 403 656 405 672 408 687 c 0
 412 707 426 720 447 720 c 2
EndSplineSet
EndChar

StartChar: yacute
Encoding: 253 253 189
Width: 575
GlyphClass: 2
Flags: W
LayerCount: 2
Fore
SplineSet
8 -135 m 0
 34 -146 60 -147 85 -147 c 2
 101 -147 l 2
 192 -147 245 -104 292 -10 c 1
 257 -10 l 2
 222 -10 194 -3 173 10 c 0
 146 26 132 53 128 86 c 0
 116 212 104 337 92 463 c 1
 92 466 l 2
 92 477 96 487 105 493 c 0
 112 498 120 500 129 500 c 2
 165 500 l 2
 173 500 180 499 186 494 c 0
 194 488 197 480 198 471 c 0
 210 348 222 226 234 103 c 0
 234 95 237 91 242 88 c 0
 247 85 255 83 268 83 c 2
 330 83 l 1
 367 183 411 347 449 473 c 0
 455 492 473 500 491 500 c 2
 527 500 l 2
 534 500 541 499 546 495 c 0
 553 490 555 482 555 475 c 0
 555 470 555 465 553 460 c 0
 542 422 531 386 521 351 c 0
 413 -20 350 -245 103 -245 c 2
 98 -245 l 2
 59 -245 12 -244 -36 -224 c 0
 -47 -219 -56 -210 -56 -197 c 0
 -56 -191 -54 -184 -51 -178 c 2
 -39 -155 l 2
 -33 -141 -21 -132 -7 -132 c 0
 -2 -132 3 -133 8 -135 c 0
224 624 m 0
 224 640 234 652 250 659 c 2
 476 760 l 2
 482 763 487 764 493 764 c 0
 506 764 517 755 521 742 c 2
 534 696 l 2
 535 692 536 688 536 684 c 0
 536 668 524 656 508 651 c 2
 276 576 l 2
 271 574 266 574 261 574 c 0
 247 574 236 583 232 596 c 0
 230 602 227 608 225 614 c 0
 224 617 224 621 224 624 c 0
EndSplineSet
EndChar

StartChar: thorn
Encoding: 254 254 190
Width: 575
GlyphClass: 2
Flags: W
LayerCount: 2
Fore
SplineSet
142 666 m 0
 146 684 158 700 180 700 c 2
 215 700 l 2
 223 700 230 699 236 695 c 0
 244 690 248 681 248 672 c 0
 248 669 247 667 247 664 c 2
 223 508 l 1
 254 511 280 512 300 512 c 0
 362 512 410 503 445 478 c 0
 489 447 508 394 508 317 c 0
 508 232 492 158 455 102 c 0
 409 32 331 -8 218 -8 c 0
 199 -8 171 -7 138 -5 c 1
 113 -166 l 2
 109 -185 96 -200 75 -200 c 2
 40 -200 l 2
 33 -200 26 -199 20 -195 c 0
 12 -190 7 -182 7 -172 c 0
 7 -169 8 -167 8 -164 c 0
 53 113 97 389 142 666 c 0
372 145 m 0
 393 184 402 235 402 295 c 0
 402 338 395 366 382 384 c 0
 366 406 337 415 288 415 c 0
 271 415 243 413 208 413 c 1
 154 71 l 1
 185 69 229 68 230 68 c 0
 303 68 346 97 372 145 c 0
EndSplineSet
EndChar

StartChar: ydieresis
Encoding: 255 255 191
Width: 575
GlyphClass: 2
Flags: W
LayerCount: 2
Fore
SplineSet
8 -135 m 0
 34 -146 60 -147 85 -147 c 2
 101 -147 l 2
 192 -147 245 -104 292 -10 c 1
 257 -10 l 2
 222 -10 194 -3 173 10 c 0
 146 26 132 53 128 86 c 0
 116 212 104 337 92 463 c 1
 92 466 l 2
 92 477 96 487 105 493 c 0
 112 498 120 500 129 500 c 2
 165 500 l 2
 173 500 180 499 186 494 c 0
 194 488 197 480 198 471 c 0
 210 348 222 226 234 103 c 0
 234 95 237 91 242 88 c 0
 247 85 255 83 268 83 c 2
 330 83 l 1
 367 183 411 347 449 473 c 0
 455 492 473 500 491 500 c 2
 527 500 l 2
 534 500 541 499 546 495 c 0
 553 490 555 482 555 475 c 0
 555 470 555 465 553 460 c 0
 542 422 531 386 521 351 c 0
 413 -20 350 -245 103 -245 c 2
 98 -245 l 2
 59 -245 12 -244 -36 -224 c 0
 -47 -219 -56 -210 -56 -197 c 0
 -56 -191 -54 -184 -51 -178 c 2
 -39 -155 l 2
 -33 -141 -21 -132 -7 -132 c 0
 -2 -132 3 -133 8 -135 c 0
240 720 m 2
 275 720 l 2
 283 720 290 718 296 714 c 0
 304 709 307 701 307 692 c 0
 307 689 307 686 306 683 c 0
 304 668 302 652 299 637 c 0
 297 628 295 621 289 615 c 0
 282 607 271 604 260 604 c 2
 225 604 l 2
 217 604 211 606 205 610 c 0
 197 615 193 624 193 633 c 0
 193 636 194 638 194 641 c 0
 196 656 198 672 201 687 c 0
 205 707 219 720 240 720 c 2
447 720 m 2
 482 720 l 2
 490 720 496 718 502 714 c 0
 510 709 514 700 514 691 c 0
 514 688 513 686 513 683 c 0
 511 668 509 652 506 637 c 0
 504 626 499 617 490 611 c 0
 483 606 476 604 467 604 c 2
 432 604 l 2
 424 604 417 606 411 610 c 0
 403 615 400 623 400 632 c 0
 400 635 400 638 401 641 c 0
 403 656 405 672 408 687 c 0
 412 707 426 720 447 720 c 2
EndSplineSet
EndChar

StartChar: Amacron
Encoding: 256 256 192
Width: 575
GlyphClass: 2
Flags: W
LayerCount: 2
Fore
SplineSet
75 27 m 2
 68 9 53 0 34 0 c 2
 -1 0 l 2
 -8 0 -15 1 -20 5 c 0
 -27 10 -31 17 -31 25 c 0
 -31 30 -29 36 -27 41 c 2
 215 617 l 2
 240 677 292 710 355 710 c 0
 417 710 473 678 479 615 c 2
 533 38 l 1
 533 33 l 2
 533 13 517 0 497 0 c 2
 461 0 l 2
 453 0 445 1 439 6 c 0
 431 12 428 20 427 30 c 2
 410 210 l 1
 154 210 l 1
 75 27 l 2
374 597 m 2
 373 608 363 614 349 614 c 0
 334 614 319 606 315 594 c 2
 193 306 l 1
 401 306 l 1
 374 597 l 2
313 920 m 2
 551 920 l 2
 559 920 565 918 571 914 c 0
 579 909 583 900 583 891 c 0
 583 888 582 886 582 883 c 2
 578 857 l 2
 575 836 559 824 539 824 c 2
 301 824 l 2
 293 824 286 826 280 830 c 0
 272 836 270 845 270 854 c 2
 270 861 l 2
 271 870 272 878 274 887 c 0
 278 907 292 920 313 920 c 2
EndSplineSet
EndChar

StartChar: amacron
Encoding: 257 257 193
Width: 575
GlyphClass: 2
Flags: W
LayerCount: 2
Fore
SplineSet
100 46 m 0
 79 78 67 124 67 191 c 0
 67 379 159 510 357 510 c 0
 386 510 442 508 503 500 c 0
 520 497 533 486 533 469 c 0
 533 466 532 464 532 461 c 2
 464 37 l 2
 462 20 450 0 427 0 c 2
 390 0 l 2
 382 0 376 2 370 6 c 0
 362 11 358 20 358 29 c 0
 358 36 360 42 361 48 c 1
 312 10 259 -10 212 -10 c 0
 167 -10 127 5 100 46 c 0
421 411 m 1
 388 413 361 414 345 414 c 0
 273 414 229 385 203 340 c 0
 182 304 173 257 173 207 c 0
 173 162 179 132 189 114 c 0
 201 92 218 86 242 86 c 0
 278 86 329 111 379 161 c 1
 421 411 l 1
280 720 m 2
 518 720 l 2
 526 720 532 718 538 714 c 0
 546 709 550 700 550 691 c 0
 550 688 549 686 549 683 c 2
 545 657 l 2
 542 636 526 624 506 624 c 2
 268 624 l 2
 260 624 253 626 247 630 c 0
 239 636 237 645 237 654 c 2
 237 661 l 2
 238 670 239 678 241 687 c 0
 245 707 259 720 280 720 c 2
EndSplineSet
EndChar

StartChar: Abreve
Encoding: 258 258 194
Width: 575
GlyphClass: 2
Flags: W
LayerCount: 2
Fore
SplineSet
75 27 m 2
 68 9 53 0 34 0 c 2
 -1 0 l 2
 -8 0 -15 1 -20 5 c 0
 -27 10 -31 17 -31 25 c 0
 -31 30 -29 36 -27 41 c 2
 215 617 l 2
 240 677 292 710 355 710 c 0
 417 710 473 678 479 615 c 2
 533 38 l 1
 533 33 l 2
 533 13 517 0 497 0 c 2
 461 0 l 2
 453 0 445 1 439 6 c 0
 431 12 428 20 427 30 c 2
 410 210 l 1
 154 210 l 1
 75 27 l 2
374 597 m 2
 373 608 363 614 349 614 c 0
 334 614 319 606 315 594 c 2
 193 306 l 1
 401 306 l 1
 374 597 l 2
590 929 m 0
 590 924 589 918 586 913 c 0
 550 830 475 783 376 783 c 0
 276 783 213 831 202 916 c 1
 202 919 l 2
 202 939 216 953 235 956 c 2
 264 961 l 2
 267 962 269 962 272 962 c 0
 281 962 289 958 294 951 c 0
 298 946 300 939 301 932 c 0
 305 906 316 888 332 877 c 0
 345 868 363 863 385 863 c 0
 434 863 472 888 494 935 c 0
 501 950 512 962 529 962 c 0
 532 962 535 962 538 961 c 2
 565 956 l 2
 578 953 590 944 590 929 c 0
EndSplineSet
EndChar

StartChar: abreve
Encoding: 259 259 195
Width: 575
GlyphClass: 2
Flags: W
LayerCount: 2
Fore
SplineSet
100 46 m 0
 79 78 67 124 67 191 c 0
 67 379 159 510 357 510 c 0
 386 510 442 508 503 500 c 0
 520 497 533 486 533 469 c 0
 533 466 532 464 532 461 c 2
 464 37 l 2
 462 20 450 0 427 0 c 2
 390 0 l 2
 382 0 376 2 370 6 c 0
 362 11 358 20 358 29 c 0
 358 36 360 42 361 48 c 1
 312 10 259 -10 212 -10 c 0
 167 -10 127 5 100 46 c 0
421 411 m 1
 388 413 361 414 345 414 c 0
 273 414 229 385 203 340 c 0
 182 304 173 257 173 207 c 0
 173 162 179 132 189 114 c 0
 201 92 218 86 242 86 c 0
 278 86 329 111 379 161 c 1
 421 411 l 1
557 729 m 0
 557 724 556 718 553 713 c 0
 517 630 442 583 343 583 c 0
 243 583 180 631 169 716 c 1
 169 719 l 2
 169 739 183 753 202 756 c 2
 231 761 l 2
 234 762 236 762 239 762 c 0
 248 762 256 758 261 751 c 0
 265 746 267 739 268 732 c 0
 272 706 283 688 299 677 c 0
 312 668 330 663 352 663 c 0
 401 663 439 688 461 735 c 0
 468 750 479 762 496 762 c 0
 499 762 502 762 505 761 c 2
 532 756 l 2
 545 753 557 744 557 729 c 0
EndSplineSet
EndChar

StartChar: Aogonek
Encoding: 260 260 196
Width: 575
GlyphClass: 2
Flags: W
LayerCount: 2
Fore
SplineSet
75 27 m 2
 68 9 53 0 34 0 c 2
 -1 0 l 2
 -8 0 -15 1 -20 5 c 0
 -27 10 -31 17 -31 25 c 0
 -31 30 -29 36 -27 41 c 2
 215 617 l 2
 240 677 292 710 355 710 c 0
 417 710 473 678 479 615 c 2
 533 38 l 1
 533 33 l 2
 533 23 529 15 523 9 c 0
 524 7 524 5 524 2 c 0
 524 -4 522 -11 519 -18 c 0
 512 -38 505 -60 502 -75 c 0
 500 -90 499 -101 499 -112 c 0
 499 -139 505 -153 514 -167 c 0
 518 -174 520 -180 520 -188 c 0
 520 -198 515 -207 507 -215 c 2
 482 -238 l 2
 475 -245 466 -251 456 -251 c 0
 447 -251 438 -245 432 -238 c 0
 406 -207 390 -168 390 -126 c 0
 390 -118 391 -110 392 -102 c 2
 392 -101 l 1
 397 -74 404 -37 449 1 c 1
 445 2 442 3 439 6 c 0
 431 12 428 20 427 30 c 2
 410 210 l 1
 154 210 l 1
 75 27 l 2
374 597 m 2
 373 608 363 614 349 614 c 0
 334 614 319 606 315 594 c 2
 193 306 l 1
 401 306 l 1
 374 597 l 2
EndSplineSet
EndChar

StartChar: aogonek
Encoding: 261 261 197
Width: 575
GlyphClass: 2
Flags: W
LayerCount: 2
Fore
SplineSet
100 46 m 0
 79 78 67 124 67 191 c 0
 67 379 159 510 357 510 c 0
 386 510 442 508 503 500 c 0
 520 497 533 486 533 469 c 0
 533 466 532 464 532 461 c 2
 464 37 l 2
 463 28 459 18 452 11 c 0
 453 8 454 5 454 2 c 0
 454 -4 452 -11 449 -18 c 0
 442 -38 435 -60 432 -75 c 0
 430 -90 429 -101 429 -112 c 0
 429 -139 435 -153 444 -167 c 0
 448 -174 450 -180 450 -188 c 0
 450 -198 445 -207 437 -215 c 2
 412 -238 l 2
 405 -245 396 -251 386 -251 c 0
 377 -251 368 -245 362 -238 c 0
 336 -207 320 -168 320 -126 c 0
 320 -118 321 -110 322 -102 c 2
 322 -101 l 1
 327 -74 335 -37 380 1 c 1
 377 2 373 4 370 6 c 0
 362 11 358 20 358 29 c 0
 358 36 360 42 361 48 c 1
 312 10 259 -10 212 -10 c 0
 167 -10 127 5 100 46 c 0
421 411 m 1
 388 413 361 414 345 414 c 0
 273 414 229 385 203 340 c 0
 182 304 173 257 173 207 c 0
 173 162 179 132 189 114 c 0
 201 92 218 86 242 86 c 0
 278 86 329 111 379 161 c 1
 421 411 l 1
EndSplineSet
EndChar

StartChar: Cacute
Encoding: 262 262 198
Width: 575
GlyphClass: 2
Flags: W
LayerCount: 2
Fore
SplineSet
203 387 m 0
 186 287 182 256 182 222 c 0
 182 156 203 120 230 100 c 0
 252 84 280 78 308 78 c 0
 337 78 374 84 419 100 c 0
 424 102 434 103 434 103 c 2
 448 103 459 93 462 79 c 2
 468 56 l 2
 469 52 469 48 469 44 c 0
 469 28 460 17 444 11 c 0
 397 -8 302 -20 297 -20 c 0
 250 -20 200 -10 160 18 c 0
 109 53 75 115 75 211 c 0
 75 250 80 283 97 390 c 0
 138 638 290 710 413 710 c 0
 459 710 505 699 550 679 c 0
 561 674 569 665 569 653 c 0
 569 646 567 639 563 632 c 2
 549 608 l 2
 542 595 531 587 517 587 c 0
 512 587 507 588 502 590 c 0
 461 606 405 611 399 612 c 0
 357 612 311 599 273 557 c 0
 242 523 217 470 203 387 c 0
257 824 m 0
 257 840 267 852 283 859 c 2
 509 960 l 2
 515 963 520 964 526 964 c 0
 539 964 550 955 554 942 c 2
 567 896 l 2
 568 892 569 888 569 884 c 0
 569 868 557 856 541 851 c 2
 309 776 l 2
 304 774 299 774 294 774 c 0
 280 774 269 783 265 796 c 0
 263 802 260 808 258 814 c 0
 257 817 257 821 257 824 c 0
EndSplineSet
EndChar

StartChar: cacute
Encoding: 263 263 199
Width: 575
GlyphClass: 2
Flags: W
LayerCount: 2
Fore
SplineSet
518 479 m 0
 529 474 537 465 537 453 c 0
 537 446 535 439 531 432 c 2
 517 408 l 2
 510 395 499 387 485 387 c 0
 480 387 475 388 470 390 c 0
 430 406 365 411 357 412 c 0
 233 412 176 318 176 213 c 0
 176 158 193 127 218 109 c 0
 238 95 266 88 299 88 c 0
 339 88 374 94 421 110 c 0
 426 112 431 113 436 113 c 0
 450 113 460 103 464 89 c 2
 470 65 l 2
 471 62 471 58 471 55 c 0
 471 40 462 27 446 21 c 0
 397 2 293 -10 287 -10 c 0
 236 -10 188 1 149 27 c 0
 101 60 70 118 70 204 c 0
 70 370 181 510 369 510 c 0
 421 510 473 500 518 479 c 0
224 624 m 0
 224 640 234 652 250 659 c 2
 476 760 l 2
 482 763 487 764 493 764 c 0
 506 764 517 755 521 742 c 2
 534 696 l 2
 535 692 536 688 536 684 c 0
 536 668 524 656 508 651 c 2
 276 576 l 2
 271 574 266 574 261 574 c 0
 247 574 236 583 232 596 c 0
 230 602 227 608 225 614 c 0
 224 617 224 621 224 624 c 0
EndSplineSet
EndChar

StartChar: Ccircumflex
Encoding: 264 264 200
Width: 575
GlyphClass: 2
Flags: W
LayerCount: 2
Fore
SplineSet
203 387 m 0
 186 287 182 256 182 222 c 0
 182 156 203 120 230 100 c 0
 252 84 280 78 308 78 c 0
 337 78 374 84 419 100 c 0
 424 102 434 103 434 103 c 2
 448 103 459 93 462 79 c 2
 468 56 l 2
 469 52 469 48 469 44 c 0
 469 28 460 17 444 11 c 0
 397 -8 302 -20 297 -20 c 0
 250 -20 200 -10 160 18 c 0
 109 53 75 115 75 211 c 0
 75 250 80 283 97 390 c 0
 138 638 290 710 413 710 c 0
 459 710 505 699 550 679 c 0
 561 674 569 665 569 653 c 0
 569 646 567 639 563 632 c 2
 549 608 l 2
 542 595 531 587 517 587 c 0
 512 587 507 588 502 590 c 0
 461 606 405 611 399 612 c 0
 357 612 311 599 273 557 c 0
 242 523 217 470 203 387 c 0
238 786 m 0
 227 786 217 793 210 802 c 2
 198 826 l 2
 195 832 193 838 193 844 c 0
 193 857 202 868 214 875 c 2
 329 941 l 2
 353 955 375 965 401 965 c 0
 427 965 450 953 468 940 c 2
 561 874 l 2
 569 868 575 860 575 850 c 0
 575 841 570 832 563 824 c 2
 543 801 l 2
 535 792 526 786 515 786 c 0
 508 786 500 789 494 794 c 2
 403 866 l 2
 401 867 400 868 399 869 c 0
 395 872 395 873 390 873 c 0
 385 873 383 872 377 868 c 0
 376 867 374 866 372 865 c 2
 259 794 l 2
 252 790 246 786 238 786 c 0
EndSplineSet
EndChar

StartChar: ccircumflex
Encoding: 265 265 201
Width: 575
GlyphClass: 2
Flags: W
LayerCount: 2
Fore
SplineSet
518 479 m 0
 529 474 537 465 537 453 c 0
 537 446 535 439 531 432 c 2
 517 408 l 2
 510 395 499 387 485 387 c 0
 480 387 475 388 470 390 c 0
 430 406 365 411 357 412 c 0
 233 412 176 318 176 213 c 0
 176 158 193 127 218 109 c 0
 238 95 266 88 299 88 c 0
 339 88 374 94 421 110 c 0
 426 112 431 113 436 113 c 0
 450 113 460 103 464 89 c 2
 470 65 l 2
 471 62 471 58 471 55 c 0
 471 40 462 27 446 21 c 0
 397 2 293 -10 287 -10 c 0
 236 -10 188 1 149 27 c 0
 101 60 70 118 70 204 c 0
 70 370 181 510 369 510 c 0
 421 510 473 500 518 479 c 0
205 586 m 0
 194 586 184 593 177 602 c 2
 165 626 l 2
 162 632 160 638 160 644 c 0
 160 657 169 668 181 675 c 2
 296 741 l 2
 320 755 342 765 368 765 c 0
 394 765 417 753 435 740 c 2
 528 674 l 2
 536 668 542 660 542 650 c 0
 542 641 537 632 530 624 c 2
 510 601 l 2
 502 592 493 586 482 586 c 0
 475 586 467 589 461 594 c 2
 370 666 l 2
 368 667 367 668 366 669 c 0
 362 672 362 673 357 673 c 0
 352 673 350 672 344 668 c 0
 343 667 341 666 339 665 c 2
 226 594 l 2
 219 590 213 586 205 586 c 0
EndSplineSet
EndChar

StartChar: Cdotaccent
Encoding: 266 266 202
Width: 575
GlyphClass: 2
Flags: W
LayerCount: 2
Fore
SplineSet
203 387 m 0
 186 287 182 256 182 222 c 0
 182 156 203 120 230 100 c 0
 252 84 280 78 308 78 c 0
 337 78 374 84 419 100 c 0
 424 102 434 103 434 103 c 2
 448 103 459 93 462 79 c 2
 468 56 l 2
 469 52 469 48 469 44 c 0
 469 28 460 17 444 11 c 0
 397 -8 302 -20 297 -20 c 0
 250 -20 200 -10 160 18 c 0
 109 53 75 115 75 211 c 0
 75 250 80 283 97 390 c 0
 138 638 290 710 413 710 c 0
 459 710 505 699 550 679 c 0
 561 674 569 665 569 653 c 0
 569 646 567 639 563 632 c 2
 549 608 l 2
 542 595 531 587 517 587 c 0
 512 587 507 588 502 590 c 0
 461 606 405 611 399 612 c 0
 357 612 311 599 273 557 c 0
 242 523 217 470 203 387 c 0
374 920 m 2
 409 920 l 2
 417 920 424 918 430 914 c 0
 438 909 441 901 441 892 c 0
 441 889 441 886 440 883 c 0
 438 868 436 852 433 837 c 0
 431 828 429 821 423 815 c 0
 416 807 405 804 394 804 c 2
 359 804 l 2
 351 804 345 806 339 810 c 0
 331 815 327 824 327 833 c 0
 327 836 328 838 328 841 c 0
 330 856 332 872 335 887 c 0
 339 907 353 920 374 920 c 2
EndSplineSet
EndChar

StartChar: cdotaccent
Encoding: 267 267 203
Width: 575
GlyphClass: 2
Flags: W
LayerCount: 2
Fore
SplineSet
518 479 m 0
 529 474 537 465 537 453 c 0
 537 446 535 439 531 432 c 2
 517 408 l 2
 510 395 499 387 485 387 c 0
 480 387 475 388 470 390 c 0
 430 406 365 411 357 412 c 0
 233 412 176 318 176 213 c 0
 176 158 193 127 218 109 c 0
 238 95 266 88 299 88 c 0
 339 88 374 94 421 110 c 0
 426 112 431 113 436 113 c 0
 450 113 460 103 464 89 c 2
 470 65 l 2
 471 62 471 58 471 55 c 0
 471 40 462 27 446 21 c 0
 397 2 293 -10 287 -10 c 0
 236 -10 188 1 149 27 c 0
 101 60 70 118 70 204 c 0
 70 370 181 510 369 510 c 0
 421 510 473 500 518 479 c 0
341 720 m 2
 376 720 l 2
 384 720 391 718 397 714 c 0
 405 709 408 701 408 692 c 0
 408 689 408 686 407 683 c 0
 405 668 403 652 400 637 c 0
 398 628 396 621 390 615 c 0
 383 607 372 604 361 604 c 2
 326 604 l 2
 318 604 312 606 306 610 c 0
 298 615 294 624 294 633 c 0
 294 636 295 638 295 641 c 0
 297 656 299 672 302 687 c 0
 306 707 320 720 341 720 c 2
EndSplineSet
EndChar

StartChar: Ccaron
Encoding: 268 268 204
Width: 575
GlyphClass: 2
Flags: W
LayerCount: 2
Fore
SplineSet
203 387 m 0
 186 287 182 256 182 222 c 0
 182 156 203 120 230 100 c 0
 252 84 280 78 308 78 c 0
 337 78 374 84 419 100 c 0
 424 102 434 103 434 103 c 2
 448 103 459 93 462 79 c 2
 468 56 l 2
 469 52 469 48 469 44 c 0
 469 28 460 17 444 11 c 0
 397 -8 302 -20 297 -20 c 0
 250 -20 200 -10 160 18 c 0
 109 53 75 115 75 211 c 0
 75 250 80 283 97 390 c 0
 138 638 290 710 413 710 c 0
 459 710 505 699 550 679 c 0
 561 674 569 665 569 653 c 0
 569 646 567 639 563 632 c 2
 549 608 l 2
 542 595 531 587 517 587 c 0
 512 587 507 588 502 590 c 0
 461 606 405 611 399 612 c 0
 357 612 311 599 273 557 c 0
 242 523 217 470 203 387 c 0
376 787 m 0
 350 787 330 798 310 811 c 2
 216 877 l 2
 208 883 202 892 202 902 c 0
 202 911 207 920 214 927 c 0
 221 935 227 943 234 950 c 0
 242 959 252 965 263 965 c 0
 271 965 277 962 283 957 c 0
 313 933 345 910 375 886 c 0
 378 883 381 880 382 880 c 0
 383 880 385 879 388 879 c 0
 393 879 394 880 399 883 c 0
 439 908 478 933 518 958 c 0
 525 962 532 965 539 965 c 0
 550 965 560 958 565 948 c 2
 579 925 l 2
 582 919 584 913 584 907 c 0
 584 894 576 883 563 876 c 2
 449 811 l 2
 426 798 402 787 376 787 c 0
EndSplineSet
EndChar

StartChar: ccaron
Encoding: 269 269 205
Width: 575
GlyphClass: 2
Flags: W
LayerCount: 2
Fore
SplineSet
518 479 m 0
 529 474 537 465 537 453 c 0
 537 446 535 439 531 432 c 2
 517 408 l 2
 510 395 499 387 485 387 c 0
 480 387 475 388 470 390 c 0
 430 406 365 411 357 412 c 0
 233 412 176 318 176 213 c 0
 176 158 193 127 218 109 c 0
 238 95 266 88 299 88 c 0
 339 88 374 94 421 110 c 0
 426 112 431 113 436 113 c 0
 450 113 460 103 464 89 c 2
 470 65 l 2
 471 62 471 58 471 55 c 0
 471 40 462 27 446 21 c 0
 397 2 293 -10 287 -10 c 0
 236 -10 188 1 149 27 c 0
 101 60 70 118 70 204 c 0
 70 370 181 510 369 510 c 0
 421 510 473 500 518 479 c 0
343 587 m 0
 317 587 297 598 277 611 c 2
 183 677 l 2
 175 683 169 692 169 702 c 0
 169 711 174 720 181 727 c 0
 188 735 194 743 201 750 c 0
 209 759 219 765 230 765 c 0
 238 765 244 762 250 757 c 0
 280 733 312 710 342 686 c 0
 345 683 348 680 349 680 c 0
 350 680 352 679 355 679 c 0
 360 679 361 680 366 683 c 0
 406 708 445 733 485 758 c 0
 492 762 499 765 506 765 c 0
 517 765 527 758 532 748 c 2
 546 725 l 2
 549 719 551 713 551 707 c 0
 551 694 543 683 530 676 c 2
 416 611 l 2
 393 598 369 587 343 587 c 0
EndSplineSet
EndChar

StartChar: Dcaron
Encoding: 270 270 206
Width: 575
GlyphClass: 2
Flags: W
LayerCount: 2
Fore
SplineSet
133 700 m 2
 185 700 l 2
 387 700 556 657 556 470 c 0
 556 430 552 402 538 319 c 0
 519 200 478 115 401 62 c 0
 339 20 256 0 143 0 c 2
 89 0 l 2
 70 0 55 12 55 30 c 0
 55 32 56 35 56 37 c 2
 149 604 l 1
 125 604 l 2
 106 604 91 616 91 635 c 0
 91 637 92 640 92 643 c 0
 95 664 96 684 111 694 c 0
 118 698 125 700 133 700 c 2
434 334 m 0
 449 422 451 442 451 473 c 0
 451 525 435 558 396 580 c 0
 366 597 320 608 255 612 c 1
 172 86 l 1
 267 90 327 111 367 156 c 0
 401 194 421 252 434 334 c 0
376 787 m 0
 350 787 330 798 310 811 c 2
 216 877 l 2
 208 883 202 892 202 902 c 0
 202 911 207 920 214 927 c 0
 221 935 227 943 234 950 c 0
 242 959 252 965 263 965 c 0
 271 965 277 962 283 957 c 0
 313 933 345 910 375 886 c 0
 378 883 381 880 382 880 c 0
 383 880 385 879 388 879 c 0
 393 879 394 880 399 883 c 0
 439 908 478 933 518 958 c 0
 525 962 532 965 539 965 c 0
 550 965 560 958 565 948 c 2
 579 925 l 2
 582 919 584 913 584 907 c 0
 584 894 576 883 563 876 c 2
 449 811 l 2
 426 798 402 787 376 787 c 0
EndSplineSet
EndChar

StartChar: dcaron
Encoding: 271 271 207
Width: 575
GlyphClass: 2
Flags: W
LayerCount: 2
Fore
SplineSet
421 411 m 1
 388 413 361 414 345 414 c 0
 272 414 229 387 203 344 c 0
 182 309 173 262 173 208 c 0
 173 167 179 137 189 118 c 0
 201 95 219 86 242 86 c 0
 278 86 329 111 379 161 c 1
 421 411 l 1
628 760 m 2
 708 760 l 2
 716 760 723 758 729 754 c 0
 737 748 739 739 739 730 c 2
 739 724 l 1
 724 631 l 2
 707 522 662 418 557 418 c 0
 549 418 542 420 536 424 c 0
 533 426 530 429 528 432 c 1
 464 38 l 2
 462 20 450 0 427 0 c 2
 390 0 l 2
 382 0 376 2 370 6 c 0
 362 11 358 20 358 29 c 0
 358 36 360 42 361 48 c 1
 312 10 259 -10 212 -10 c 0
 167 -10 126 8 100 50 c 0
 79 83 67 129 67 192 c 0
 67 274 83 346 120 401 c 0
 166 470 243 510 357 510 c 0
 376 510 405 509 437 507 c 1
 469 717 l 2
 473 737 487 750 508 750 c 2
 543 750 l 2
 551 750 557 748 563 744 c 0
 571 739 575 730 575 721 c 0
 575 718 574 716 574 713 c 2
 540 502 l 1
 547 509 556 514 568 514 c 0
 577 514 585 518 592 527 c 0
 606 545 615 581 622 625 c 1
 609 625 l 2
 601 625 594 627 588 631 c 0
 581 637 578 646 578 655 c 2
 578 661 l 1
 589 726 l 2
 590 737 595 747 604 753 c 0
 611 758 619 760 628 760 c 2
EndSplineSet
EndChar

StartChar: Dcroat
Encoding: 272 272 208
Width: 575
GlyphClass: 2
Flags: W
LayerCount: 2
Fore
SplineSet
123 700 m 2
 175 700 l 2
 377 700 546 657 546 470 c 0
 546 430 542 402 528 319 c 0
 509 200 468 115 391 62 c 0
 329 20 246 0 133 0 c 2
 79 0 l 2
 60 0 45 12 45 30 c 0
 45 32 46 35 46 37 c 2
 89 302 l 1
 68 302 l 2
 60 302 54 304 48 308 c 0
 40 313 36 322 36 331 c 0
 36 334 37 336 37 339 c 0
 40 358 41 376 52 388 c 0
 59 396 69 399 80 399 c 2
 105 399 l 1
 139 604 l 1
 115 604 l 2
 96 604 81 616 81 635 c 0
 81 637 82 640 82 643 c 0
 85 664 86 684 101 694 c 0
 108 698 115 700 123 700 c 2
424 334 m 0
 439 422 441 442 441 473 c 0
 441 525 425 558 386 580 c 0
 356 597 310 608 245 612 c 1
 211 399 l 1
 303 399 l 2
 311 399 317 397 323 393 c 0
 331 388 335 379 335 370 c 0
 335 367 334 365 334 362 c 0
 333 353 332 344 330 335 c 0
 326 315 312 302 291 302 c 2
 196 302 l 1
 162 86 l 1
 257 90 317 111 357 156 c 0
 391 194 411 252 424 334 c 0
EndSplineSet
EndChar

